<?xml version="1.0" encoding="UTF-8" standalone="no"?>
<!-- Created with Inkscape (http://www.inkscape.org/) -->

<svg
   version="1.1"
   id="svg1"
   width="682.66669"
   height="682.66669"
   viewBox="0 0 682.66669 682.66669"
   sodipodi:docname="img.icons8.png"
   xmlns:inkscape="http://www.inkscape.org/namespaces/inkscape"
   xmlns:sodipodi="http://sodipodi.sourceforge.net/DTD/sodipodi-0.dtd"
   xmlns="http://www.w3.org/2000/svg"
   xmlns:svg="http://www.w3.org/2000/svg">
  <defs
     id="defs1" />
  <sodipodi:namedview
     id="namedview1"
     pagecolor="#ffffff"
     bordercolor="#000000"
     borderopacity="0.25"
     inkscape:showpageshadow="2"
     inkscape:pageopacity="0.0"
     inkscape:pagecheckerboard="0"
     inkscape:deskcolor="#d1d1d1" />
  <g
     inkscape:groupmode="layer"
     inkscape:label="Image"
     id="g1">
    <path
       style="fill:#ffffff"
       d="m 434.94303,624.46478 c -2.41468,-1.19007 -5.11468,-3.42641 -6,-4.96964 -1.13482,-1.97812 -1.82733,-16.96599 -2.34747,-50.80586 -0.6961,-45.28813 -0.90992,-48.52731 -3.78459,-57.33334 -3.96154,-12.13544 -10.57905,-23.97066 -18.04747,-32.27735 l -5.98461,-6.65632 10.9439,-2.89475 c 53.36886,-14.11654 87.84919,-43.38754 99.15151,-84.17158 3.58535,-12.93763 3.24338,-42.2828 -0.66036,-56.66667 -3.78512,-13.94677 -12.78824,-32.46063 -21.14629,-43.48487 -3.67705,-4.85001 -7.11736,-9.5169 -7.64513,-10.37085 -0.52778,-0.85395 0.0871,-5.58576 1.36641,-10.51513 3.42159,-13.18392 3.39294,-50.21559 -0.0506,-65.44263 l -2.52082,-11.14681 -7.99471,0.9045 c -21.42481,2.42394 -48.04486,14.88723 -66.05606,30.92693 l -5.83329,5.19477 -11.58113,-2.91967 c -29.44803,-7.42403 -70.74541,-6.82968 -94.30125,1.35718 -5.07069,1.76232 -5.17898,1.72727 -11.78438,-3.81411 -15.86874,-13.31255 -36.96156,-24.21641 -55.3914,-28.6344 -17.46687,-4.18714 -17.5583,-4.16286 -21.0697,5.59632 -4.58551,12.74441 -6.29633,32.57918 -4.43057,51.36668 0.85473,8.60682 2.24743,17.87184 3.09488,20.58895 1.47319,4.72335 1.30694,5.25005 -3.78777,12 -37.69376,49.94021 -37.7128,110.31102 -0.0471,149.32169 16.97442,17.58054 43.10913,31.77142 73.0542,39.66768 l 11.42254,3.01203 -7.43786,7.52921 c -8.58272,8.68813 -15.19521,21.31116 -18.25019,34.83904 -2.25982,10.00677 -2.90302,10.57085 -15.15704,13.29241 -19.91069,4.42206 -35.77436,-3.96532 -52.56573,-27.79235 -15.39809,-21.84996 -30.01721,-31.01791 -42.7566,-26.81353 -6.8711,2.26767 -6.05408,6.44943 1.76771,9.04766 7.87038,2.61437 16.52333,14.30242 20.32211,27.45027 6.57227,22.74712 12.8603,34.41114 23.05392,42.76405 15.40786,12.62558 33.75889,16.30582 59.17859,11.86806 l 4.33334,-0.75651 v 24.28021 c 0,27.17772 -1.09074,31.82132 -8.1626,34.75058 -5.34595,2.21437 -10.20502,0.66034 -31.91933,-10.20839 -57.07489,-28.56789 -99.87716,-71.76636 -128.007378,-129.1923 -20.40002,-41.64527 -29.16446,-79.72731 -29.21801,-126.95416 -0.0477,-42.03153 6.7504,-74.71518 23.5417,-113.18347 C 103.91322,193.5529 146.09878,146.03055 194.66667,116.56252 254.96381,79.9779 329.64426,66.8437 398.35546,80.73937 c 86.39269,17.47145 158.16101,72.80697 197.07395,151.9499 13.50097,27.45888 21.40775,51.86916 26.79526,82.72393 1.75565,10.05478 2.33004,21.04053 2.36727,45.27607 0.0423,27.51113 -0.37089,34.32061 -2.94527,48.54296 -14.42202,79.67559 -58.52722,146.59524 -125.75183,190.79989 -15.32181,10.07512 -48.43493,26.66846 -53.13556,26.6268 -1.88426,-0.0167 -5.40158,-1.00406 -7.81625,-2.19414 z"
       id="path1" />
  </g>
</svg>
