<svg width="159" height="39" viewBox="0 0 159 39" fill="none" xmlns="http://www.w3.org/2000/svg">
<rect width="159" height="39" fill="white"/>
<path d="M14.8824 10.1765H15.8235V11.1176H14.8824V10.1765ZM15.8235 10.1765H16.7647V11.1176H15.8235V10.1765ZM16.7647 10.1765H17.7059V11.1176H16.7647V10.1765ZM17.7059 11.1176H18.6471V12.0588H17.7059V11.1176ZM17.7059 12.0588H18.6471V13H17.7059V12.0588ZM17.7059 13H18.6471V13.9412H17.7059V13ZM17.7059 13.9412H18.6471V14.8824H17.7059V13.9412ZM17.7059 14.8824H18.6471V15.8235H17.7059V14.8824ZM17.7059 15.8235H18.6471V16.7647H17.7059V15.8235ZM16.7647 19.5882H17.7059V20.5294H16.7647V19.5882ZM16.7647 18.6471H17.7059V19.5882H16.7647V18.6471ZM16.7647 17.7059H17.7059V18.6471H16.7647V17.7059ZM15.8235 16.7647H16.7647V17.7059H15.8235V16.7647ZM15.8235 15.8235H16.7647V16.7647H15.8235V15.8235ZM15.8235 14.8824H16.7647V15.8235H15.8235V14.8824ZM15.8235 13.9412H16.7647V14.8824H15.8235V13.9412ZM15.8235 13H16.7647V13.9412H15.8235V13ZM16.7647 12.0588H17.7059V13H16.7647V12.0588ZM16.7647 11.1176H17.7059V12.0588H16.7647V11.1176ZM16.7647 13H17.7059V13.9412H16.7647V13ZM16.7647 13.9412H17.7059V14.8824H16.7647V13.9412ZM16.7647 14.8824H17.7059V15.8235H16.7647V14.8824ZM16.7647 15.8235H17.7059V16.7647H16.7647V15.8235ZM16.7647 16.7647H17.7059V17.7059H16.7647V16.7647ZM14.8824 12.0588H15.8235V13H14.8824V12.0588ZM14.8824 11.1176H15.8235V12.0588H14.8824V11.1176ZM15.8235 11.1176H16.7647V12.0588H15.8235V11.1176ZM15.8235 12.0588H16.7647V13H15.8235V12.0588ZM14.8824 13.9412H15.8235V14.8824H14.8824V13.9412ZM14.8824 14.8824H15.8235V15.8235H14.8824V14.8824ZM14.8824 15.8235H15.8235V16.7647H14.8824V15.8235ZM14.8824 16.7647H15.8235V17.7059H14.8824V16.7647ZM14.8824 17.7059H15.8235V18.6471H14.8824V17.7059ZM14.8824 18.6471H15.8235V19.5882H14.8824V18.6471ZM14.8824 13H15.8235V13.9412H14.8824V13ZM15.8235 18.6471H16.7647V19.5882H15.8235V18.6471ZM15.8235 19.5882H16.7647V20.5294H15.8235V19.5882ZM15.8235 17.7059H16.7647V18.6471H15.8235V17.7059ZM14.8824 19.5882H15.8235V20.5294H14.8824V19.5882ZM14.8824 20.5294H15.8235V21.4706H14.8824V20.5294ZM14.8824 21.4706H15.8235V22.4118H14.8824V21.4706ZM14.8824 22.4118H15.8235V23.3529H14.8824V22.4118ZM14.8824 23.3529H15.8235V24.2941H14.8824V23.3529ZM14.8824 24.2941H15.8235V25.2353H14.8824V24.2941ZM14.8824 25.2353H15.8235V26.1765H14.8824V25.2353ZM14.8824 26.1765H15.8235V27.1176H14.8824V26.1765ZM14.8824 27.1176H15.8235V28.0588H14.8824V27.1176ZM14.8824 28.0588H15.8235V29H14.8824V28.0588ZM15.8235 28.0588H16.7647V29H15.8235V28.0588ZM16.7647 28.0588H17.7059V29H16.7647V28.0588ZM16.7647 20.5294H17.7059V21.4706H16.7647V20.5294ZM15.8235 20.5294H16.7647V21.4706H15.8235V20.5294ZM15.8235 21.4706H16.7647V22.4118H15.8235V21.4706ZM15.8235 22.4118H16.7647V23.3529H15.8235V22.4118ZM15.8235 23.3529H16.7647V24.2941H15.8235V23.3529ZM15.8235 24.2941H16.7647V25.2353H15.8235V24.2941ZM15.8235 25.2353H16.7647V26.1765H15.8235V25.2353ZM15.8235 26.1765H16.7647V27.1176H15.8235V26.1765ZM15.8235 27.1176H16.7647V28.0588H15.8235V27.1176ZM16.7647 27.1176H17.7059V28.0588H16.7647V27.1176ZM16.7647 26.1765H17.7059V27.1176H16.7647V26.1765ZM16.7647 25.2353H17.7059V26.1765H16.7647V25.2353ZM16.7647 24.2941H17.7059V25.2353H16.7647V24.2941ZM16.7647 23.3529H17.7059V24.2941H16.7647V23.3529ZM16.7647 22.4118H17.7059V23.3529H16.7647V22.4118ZM16.7647 21.4706H17.7059V22.4118H16.7647V21.4706ZM18.6471 12.0588H19.5882V13H18.6471V12.0588ZM18.6471 13H19.5882V13.9412H18.6471V13ZM18.6471 13.9412H19.5882V14.8824H18.6471V13.9412ZM18.6471 14.8824H19.5882V15.8235H18.6471V14.8824ZM18.6471 15.8235H19.5882V16.7647H18.6471V15.8235ZM18.6471 16.7647H19.5882V17.7059H18.6471V16.7647ZM19.5882 13H20.5294V13.9412H19.5882V13ZM19.5882 13.9412H20.5294V14.8824H19.5882V13.9412ZM19.5882 14.8824H20.5294V15.8235H19.5882V14.8824ZM19.5882 15.8235H20.5294V16.7647H19.5882V15.8235ZM19.5882 16.7647H20.5294V17.7059H19.5882V16.7647ZM19.5882 17.7059H20.5294V18.6471H19.5882V17.7059ZM20.5294 13.9412H21.4706V14.8824H20.5294V13.9412ZM20.5294 14.8824H21.4706V15.8235H20.5294V14.8824ZM20.5294 15.8235H21.4706V16.7647H20.5294V15.8235ZM20.5294 16.7647H21.4706V17.7059H20.5294V16.7647ZM20.5294 17.7059H21.4706V18.6471H20.5294V17.7059ZM20.5294 18.6471H21.4706V19.5882H20.5294V18.6471ZM21.4706 14.8824H22.4118V15.8235H21.4706V14.8824ZM21.4706 15.8235H22.4118V16.7647H21.4706V15.8235ZM21.4706 16.7647H22.4118V17.7059H21.4706V16.7647ZM21.4706 17.7059H22.4118V18.6471H21.4706V17.7059ZM21.4706 18.6471H22.4118V19.5882H21.4706V18.6471ZM21.4706 19.5882H22.4118V20.5294H21.4706V19.5882ZM22.4118 15.8235H23.3529V16.7647H22.4118V15.8235ZM22.4118 16.7647H23.3529V17.7059H22.4118V16.7647ZM22.4118 17.7059H23.3529V18.6471H22.4118V17.7059ZM22.4118 18.6471H23.3529V19.5882H22.4118V18.6471ZM22.4118 19.5882H23.3529V20.5294H22.4118V19.5882ZM22.4118 20.5294H23.3529V21.4706H22.4118V20.5294ZM23.3529 19.5882H24.2941V20.5294H23.3529V19.5882ZM23.3529 18.6471H24.2941V19.5882H23.3529V18.6471ZM23.3529 17.7059H24.2941V18.6471H23.3529V17.7059ZM23.3529 16.7647H24.2941V17.7059H23.3529V16.7647ZM23.3529 15.8235H24.2941V16.7647H23.3529V15.8235ZM23.3529 14.8824H24.2941V15.8235H23.3529V14.8824ZM24.2941 13.9412H25.2353V14.8824H24.2941V13.9412ZM24.2941 14.8824H25.2353V15.8235H24.2941V14.8824ZM24.2941 15.8235H25.2353V16.7647H24.2941V15.8235ZM24.2941 16.7647H25.2353V17.7059H24.2941V16.7647ZM24.2941 17.7059H25.2353V18.6471H24.2941V17.7059ZM24.2941 18.6471H25.2353V19.5882H24.2941V18.6471ZM25.2353 13H26.1765V13.9412H25.2353V13ZM25.2353 13.9412H26.1765V14.8824H25.2353V13.9412ZM25.2353 14.8824H26.1765V15.8235H25.2353V14.8824ZM25.2353 15.8235H26.1765V16.7647H25.2353V15.8235ZM25.2353 16.7647H26.1765V17.7059H25.2353V16.7647ZM25.2353 17.7059H26.1765V18.6471H25.2353V17.7059ZM26.1765 12.0588H27.1176V13H26.1765V12.0588ZM26.1765 13H27.1176V13.9412H26.1765V13ZM26.1765 13.9412H27.1176V14.8824H26.1765V13.9412ZM26.1765 14.8824H27.1176V15.8235H26.1765V14.8824ZM26.1765 15.8235H27.1176V16.7647H26.1765V15.8235ZM26.1765 16.7647H27.1176V17.7059H26.1765V16.7647ZM28.0588 10.1765H29V11.1176H28.0588V10.1765ZM29 10.1765H29.9412V11.1176H29V10.1765ZM29.9412 10.1765H30.8824V11.1176H29.9412V10.1765ZM29.9412 11.1176H30.8824V12.0588H29.9412V11.1176ZM29.9412 12.0588H30.8824V13H29.9412V12.0588ZM29.9412 13H30.8824V13.9412H29.9412V13ZM29.9412 13.9412H30.8824V14.8824H29.9412V13.9412ZM29 13.9412H29.9412V14.8824H29V13.9412ZM29 13H29.9412V13.9412H29V13ZM28.0588 12.0588H29V13H28.0588V12.0588ZM28.0588 11.1176H29V12.0588H28.0588V11.1176ZM27.1176 12.0588H28.0588V13H27.1176V12.0588ZM27.1176 13H28.0588V13.9412H27.1176V13ZM27.1176 13.9412H28.0588V14.8824H27.1176V13.9412ZM27.1176 11.1176H28.0588V12.0588H27.1176V11.1176ZM29 11.1176H29.9412V12.0588H29V11.1176ZM29 12.0588H29.9412V13H29V12.0588ZM28.0588 13H29V13.9412H28.0588V13ZM28.0588 13.9412H29V14.8824H28.0588V13.9412ZM28.0588 14.8824H29V15.8235H28.0588V14.8824ZM28.0588 15.8235H29V16.7647H28.0588V15.8235ZM27.1176 15.8235H28.0588V16.7647H27.1176V15.8235ZM27.1176 14.8824H28.0588V15.8235H27.1176V14.8824ZM28.0588 16.7647H29V17.7059H28.0588V16.7647ZM28.0588 17.7059H29V18.6471H28.0588V17.7059ZM28.0588 18.6471H29V19.5882H28.0588V18.6471ZM28.0588 19.5882H29V20.5294H28.0588V19.5882ZM28.0588 20.5294H29V21.4706H28.0588V20.5294ZM28.0588 21.4706H29V22.4118H28.0588V21.4706ZM29 15.8235H29.9412V16.7647H29V15.8235ZM29 14.8824H29.9412V15.8235H29V14.8824ZM29.9412 14.8824H30.8824V15.8235H29.9412V14.8824ZM29.9412 15.8235H30.8824V16.7647H29.9412V15.8235ZM29.9412 16.7647H30.8824V17.7059H29.9412V16.7647ZM29.9412 17.7059H30.8824V18.6471H29.9412V17.7059ZM29.9412 18.6471H30.8824V19.5882H29.9412V18.6471ZM29.9412 19.5882H30.8824V20.5294H29.9412V19.5882ZM29.9412 20.5294H30.8824V21.4706H29.9412V20.5294ZM29.9412 21.4706H30.8824V22.4118H29.9412V21.4706ZM29 21.4706H29.9412V22.4118H29V21.4706ZM29 20.5294H29.9412V21.4706H29V20.5294ZM29 19.5882H29.9412V20.5294H29V19.5882ZM29 18.6471H29.9412V19.5882H29V18.6471ZM29 17.7059H29.9412V18.6471H29V17.7059ZM29 16.7647H29.9412V17.7059H29V16.7647ZM28.0588 26.1765H29V27.1176H28.0588V26.1765ZM28.0588 27.1176H29V28.0588H28.0588V27.1176ZM28.0588 28.0588H29V29H28.0588V28.0588ZM29 28.0588H29.9412V29H29V28.0588ZM29.9412 28.0588H30.8824V29H29.9412V28.0588ZM29.9412 27.1176H30.8824V28.0588H29.9412V27.1176ZM29.9412 26.1765H30.8824V27.1176H29.9412V26.1765ZM29.9412 25.2353H30.8824V26.1765H29.9412V25.2353ZM29.9412 24.2941H30.8824V25.2353H29.9412V24.2941ZM29.9412 23.3529H30.8824V24.2941H29.9412V23.3529ZM29.9412 22.4118H30.8824V23.3529H29.9412V22.4118ZM29 22.4118H29.9412V23.3529H29V22.4118ZM29 23.3529H29.9412V24.2941H29V23.3529ZM29 24.2941H29.9412V25.2353H29V24.2941ZM29 25.2353H29.9412V26.1765H29V25.2353ZM29 26.1765H29.9412V27.1176H29V26.1765ZM29 27.1176H29.9412V28.0588H29V27.1176ZM28.0588 22.4118H29V23.3529H28.0588V22.4118ZM28.0588 23.3529H29V24.2941H28.0588V23.3529ZM28.0588 24.2941H29V25.2353H28.0588V24.2941ZM28.0588 25.2353H29V26.1765H28.0588V25.2353ZM13.9412 10.1765H14.8824V11.1176H13.9412V10.1765ZM13.9412 11.1176H14.8824V12.0588H13.9412V11.1176ZM13.9412 12.0588H14.8824V13H13.9412V12.0588ZM13.9412 13H14.8824V13.9412H13.9412V13ZM13.9412 13.9412H14.8824V14.8824H13.9412V13.9412ZM13.9412 14.8824H14.8824V15.8235H13.9412V14.8824ZM13.9412 15.8235H14.8824V16.7647H13.9412V15.8235ZM13.9412 16.7647H14.8824V17.7059H13.9412V16.7647ZM13.9412 17.7059H14.8824V18.6471H13.9412V17.7059ZM13.9412 18.6471H14.8824V19.5882H13.9412V18.6471ZM13.9412 19.5882H14.8824V20.5294H13.9412V19.5882ZM13.9412 20.5294H14.8824V21.4706H13.9412V20.5294ZM13.9412 21.4706H14.8824V22.4118H13.9412V21.4706ZM13.9412 22.4118H14.8824V23.3529H13.9412V22.4118ZM13.9412 23.3529H14.8824V24.2941H13.9412V23.3529ZM13.9412 24.2941H14.8824V25.2353H13.9412V24.2941ZM13.9412 25.2353H14.8824V26.1765H13.9412V25.2353ZM13.9412 26.1765H14.8824V27.1176H13.9412V26.1765ZM13.9412 27.1176H14.8824V28.0588H13.9412V27.1176ZM13.9412 28.0588H14.8824V29H13.9412V28.0588ZM30.8824 28.0588H31.8235V29H30.8824V28.0588ZM30.8824 27.1176H31.8235V28.0588H30.8824V27.1176ZM30.8824 26.1765H31.8235V27.1176H30.8824V26.1765ZM30.8824 25.2353H31.8235V26.1765H30.8824V25.2353ZM30.8824 24.2941H31.8235V25.2353H30.8824V24.2941ZM30.8824 23.3529H31.8235V24.2941H30.8824V23.3529ZM30.8824 22.4118H31.8235V23.3529H30.8824V22.4118ZM30.8824 21.4706H31.8235V22.4118H30.8824V21.4706ZM30.8824 20.5294H31.8235V21.4706H30.8824V20.5294ZM30.8824 19.5882H31.8235V20.5294H30.8824V19.5882ZM30.8824 18.6471H31.8235V19.5882H30.8824V18.6471ZM30.8824 17.7059H31.8235V18.6471H30.8824V17.7059ZM30.8824 16.7647H31.8235V17.7059H30.8824V16.7647ZM30.8824 15.8235H31.8235V16.7647H30.8824V15.8235ZM30.8824 14.8824H31.8235V15.8235H30.8824V14.8824ZM30.8824 13.9412H31.8235V14.8824H30.8824V13.9412ZM30.8824 13H31.8235V13.9412H30.8824V13ZM30.8824 12.0588H31.8235V13H30.8824V12.0588ZM30.8824 11.1176H31.8235V12.0588H30.8824V11.1176ZM30.8824 10.1765H31.8235V11.1176H30.8824V10.1765ZM35.6011 15.8235H36.5423V16.7647H35.6011V15.8235ZM35.6011 16.7647H36.5423V17.7059H35.6011V16.7647ZM35.6011 17.7059H36.5423V18.6471H35.6011V17.7059ZM35.6011 18.6471H36.5423V19.5882H35.6011V18.6471ZM35.6011 19.5882H36.5423V20.5294H35.6011V19.5882ZM34.6599 19.5882H35.6011V20.5294H34.6599V19.5882ZM34.6599 18.6471H35.6011V19.5882H34.6599V18.6471ZM34.6599 17.7059H35.6011V18.6471H34.6599V17.7059ZM34.6599 16.7647H35.6011V17.7059H34.6599V16.7647ZM34.6599 15.8235H35.6011V16.7647H34.6599V15.8235ZM34.6599 25.2353H35.6011V26.1765H34.6599V25.2353ZM34.6599 24.2941H35.6011V25.2353H34.6599V24.2941ZM34.6599 23.3529H35.6011V24.2941H34.6599V23.3529ZM34.6599 22.4118H35.6011V23.3529H34.6599V22.4118ZM35.6011 21.4706H36.5423V22.4118H35.6011V21.4706ZM35.6011 20.5294H36.5423V21.4706H35.6011V20.5294ZM34.6599 20.5294H35.6011V21.4706H34.6599V20.5294ZM34.6599 21.4706H35.6011V22.4118H34.6599V21.4706ZM34.6599 26.1765H35.6011V27.1176H34.6599V26.1765ZM34.6599 27.1176H35.6011V28.0588H34.6599V27.1176ZM34.6599 28.0588H35.6011V29H34.6599V28.0588ZM37.4835 15.8235H38.4246V16.7647H37.4835V15.8235ZM37.4835 16.7647H38.4246V17.7059H37.4835V16.7647ZM37.4835 17.7059H38.4246V18.6471H37.4835V17.7059ZM37.4835 18.6471H38.4246V19.5882H37.4835V18.6471ZM37.4835 19.5882H38.4246V20.5294H37.4835V19.5882ZM37.4835 20.5294H38.4246V21.4706H37.4835V20.5294ZM37.4835 21.4706H38.4246V22.4118H37.4835V21.4706ZM37.4835 22.4118H38.4246V23.3529H37.4835V22.4118ZM37.4835 23.3529H38.4246V24.2941H37.4835V23.3529ZM37.4835 24.2941H38.4246V25.2353H37.4835V24.2941ZM37.4835 25.2353H38.4246V26.1765H37.4835V25.2353ZM37.4835 26.1765H38.4246V27.1176H37.4835V26.1765ZM37.4835 27.1176H38.4246V28.0588H37.4835V27.1176ZM37.4835 28.0588H38.4246V29H37.4835V28.0588ZM36.5423 28.0588H37.4835V29H36.5423V28.0588ZM35.6011 28.0588H36.5423V29H35.6011V28.0588ZM35.6011 27.1176H36.5423V28.0588H35.6011V27.1176ZM36.5423 27.1176H37.4835V28.0588H36.5423V27.1176ZM36.5423 26.1765H37.4835V27.1176H36.5423V26.1765ZM35.6011 25.2353H36.5423V26.1765H35.6011V25.2353ZM35.6011 24.2941H36.5423V25.2353H35.6011V24.2941ZM35.6011 23.3529H36.5423V24.2941H35.6011V23.3529ZM36.5423 23.3529H37.4835V24.2941H36.5423V23.3529ZM36.5423 24.2941H37.4835V25.2353H36.5423V24.2941ZM36.5423 25.2353H37.4835V26.1765H36.5423V25.2353ZM35.6011 26.1765H36.5423V27.1176H35.6011V26.1765ZM36.5423 22.4118H37.4835V23.3529H36.5423V22.4118ZM36.5423 21.4706H37.4835V22.4118H36.5423V21.4706ZM36.5423 20.5294H37.4835V21.4706H36.5423V20.5294ZM35.6011 22.4118H36.5423V23.3529H35.6011V22.4118ZM36.5423 19.5882H37.4835V20.5294H36.5423V19.5882ZM36.5423 18.6471H37.4835V19.5882H36.5423V18.6471ZM36.5423 17.7059H37.4835V18.6471H36.5423V17.7059ZM36.5423 16.7647H37.4835V17.7059H36.5423V16.7647ZM36.5423 15.8235H37.4835V16.7647H36.5423V15.8235ZM37.4835 10.1765H38.4246V11.1176H37.4835V10.1765ZM36.5423 11.1176H37.4835V12.0588H36.5423V11.1176ZM36.5423 9.23529H37.4835V10.1765H36.5423V9.23529ZM35.6011 10.1765H36.5423V11.1176H35.6011V10.1765ZM36.5423 10.1765H37.4835V11.1176H36.5423V10.1765ZM35.6011 9.23529H36.5423V10.1765H35.6011V9.23529ZM35.6011 11.1176H36.5423V12.0588H35.6011V11.1176ZM37.4835 11.1176H38.4246V12.0588H37.4835V11.1176ZM34.6599 10.1765H35.6011V11.1176H34.6599V10.1765ZM34.6599 11.1176H35.6011V12.0588H34.6599V11.1176ZM35.6011 12.0588H36.5423V13H35.6011V12.0588ZM36.5423 12.0588H37.4835V13H36.5423V12.0588ZM34.6599 9.23529H35.6011V10.1765H34.6599V9.23529ZM37.4835 9.23529H38.4246V10.1765H37.4835V9.23529ZM37.4835 12.0588H38.4246V13H37.4835V12.0588ZM34.6599 12.0588H35.6011V13H34.6599V12.0588ZM41.2537 10.1765H42.1949V11.1176H41.2537V10.1765ZM41.2537 11.1176H42.1949V12.0588H41.2537V11.1176ZM41.2537 12.0588H42.1949V13H41.2537V12.0588ZM41.2537 13H42.1949V13.9412H41.2537V13ZM42.1949 13.9412H43.136V14.8824H42.1949V13.9412ZM42.1949 14.8824H43.136V15.8235H42.1949V14.8824ZM42.1949 15.8235H43.136V16.7647H42.1949V15.8235ZM42.1949 16.7647H43.136V17.7059H42.1949V16.7647ZM42.1949 17.7059H43.136V18.6471H42.1949V17.7059ZM42.1949 18.6471H43.136V19.5882H42.1949V18.6471ZM42.1949 19.5882H43.136V20.5294H42.1949V19.5882ZM41.2537 19.5882H42.1949V20.5294H41.2537V19.5882ZM41.2537 18.6471H42.1949V19.5882H41.2537V18.6471ZM41.2537 17.7059H42.1949V18.6471H41.2537V17.7059ZM41.2537 16.7647H42.1949V17.7059H41.2537V16.7647ZM41.2537 15.8235H42.1949V16.7647H41.2537V15.8235ZM41.2537 14.8824H42.1949V15.8235H41.2537V14.8824ZM41.2537 13.9412H42.1949V14.8824H41.2537V13.9412ZM41.2537 25.2353H42.1949V26.1765H41.2537V25.2353ZM41.2537 24.2941H42.1949V25.2353H41.2537V24.2941ZM41.2537 23.3529H42.1949V24.2941H41.2537V23.3529ZM41.2537 22.4118H42.1949V23.3529H41.2537V22.4118ZM42.1949 21.4706H43.136V22.4118H42.1949V21.4706ZM42.1949 20.5294H43.136V21.4706H42.1949V20.5294ZM41.2537 20.5294H42.1949V21.4706H41.2537V20.5294ZM41.2537 21.4706H42.1949V22.4118H41.2537V21.4706ZM41.2537 26.1765H42.1949V27.1176H41.2537V26.1765ZM41.2537 27.1176H42.1949V28.0588H41.2537V27.1176ZM41.2537 28.0588H42.1949V29H41.2537V28.0588ZM42.1949 10.1765H43.136V11.1176H42.1949V10.1765ZM43.136 10.1765H44.0772V11.1176H43.136V10.1765ZM44.0772 10.1765H45.0184V11.1176H44.0772V10.1765ZM44.0772 11.1176H45.0184V12.0588H44.0772V11.1176ZM44.0772 12.0588H45.0184V13H44.0772V12.0588ZM44.0772 13H45.0184V13.9412H44.0772V13ZM44.0772 13.9412H45.0184V14.8824H44.0772V13.9412ZM44.0772 15.8235H45.0184V16.7647H44.0772V15.8235ZM44.0772 16.7647H45.0184V17.7059H44.0772V16.7647ZM44.0772 17.7059H45.0184V18.6471H44.0772V17.7059ZM44.0772 18.6471H45.0184V19.5882H44.0772V18.6471ZM44.0772 19.5882H45.0184V20.5294H44.0772V19.5882ZM44.0772 20.5294H45.0184V21.4706H44.0772V20.5294ZM44.0772 21.4706H45.0184V22.4118H44.0772V21.4706ZM44.0772 22.4118H45.0184V23.3529H44.0772V22.4118ZM44.0772 23.3529H45.0184V24.2941H44.0772V23.3529ZM44.0772 14.8824H45.0184V15.8235H44.0772V14.8824ZM44.0772 24.2941H45.0184V25.2353H44.0772V24.2941ZM44.0772 25.2353H45.0184V26.1765H44.0772V25.2353ZM44.0772 26.1765H45.0184V27.1176H44.0772V26.1765ZM44.0772 27.1176H45.0184V28.0588H44.0772V27.1176ZM44.0772 28.0588H45.0184V29H44.0772V28.0588ZM43.136 28.0588H44.0772V29H43.136V28.0588ZM42.1949 28.0588H43.136V29H42.1949V28.0588ZM42.1949 27.1176H43.136V28.0588H42.1949V27.1176ZM43.136 27.1176H44.0772V28.0588H43.136V27.1176ZM43.136 26.1765H44.0772V27.1176H43.136V26.1765ZM42.1949 25.2353H43.136V26.1765H42.1949V25.2353ZM42.1949 24.2941H43.136V25.2353H42.1949V24.2941ZM42.1949 23.3529H43.136V24.2941H42.1949V23.3529ZM43.136 23.3529H44.0772V24.2941H43.136V23.3529ZM43.136 24.2941H44.0772V25.2353H43.136V24.2941ZM43.136 25.2353H44.0772V26.1765H43.136V25.2353ZM42.1949 26.1765H43.136V27.1176H42.1949V26.1765ZM43.136 22.4118H44.0772V23.3529H43.136V22.4118ZM43.136 21.4706H44.0772V22.4118H43.136V21.4706ZM43.136 20.5294H44.0772V21.4706H43.136V20.5294ZM42.1949 22.4118H43.136V23.3529H42.1949V22.4118ZM43.136 19.5882H44.0772V20.5294H43.136V19.5882ZM43.136 18.6471H44.0772V19.5882H43.136V18.6471ZM43.136 17.7059H44.0772V18.6471H43.136V17.7059ZM43.136 16.7647H44.0772V17.7059H43.136V16.7647ZM43.136 15.8235H44.0772V16.7647H43.136V15.8235ZM43.136 14.8824H44.0772V15.8235H43.136V14.8824ZM43.136 13.9412H44.0772V14.8824H43.136V13.9412ZM43.136 13H44.0772V13.9412H43.136V13ZM43.136 12.0588H44.0772V13H43.136V12.0588ZM43.136 11.1176H44.0772V12.0588H43.136V11.1176ZM42.1949 11.1176H43.136V12.0588H42.1949V11.1176ZM42.1949 12.0588H43.136V13H42.1949V12.0588ZM42.1949 13H43.136V13.9412H42.1949V13ZM51.6121 14.8824H52.5533V15.8235H51.6121V14.8824ZM52.5533 14.8824H53.4945V15.8235H52.5533V14.8824ZM50.671 14.8824H51.6121V15.8235H50.671V14.8824ZM53.4945 14.8824H54.4357V15.8235H53.4945V14.8824ZM54.4357 14.8824H55.3768V15.8235H54.4357V14.8824ZM55.3768 14.8824H56.318V15.8235H55.3768V14.8824ZM56.318 14.8824H57.2592V15.8235H56.318V14.8824ZM57.2592 15.8235H58.2004V16.7647H57.2592V15.8235ZM56.318 15.8235H57.2592V16.7647H56.318V15.8235ZM56.318 16.7647H57.2592V17.7059H56.318V16.7647ZM58.2004 15.8235H59.1415V16.7647H58.2004V15.8235ZM58.2004 16.7647H59.1415V17.7059H58.2004V16.7647ZM57.2592 16.7647H58.2004V17.7059H57.2592V16.7647ZM56.318 17.7059H57.2592V18.6471H56.318V17.7059ZM55.3768 17.7059H56.318V18.6471H55.3768V17.7059ZM57.2592 17.7059H58.2004V18.6471H57.2592V17.7059ZM58.2004 17.7059H59.1415V18.6471H58.2004V17.7059ZM59.1415 17.7059H60.0827V18.6471H59.1415V17.7059ZM59.1415 18.6471H60.0827V19.5882H59.1415V18.6471ZM59.1415 24.2941H60.0827V25.2353H59.1415V24.2941ZM59.1415 25.2353H60.0827V26.1765H59.1415V25.2353ZM58.2004 25.2353H59.1415V26.1765H58.2004V25.2353ZM58.2004 26.1765H59.1415V27.1176H58.2004V26.1765ZM58.2004 27.1176H59.1415V28.0588H58.2004V27.1176ZM57.2592 27.1176H58.2004V28.0588H57.2592V27.1176ZM56.318 27.1176H57.2592V28.0588H56.318V27.1176ZM55.3768 26.1765H56.318V27.1176H55.3768V26.1765ZM55.3768 25.2353H56.318V26.1765H55.3768V25.2353ZM56.318 25.2353H57.2592V26.1765H56.318V25.2353ZM56.318 26.1765H57.2592V27.1176H56.318V26.1765ZM57.2592 26.1765H58.2004V27.1176H57.2592V26.1765ZM57.2592 25.2353H58.2004V26.1765H57.2592V25.2353ZM57.2592 24.2941H58.2004V25.2353H57.2592V24.2941ZM56.318 24.2941H57.2592V25.2353H56.318V24.2941ZM56.318 18.6471H57.2592V19.5882H56.318V18.6471ZM57.2592 18.6471H58.2004V19.5882H57.2592V18.6471ZM58.2004 24.2941H59.1415V25.2353H58.2004V24.2941ZM58.2004 18.6471H59.1415V19.5882H58.2004V18.6471ZM55.3768 27.1176H56.318V28.0588H55.3768V27.1176ZM55.3768 28.0588H56.318V29H55.3768V28.0588ZM56.318 28.0588H57.2592V29H56.318V28.0588ZM54.4357 28.0588H55.3768V29H54.4357V28.0588ZM53.4945 28.0588H54.4357V29H53.4945V28.0588ZM52.5533 28.0588H53.4945V29H52.5533V28.0588ZM51.6121 28.0588H52.5533V29H51.6121V28.0588ZM50.671 28.0588H51.6121V29H50.671V28.0588ZM50.671 27.1176H51.6121V28.0588H50.671V27.1176ZM49.7298 27.1176H50.671V28.0588H49.7298V27.1176ZM48.7886 27.1176H49.7298V28.0588H48.7886V27.1176ZM48.7886 26.1765H49.7298V27.1176H48.7886V26.1765ZM47.8474 25.2353H48.7886V26.1765H47.8474V25.2353ZM48.7886 25.2353H49.7298V26.1765H48.7886V25.2353ZM47.8474 24.2941H48.7886V25.2353H47.8474V24.2941ZM47.8474 23.3529H48.7886V24.2941H47.8474V23.3529ZM47.8474 22.4118H48.7886V23.3529H47.8474V22.4118ZM47.8474 21.4706H48.7886V22.4118H47.8474V21.4706ZM47.8474 20.5294H48.7886V21.4706H47.8474V20.5294ZM47.8474 19.5882H48.7886V20.5294H47.8474V19.5882ZM48.7886 19.5882H49.7298V20.5294H48.7886V19.5882ZM48.7886 18.6471H49.7298V19.5882H48.7886V18.6471ZM47.8474 18.6471H48.7886V19.5882H47.8474V18.6471ZM47.8474 17.7059H48.7886V18.6471H47.8474V17.7059ZM48.7886 17.7059H49.7298V18.6471H48.7886V17.7059ZM48.7886 16.7647H49.7298V17.7059H48.7886V16.7647ZM48.7886 15.8235H49.7298V16.7647H48.7886V15.8235ZM49.7298 15.8235H50.671V16.7647H49.7298V15.8235ZM50.671 15.8235H51.6121V16.7647H50.671V15.8235ZM51.6121 15.8235H52.5533V16.7647H51.6121V15.8235ZM51.6121 16.7647H52.5533V17.7059H51.6121V16.7647ZM51.6121 17.7059H52.5533V18.6471H51.6121V17.7059ZM50.671 17.7059H51.6121V18.6471H50.671V17.7059ZM49.7298 17.7059H50.671V18.6471H49.7298V17.7059ZM50.671 18.6471H51.6121V19.5882H50.671V18.6471ZM50.671 19.5882H51.6121V20.5294H50.671V19.5882ZM50.671 20.5294H51.6121V21.4706H50.671V20.5294ZM50.671 21.4706H51.6121V22.4118H50.671V21.4706ZM50.671 22.4118H51.6121V23.3529H50.671V22.4118ZM50.671 23.3529H51.6121V24.2941H50.671V23.3529ZM50.671 24.2941H51.6121V25.2353H50.671V24.2941ZM50.671 25.2353H51.6121V26.1765H50.671V25.2353ZM51.6121 25.2353H52.5533V26.1765H51.6121V25.2353ZM51.6121 26.1765H52.5533V27.1176H51.6121V26.1765ZM52.5533 26.1765H53.4945V27.1176H52.5533V26.1765ZM53.4945 26.1765H54.4357V27.1176H53.4945V26.1765ZM54.4357 26.1765H55.3768V27.1176H54.4357V26.1765ZM54.4357 27.1176H55.3768V28.0588H54.4357V27.1176ZM53.4945 27.1176H54.4357V28.0588H53.4945V27.1176ZM52.5533 27.1176H53.4945V28.0588H52.5533V27.1176ZM51.6121 27.1176H52.5533V28.0588H51.6121V27.1176ZM50.671 26.1765H51.6121V27.1176H50.671V26.1765ZM49.7298 26.1765H50.671V27.1176H49.7298V26.1765ZM49.7298 25.2353H50.671V26.1765H49.7298V25.2353ZM49.7298 24.2941H50.671V25.2353H49.7298V24.2941ZM49.7298 23.3529H50.671V24.2941H49.7298V23.3529ZM48.7886 23.3529H49.7298V24.2941H48.7886V23.3529ZM48.7886 24.2941H49.7298V25.2353H48.7886V24.2941ZM48.7886 22.4118H49.7298V23.3529H48.7886V22.4118ZM48.7886 21.4706H49.7298V22.4118H48.7886V21.4706ZM48.7886 20.5294H49.7298V21.4706H48.7886V20.5294ZM49.7298 20.5294H50.671V21.4706H49.7298V20.5294ZM49.7298 21.4706H50.671V22.4118H49.7298V21.4706ZM49.7298 22.4118H50.671V23.3529H49.7298V22.4118ZM49.7298 19.5882H50.671V20.5294H49.7298V19.5882ZM49.7298 18.6471H50.671V19.5882H49.7298V18.6471ZM49.7298 16.7647H50.671V17.7059H49.7298V16.7647ZM50.671 16.7647H51.6121V17.7059H50.671V16.7647ZM52.5533 15.8235H53.4945V16.7647H52.5533V15.8235ZM53.4945 15.8235H54.4357V16.7647H53.4945V15.8235ZM54.4357 15.8235H55.3768V16.7647H54.4357V15.8235ZM55.3768 15.8235H56.318V16.7647H55.3768V15.8235ZM55.3768 16.7647H56.318V17.7059H55.3768V16.7647ZM54.4357 16.7647H55.3768V17.7059H54.4357V16.7647ZM53.4945 16.7647H54.4357V17.7059H53.4945V16.7647ZM52.5533 16.7647H53.4945V17.7059H52.5533V16.7647ZM59.1415 19.5882H60.0827V20.5294H59.1415V19.5882ZM58.2004 19.5882H59.1415V20.5294H58.2004V19.5882ZM57.2592 19.5882H58.2004V20.5294H57.2592V19.5882ZM56.318 19.5882H57.2592V20.5294H56.318V19.5882ZM59.1415 20.5294H60.0827V21.4706H59.1415V20.5294ZM58.2004 20.5294H59.1415V21.4706H58.2004V20.5294ZM57.2592 20.5294H58.2004V21.4706H57.2592V20.5294ZM56.318 20.5294H57.2592V21.4706H56.318V20.5294ZM55.3768 20.5294H56.318V21.4706H55.3768V20.5294ZM54.4357 20.5294H55.3768V21.4706H54.4357V20.5294ZM53.4945 20.5294H54.4357V21.4706H53.4945V20.5294ZM52.5533 20.5294H53.4945V21.4706H52.5533V20.5294ZM51.6121 20.5294H52.5533V21.4706H51.6121V20.5294ZM51.6121 21.4706H52.5533V22.4118H51.6121V21.4706ZM52.5533 21.4706H53.4945V22.4118H52.5533V21.4706ZM53.4945 21.4706H54.4357V22.4118H53.4945V21.4706ZM54.4357 21.4706H55.3768V22.4118H54.4357V21.4706ZM55.3768 21.4706H56.318V22.4118H55.3768V21.4706ZM56.318 21.4706H57.2592V22.4118H56.318V21.4706ZM57.2592 21.4706H58.2004V22.4118H57.2592V21.4706ZM58.2004 21.4706H59.1415V22.4118H58.2004V21.4706ZM59.1415 21.4706H60.0827V22.4118H59.1415V21.4706ZM72.3254 17.7059H73.2665V18.6471H72.3254V17.7059ZM71.3842 17.7059H72.3254V18.6471H71.3842V17.7059ZM70.443 17.7059H71.3842V18.6471H70.443V17.7059ZM70.443 16.7647H71.3842V17.7059H70.443V16.7647ZM69.5018 16.7647H70.443V17.7059H69.5018V16.7647ZM71.3842 16.7647H72.3254V17.7059H71.3842V16.7647ZM72.3254 16.7647H73.2665V17.7059H72.3254V16.7647ZM71.3842 15.8235H72.3254V16.7647H71.3842V15.8235ZM70.443 15.8235H71.3842V16.7647H70.443V15.8235ZM69.5018 15.8235H70.443V16.7647H69.5018V15.8235ZM69.5018 14.8824H70.443V15.8235H69.5018V14.8824ZM70.443 14.8824H71.3842V15.8235H70.443V14.8824ZM68.5607 14.8824H69.5018V15.8235H68.5607V14.8824ZM67.6195 14.8824H68.5607V15.8235H67.6195V14.8824ZM66.6783 14.8824H67.6195V15.8235H66.6783V14.8824ZM65.7371 15.8235H66.6783V16.7647H65.7371V15.8235ZM64.796 15.8235H65.7371V16.7647H64.796V15.8235ZM64.796 14.8824H65.7371V15.8235H64.796V14.8824ZM65.7371 14.8824H66.6783V15.8235H65.7371V14.8824ZM66.6783 15.8235H67.6195V16.7647H66.6783V15.8235ZM66.6783 16.7647H67.6195V17.7059H66.6783V16.7647ZM67.6195 16.7647H68.5607V17.7059H67.6195V16.7647ZM68.5607 16.7647H69.5018V17.7059H68.5607V16.7647ZM68.5607 15.8235H69.5018V16.7647H68.5607V15.8235ZM67.6195 15.8235H68.5607V16.7647H67.6195V15.8235ZM65.7371 16.7647H66.6783V17.7059H65.7371V16.7647ZM64.796 16.7647H65.7371V17.7059H64.796V16.7647ZM63.8548 16.7647H64.796V17.7059H63.8548V16.7647ZM62.9136 16.7647H63.8548V17.7059H62.9136V16.7647ZM62.9136 15.8235H63.8548V16.7647H62.9136V15.8235ZM63.8548 15.8235H64.796V16.7647H63.8548V15.8235ZM64.796 17.7059H65.7371V18.6471H64.796V17.7059ZM65.7371 17.7059H66.6783V18.6471H65.7371V17.7059ZM63.8548 17.7059H64.796V18.6471H63.8548V17.7059ZM62.9136 17.7059H63.8548V18.6471H62.9136V17.7059ZM61.9724 17.7059H62.9136V18.6471H61.9724V17.7059ZM62.9136 18.6471H63.8548V19.5882H62.9136V18.6471ZM61.9724 18.6471H62.9136V19.5882H61.9724V18.6471ZM61.9724 19.5882H62.9136V20.5294H61.9724V19.5882ZM62.9136 19.5882H63.8548V20.5294H62.9136V19.5882ZM63.8548 18.6471H64.796V19.5882H63.8548V18.6471ZM64.796 18.6471H65.7371V19.5882H64.796V18.6471ZM64.796 19.5882H65.7371V20.5294H64.796V19.5882ZM65.7371 19.5882H66.6783V20.5294H65.7371V19.5882ZM63.8548 19.5882H64.796V20.5294H63.8548V19.5882ZM63.8548 20.5294H64.796V21.4706H63.8548V20.5294ZM62.9136 20.5294H63.8548V21.4706H62.9136V20.5294ZM63.8548 21.4706H64.796V22.4118H63.8548V21.4706ZM62.9136 21.4706H63.8548V22.4118H62.9136V21.4706ZM64.796 20.5294H65.7371V21.4706H64.796V20.5294ZM65.7371 20.5294H66.6783V21.4706H65.7371V20.5294ZM65.7371 21.4706H66.6783V22.4118H65.7371V21.4706ZM65.7371 22.4118H66.6783V23.3529H65.7371V22.4118ZM64.796 22.4118H65.7371V23.3529H64.796V22.4118ZM64.796 21.4706H65.7371V22.4118H64.796V21.4706ZM66.6783 21.4706H67.6195V22.4118H66.6783V21.4706ZM67.6195 21.4706H68.5607V22.4118H67.6195V21.4706ZM67.6195 20.5294H68.5607V21.4706H67.6195V20.5294ZM68.5607 20.5294H69.5018V21.4706H68.5607V20.5294ZM69.5018 20.5294H70.443V21.4706H69.5018V20.5294ZM70.443 20.5294H71.3842V21.4706H70.443V20.5294ZM66.6783 20.5294H67.6195V21.4706H66.6783V20.5294ZM66.6783 22.4118H67.6195V23.3529H66.6783V22.4118ZM67.6195 22.4118H68.5607V23.3529H67.6195V22.4118ZM68.5607 22.4118H69.5018V23.3529H68.5607V22.4118ZM69.5018 22.4118H70.443V23.3529H69.5018V22.4118ZM70.443 22.4118H71.3842V23.3529H70.443V22.4118ZM70.443 21.4706H71.3842V22.4118H70.443V21.4706ZM69.5018 21.4706H70.443V22.4118H69.5018V21.4706ZM68.5607 21.4706H69.5018V22.4118H68.5607V21.4706ZM72.3254 21.4706H73.2665V22.4118H72.3254V21.4706ZM71.3842 21.4706H72.3254V22.4118H71.3842V21.4706ZM71.3842 22.4118H72.3254V23.3529H71.3842V22.4118ZM72.3254 22.4118H73.2665V23.3529H72.3254V22.4118ZM70.443 23.3529H71.3842V24.2941H70.443V23.3529ZM69.5018 23.3529H70.443V24.2941H69.5018V23.3529ZM71.3842 23.3529H72.3254V24.2941H71.3842V23.3529ZM72.3254 23.3529H73.2665V24.2941H72.3254V23.3529ZM73.2665 23.3529H74.2077V24.2941H73.2665V23.3529ZM73.2665 24.2941H74.2077V25.2353H73.2665V24.2941ZM73.2665 25.2353H74.2077V26.1765H73.2665V25.2353ZM72.3254 25.2353H73.2665V26.1765H72.3254V25.2353ZM72.3254 24.2941H73.2665V25.2353H72.3254V24.2941ZM71.3842 24.2941H72.3254V25.2353H71.3842V24.2941ZM71.3842 25.2353H72.3254V26.1765H71.3842V25.2353ZM70.443 24.2941H71.3842V25.2353H70.443V24.2941ZM70.443 25.2353H71.3842V26.1765H70.443V25.2353ZM69.5018 25.2353H70.443V26.1765H69.5018V25.2353ZM69.5018 26.1765H70.443V27.1176H69.5018V26.1765ZM70.443 26.1765H71.3842V27.1176H70.443V26.1765ZM70.443 27.1176H71.3842V28.0588H70.443V27.1176ZM71.3842 27.1176H72.3254V28.0588H71.3842V27.1176ZM71.3842 26.1765H72.3254V27.1176H71.3842V26.1765ZM72.3254 26.1765H73.2665V27.1176H72.3254V26.1765ZM72.3254 27.1176H73.2665V28.0588H72.3254V27.1176ZM70.443 28.0588H71.3842V29H70.443V28.0588ZM69.5018 28.0588H70.443V29H69.5018V28.0588ZM69.5018 27.1176H70.443V28.0588H69.5018V27.1176ZM68.5607 27.1176H69.5018V28.0588H68.5607V27.1176ZM67.6195 27.1176H68.5607V28.0588H67.6195V27.1176ZM66.6783 27.1176H67.6195V28.0588H66.6783V27.1176ZM66.6783 26.1765H67.6195V27.1176H66.6783V26.1765ZM67.6195 26.1765H68.5607V27.1176H67.6195V26.1765ZM68.5607 26.1765H69.5018V27.1176H68.5607V26.1765ZM68.5607 28.0588H69.5018V29H68.5607V28.0588ZM67.6195 28.0588H68.5607V29H67.6195V28.0588ZM66.6783 28.0588H67.6195V29H66.6783V28.0588ZM65.7371 28.0588H66.6783V29H65.7371V28.0588ZM64.796 28.0588H65.7371V29H64.796V28.0588ZM64.796 27.1176H65.7371V28.0588H64.796V27.1176ZM65.7371 27.1176H66.6783V28.0588H65.7371V27.1176ZM65.7371 26.1765H66.6783V27.1176H65.7371V26.1765ZM64.796 26.1765H65.7371V27.1176H64.796V26.1765ZM63.8548 27.1176H64.796V28.0588H63.8548V27.1176ZM62.9136 27.1176H63.8548V28.0588H62.9136V27.1176ZM62.9136 26.1765H63.8548V27.1176H62.9136V26.1765ZM63.8548 26.1765H64.796V27.1176H63.8548V26.1765ZM64.796 25.2353H65.7371V26.1765H64.796V25.2353ZM65.7371 25.2353H66.6783V26.1765H65.7371V25.2353ZM64.796 24.2941H65.7371V25.2353H64.796V24.2941ZM63.8548 24.2941H64.796V25.2353H63.8548V24.2941ZM62.9136 24.2941H63.8548V25.2353H62.9136V24.2941ZM61.9724 24.2941H62.9136V25.2353H61.9724V24.2941ZM61.9724 25.2353H62.9136V26.1765H61.9724V25.2353ZM62.9136 25.2353H63.8548V26.1765H62.9136V25.2353ZM63.8548 25.2353H64.796V26.1765H63.8548V25.2353ZM73.2665 17.7059H74.2077V18.6471H73.2665V17.7059ZM72.3254 15.8235H73.2665V16.7647H72.3254V15.8235ZM73.2665 18.6471H74.2077V19.5882H73.2665V18.6471ZM72.3254 18.6471H73.2665V19.5882H72.3254V18.6471ZM71.3842 18.6471H72.3254V19.5882H71.3842V18.6471ZM70.443 18.6471H71.3842V19.5882H70.443V18.6471ZM69.5018 17.7059H70.443V18.6471H69.5018V17.7059ZM77.0349 15.8235H77.9761V16.7647H77.0349V15.8235ZM77.9761 15.8235H78.9173V16.7647H77.9761V15.8235ZM78.9173 15.8235H79.8585V16.7647H78.9173V15.8235ZM79.8585 15.8235H80.7996V16.7647H79.8585V15.8235ZM80.7996 15.8235H81.7408V16.7647H80.7996V15.8235ZM81.7408 15.8235H82.682V16.7647H81.7408V15.8235ZM82.682 15.8235H83.6232V16.7647H82.682V15.8235ZM83.6232 15.8235H84.5643V16.7647H83.6232V15.8235ZM84.5643 15.8235H85.5055V16.7647H84.5643V15.8235ZM84.5643 16.7647H85.5055V17.7059H84.5643V16.7647ZM84.5643 17.7059H85.5055V18.6471H84.5643V17.7059ZM83.6232 17.7059H84.5643V18.6471H83.6232V17.7059ZM82.682 17.7059H83.6232V18.6471H82.682V17.7059ZM81.7408 17.7059H82.682V18.6471H81.7408V17.7059ZM80.7996 17.7059H81.7408V18.6471H80.7996V17.7059ZM79.8585 17.7059H80.7996V18.6471H79.8585V17.7059ZM78.9173 17.7059H79.8585V18.6471H78.9173V17.7059ZM77.9761 17.7059H78.9173V18.6471H77.9761V17.7059ZM77.9761 16.7647H78.9173V17.7059H77.9761V16.7647ZM77.0349 16.7647H77.9761V17.7059H77.0349V16.7647ZM77.0349 17.7059H77.9761V18.6471H77.0349V17.7059ZM78.9173 16.7647H79.8585V17.7059H78.9173V16.7647ZM79.8585 16.7647H80.7996V17.7059H79.8585V16.7647ZM80.7996 16.7647H81.7408V17.7059H80.7996V16.7647ZM81.7408 16.7647H82.682V17.7059H81.7408V16.7647ZM82.682 16.7647H83.6232V17.7059H82.682V16.7647ZM83.6232 16.7647H84.5643V17.7059H83.6232V16.7647ZM78.9173 14.8824H79.8585V15.8235H78.9173V14.8824ZM79.8585 14.8824H80.7996V15.8235H79.8585V14.8824ZM80.7996 14.8824H81.7408V15.8235H80.7996V14.8824ZM81.7408 14.8824H82.682V15.8235H81.7408V14.8824ZM80.7996 13.9412H81.7408V14.8824H80.7996V13.9412ZM79.8585 13.9412H80.7996V14.8824H79.8585V13.9412ZM81.7408 13.9412H82.682V14.8824H81.7408V13.9412ZM81.7408 12.0588H82.682V13H81.7408V12.0588ZM81.7408 13H82.682V13.9412H81.7408V13ZM80.7996 13H81.7408V13.9412H80.7996V13ZM81.7408 11.1176H82.682V12.0588H81.7408V11.1176ZM80.7996 12.0588H81.7408V13H80.7996V12.0588ZM79.8585 13H80.7996V13.9412H79.8585V13ZM78.9173 13.9412H79.8585V14.8824H78.9173V13.9412ZM78.9173 18.6471H79.8585V19.5882H78.9173V18.6471ZM78.9173 19.5882H79.8585V20.5294H78.9173V19.5882ZM78.9173 20.5294H79.8585V21.4706H78.9173V20.5294ZM78.9173 21.4706H79.8585V22.4118H78.9173V21.4706ZM79.8585 21.4706H80.7996V22.4118H79.8585V21.4706ZM79.8585 22.4118H80.7996V23.3529H79.8585V22.4118ZM80.7996 21.4706H81.7408V22.4118H80.7996V21.4706ZM80.7996 20.5294H81.7408V21.4706H80.7996V20.5294ZM81.7408 20.5294H82.682V21.4706H81.7408V20.5294ZM81.7408 19.5882H82.682V20.5294H81.7408V19.5882ZM80.7996 18.6471H81.7408V19.5882H80.7996V18.6471ZM79.8585 18.6471H80.7996V19.5882H79.8585V18.6471ZM79.8585 19.5882H80.7996V20.5294H79.8585V19.5882ZM79.8585 20.5294H80.7996V21.4706H79.8585V20.5294ZM80.7996 19.5882H81.7408V20.5294H80.7996V19.5882ZM81.7408 18.6471H82.682V19.5882H81.7408V18.6471ZM81.7408 21.4706H82.682V22.4118H81.7408V21.4706ZM81.7408 22.4118H82.682V23.3529H81.7408V22.4118ZM80.7996 22.4118H81.7408V23.3529H80.7996V22.4118ZM80.7996 23.3529H81.7408V24.2941H80.7996V23.3529ZM79.8585 23.3529H80.7996V24.2941H79.8585V23.3529ZM78.9173 22.4118H79.8585V23.3529H78.9173V22.4118ZM78.9173 23.3529H79.8585V24.2941H78.9173V23.3529ZM81.7408 23.3529H82.682V24.2941H81.7408V23.3529ZM78.9173 24.2941H79.8585V25.2353H78.9173V24.2941ZM79.8585 24.2941H80.7996V25.2353H79.8585V24.2941ZM79.8585 25.2353H80.7996V26.1765H79.8585V25.2353ZM80.7996 25.2353H81.7408V26.1765H80.7996V25.2353ZM81.7408 25.2353H82.682V26.1765H81.7408V25.2353ZM81.7408 24.2941H82.682V25.2353H81.7408V24.2941ZM80.7996 24.2941H81.7408V25.2353H80.7996V24.2941ZM78.9173 25.2353H79.8585V26.1765H78.9173V25.2353ZM81.7408 26.1765H82.682V27.1176H81.7408V26.1765ZM82.682 26.1765H83.6232V27.1176H82.682V26.1765ZM82.682 25.2353H83.6232V26.1765H82.682V25.2353ZM80.7996 26.1765H81.7408V27.1176H80.7996V26.1765ZM79.8585 26.1765H80.7996V27.1176H79.8585V26.1765ZM79.8585 27.1176H80.7996V28.0588H79.8585V27.1176ZM80.7996 27.1176H81.7408V28.0588H80.7996V27.1176ZM81.7408 27.1176H82.682V28.0588H81.7408V27.1176ZM82.682 27.1176H83.6232V28.0588H82.682V27.1176ZM83.6232 27.1176H84.5643V28.0588H83.6232V27.1176ZM83.6232 26.1765H84.5643V27.1176H83.6232V26.1765ZM84.5643 26.1765H85.5055V27.1176H84.5643V26.1765ZM84.5643 27.1176H85.5055V28.0588H84.5643V27.1176ZM83.6232 28.0588H84.5643V29H83.6232V28.0588ZM82.682 28.0588H83.6232V29H82.682V28.0588ZM81.7408 28.0588H82.682V29H81.7408V28.0588ZM84.5643 28.0588H85.5055V29H84.5643V28.0588ZM92.0809 14.8824H93.0221V15.8235H92.0809V14.8824ZM93.0221 14.8824H93.9632V15.8235H93.0221V14.8824ZM91.1397 14.8824H92.0809V15.8235H91.1397V14.8824ZM93.9632 14.8824H94.9044V15.8235H93.9632V14.8824ZM94.9044 14.8824H95.8456V15.8235H94.9044V14.8824ZM95.8456 14.8824H96.7868V15.8235H95.8456V14.8824ZM96.7868 14.8824H97.7279V15.8235H96.7868V14.8824ZM97.7279 15.8235H98.6691V16.7647H97.7279V15.8235ZM96.7868 15.8235H97.7279V16.7647H96.7868V15.8235ZM96.7868 16.7647H97.7279V17.7059H96.7868V16.7647ZM98.6691 15.8235H99.6103V16.7647H98.6691V15.8235ZM98.6691 16.7647H99.6103V17.7059H98.6691V16.7647ZM97.7279 16.7647H98.6691V17.7059H97.7279V16.7647ZM96.7868 17.7059H97.7279V18.6471H96.7868V17.7059ZM95.8456 17.7059H96.7868V18.6471H95.8456V17.7059ZM97.7279 17.7059H98.6691V18.6471H97.7279V17.7059ZM98.6691 17.7059H99.6103V18.6471H98.6691V17.7059ZM99.6103 17.7059H100.551V18.6471H99.6103V17.7059ZM99.6103 18.6471H100.551V19.5882H99.6103V18.6471ZM99.6103 19.5882H100.551V20.5294H99.6103V19.5882ZM99.6103 20.5294H100.551V21.4706H99.6103V20.5294ZM99.6103 21.4706H100.551V22.4118H99.6103V21.4706ZM99.6103 22.4118H100.551V23.3529H99.6103V22.4118ZM99.6103 23.3529H100.551V24.2941H99.6103V23.3529ZM99.6103 24.2941H100.551V25.2353H99.6103V24.2941ZM99.6103 25.2353H100.551V26.1765H99.6103V25.2353ZM98.6691 25.2353H99.6103V26.1765H98.6691V25.2353ZM98.6691 26.1765H99.6103V27.1176H98.6691V26.1765ZM98.6691 27.1176H99.6103V28.0588H98.6691V27.1176ZM97.7279 27.1176H98.6691V28.0588H97.7279V27.1176ZM96.7868 27.1176H97.7279V28.0588H96.7868V27.1176ZM95.8456 26.1765H96.7868V27.1176H95.8456V26.1765ZM95.8456 25.2353H96.7868V26.1765H95.8456V25.2353ZM96.7868 25.2353H97.7279V26.1765H96.7868V25.2353ZM96.7868 26.1765H97.7279V27.1176H96.7868V26.1765ZM97.7279 26.1765H98.6691V27.1176H97.7279V26.1765ZM97.7279 25.2353H98.6691V26.1765H97.7279V25.2353ZM97.7279 24.2941H98.6691V25.2353H97.7279V24.2941ZM96.7868 24.2941H97.7279V25.2353H96.7868V24.2941ZM96.7868 23.3529H97.7279V24.2941H96.7868V23.3529ZM96.7868 22.4118H97.7279V23.3529H96.7868V22.4118ZM96.7868 21.4706H97.7279V22.4118H96.7868V21.4706ZM96.7868 20.5294H97.7279V21.4706H96.7868V20.5294ZM96.7868 19.5882H97.7279V20.5294H96.7868V19.5882ZM96.7868 18.6471H97.7279V19.5882H96.7868V18.6471ZM97.7279 18.6471H98.6691V19.5882H97.7279V18.6471ZM97.7279 19.5882H98.6691V20.5294H97.7279V19.5882ZM97.7279 20.5294H98.6691V21.4706H97.7279V20.5294ZM97.7279 21.4706H98.6691V22.4118H97.7279V21.4706ZM97.7279 22.4118H98.6691V23.3529H97.7279V22.4118ZM97.7279 23.3529H98.6691V24.2941H97.7279V23.3529ZM98.6691 24.2941H99.6103V25.2353H98.6691V24.2941ZM98.6691 23.3529H99.6103V24.2941H98.6691V23.3529ZM98.6691 22.4118H99.6103V23.3529H98.6691V22.4118ZM98.6691 21.4706H99.6103V22.4118H98.6691V21.4706ZM98.6691 20.5294H99.6103V21.4706H98.6691V20.5294ZM98.6691 19.5882H99.6103V20.5294H98.6691V19.5882ZM98.6691 18.6471H99.6103V19.5882H98.6691V18.6471ZM95.8456 27.1176H96.7868V28.0588H95.8456V27.1176ZM95.8456 28.0588H96.7868V29H95.8456V28.0588ZM96.7868 28.0588H97.7279V29H96.7868V28.0588ZM94.9044 28.0588H95.8456V29H94.9044V28.0588ZM93.9632 28.0588H94.9044V29H93.9632V28.0588ZM93.0221 28.0588H93.9632V29H93.0221V28.0588ZM92.0809 28.0588H93.0221V29H92.0809V28.0588ZM91.1397 28.0588H92.0809V29H91.1397V28.0588ZM91.1397 27.1176H92.0809V28.0588H91.1397V27.1176ZM90.1985 27.1176H91.1397V28.0588H90.1985V27.1176ZM89.2574 27.1176H90.1985V28.0588H89.2574V27.1176ZM89.2574 26.1765H90.1985V27.1176H89.2574V26.1765ZM88.3162 25.2353H89.2574V26.1765H88.3162V25.2353ZM89.2574 25.2353H90.1985V26.1765H89.2574V25.2353ZM88.3162 24.2941H89.2574V25.2353H88.3162V24.2941ZM88.3162 23.3529H89.2574V24.2941H88.3162V23.3529ZM88.3162 22.4118H89.2574V23.3529H88.3162V22.4118ZM88.3162 21.4706H89.2574V22.4118H88.3162V21.4706ZM88.3162 20.5294H89.2574V21.4706H88.3162V20.5294ZM88.3162 19.5882H89.2574V20.5294H88.3162V19.5882ZM89.2574 19.5882H90.1985V20.5294H89.2574V19.5882ZM89.2574 18.6471H90.1985V19.5882H89.2574V18.6471ZM88.3162 18.6471H89.2574V19.5882H88.3162V18.6471ZM88.3162 17.7059H89.2574V18.6471H88.3162V17.7059ZM89.2574 17.7059H90.1985V18.6471H89.2574V17.7059ZM89.2574 16.7647H90.1985V17.7059H89.2574V16.7647ZM89.2574 15.8235H90.1985V16.7647H89.2574V15.8235ZM90.1985 15.8235H91.1397V16.7647H90.1985V15.8235ZM91.1397 15.8235H92.0809V16.7647H91.1397V15.8235ZM92.0809 15.8235H93.0221V16.7647H92.0809V15.8235ZM92.0809 16.7647H93.0221V17.7059H92.0809V16.7647ZM92.0809 17.7059H93.0221V18.6471H92.0809V17.7059ZM91.1397 17.7059H92.0809V18.6471H91.1397V17.7059ZM90.1985 17.7059H91.1397V18.6471H90.1985V17.7059ZM91.1397 18.6471H92.0809V19.5882H91.1397V18.6471ZM91.1397 19.5882H92.0809V20.5294H91.1397V19.5882ZM91.1397 20.5294H92.0809V21.4706H91.1397V20.5294ZM91.1397 21.4706H92.0809V22.4118H91.1397V21.4706ZM91.1397 22.4118H92.0809V23.3529H91.1397V22.4118ZM91.1397 23.3529H92.0809V24.2941H91.1397V23.3529ZM91.1397 24.2941H92.0809V25.2353H91.1397V24.2941ZM91.1397 25.2353H92.0809V26.1765H91.1397V25.2353ZM92.0809 25.2353H93.0221V26.1765H92.0809V25.2353ZM92.0809 26.1765H93.0221V27.1176H92.0809V26.1765ZM93.0221 26.1765H93.9632V27.1176H93.0221V26.1765ZM93.9632 26.1765H94.9044V27.1176H93.9632V26.1765ZM94.9044 26.1765H95.8456V27.1176H94.9044V26.1765ZM94.9044 27.1176H95.8456V28.0588H94.9044V27.1176ZM93.9632 27.1176H94.9044V28.0588H93.9632V27.1176ZM93.0221 27.1176H93.9632V28.0588H93.0221V27.1176ZM92.0809 27.1176H93.0221V28.0588H92.0809V27.1176ZM91.1397 26.1765H92.0809V27.1176H91.1397V26.1765ZM90.1985 26.1765H91.1397V27.1176H90.1985V26.1765ZM90.1985 25.2353H91.1397V26.1765H90.1985V25.2353ZM90.1985 24.2941H91.1397V25.2353H90.1985V24.2941ZM90.1985 23.3529H91.1397V24.2941H90.1985V23.3529ZM89.2574 23.3529H90.1985V24.2941H89.2574V23.3529ZM89.2574 24.2941H90.1985V25.2353H89.2574V24.2941ZM89.2574 22.4118H90.1985V23.3529H89.2574V22.4118ZM89.2574 21.4706H90.1985V22.4118H89.2574V21.4706ZM89.2574 20.5294H90.1985V21.4706H89.2574V20.5294ZM90.1985 20.5294H91.1397V21.4706H90.1985V20.5294ZM90.1985 21.4706H91.1397V22.4118H90.1985V21.4706ZM90.1985 22.4118H91.1397V23.3529H90.1985V22.4118ZM90.1985 19.5882H91.1397V20.5294H90.1985V19.5882ZM90.1985 18.6471H91.1397V19.5882H90.1985V18.6471ZM90.1985 16.7647H91.1397V17.7059H90.1985V16.7647ZM91.1397 16.7647H92.0809V17.7059H91.1397V16.7647ZM93.0221 15.8235H93.9632V16.7647H93.0221V15.8235ZM93.9632 15.8235H94.9044V16.7647H93.9632V15.8235ZM94.9044 15.8235H95.8456V16.7647H94.9044V15.8235ZM95.8456 15.8235H96.7868V16.7647H95.8456V15.8235ZM95.8456 16.7647H96.7868V17.7059H95.8456V16.7647ZM94.9044 16.7647H95.8456V17.7059H94.9044V16.7647ZM93.9632 16.7647H94.9044V17.7059H93.9632V16.7647ZM93.0221 16.7647H93.9632V17.7059H93.0221V16.7647ZM103.379 14.8824H104.32V15.8235H103.379V14.8824ZM104.32 14.8824H105.261V15.8235H104.32V14.8824ZM105.261 14.8824H106.202V15.8235H105.261V14.8824ZM103.379 16.7647H104.32V17.7059H103.379V16.7647ZM103.379 15.8235H104.32V16.7647H103.379V15.8235ZM105.261 28.0588H106.202V29H105.261V28.0588ZM104.32 28.0588H105.261V29H104.32V28.0588ZM103.379 27.1176H104.32V28.0588H103.379V27.1176ZM103.379 26.1765H104.32V27.1176H103.379V26.1765ZM103.379 28.0588H104.32V29H103.379V28.0588ZM108.085 14.8824H109.026V15.8235H108.085V14.8824ZM106.202 14.8824H107.143V15.8235H106.202V14.8824ZM109.026 14.8824H109.967V15.8235H109.026V14.8824ZM109.967 14.8824H110.908V15.8235H109.967V14.8824ZM110.908 14.8824H111.849V15.8235H110.908V14.8824ZM111.849 14.8824H112.79V15.8235H111.849V14.8824ZM112.79 15.8235H113.732V16.7647H112.79V15.8235ZM111.849 15.8235H112.79V16.7647H111.849V15.8235ZM111.849 16.7647H112.79V17.7059H111.849V16.7647ZM113.732 15.8235H114.673V16.7647H113.732V15.8235ZM113.732 16.7647H114.673V17.7059H113.732V16.7647ZM112.79 16.7647H113.732V17.7059H112.79V16.7647ZM111.849 17.7059H112.79V18.6471H111.849V17.7059ZM110.908 17.7059H111.849V18.6471H110.908V17.7059ZM112.79 17.7059H113.732V18.6471H112.79V17.7059ZM113.732 17.7059H114.673V18.6471H113.732V17.7059ZM114.673 17.7059H115.614V18.6471H114.673V17.7059ZM114.673 18.6471H115.614V19.5882H114.673V18.6471ZM114.673 19.5882H115.614V20.5294H114.673V19.5882ZM114.673 20.5294H115.614V21.4706H114.673V20.5294ZM114.673 21.4706H115.614V22.4118H114.673V21.4706ZM114.673 22.4118H115.614V23.3529H114.673V22.4118ZM114.673 23.3529H115.614V24.2941H114.673V23.3529ZM114.673 24.2941H115.614V25.2353H114.673V24.2941ZM114.673 25.2353H115.614V26.1765H114.673V25.2353ZM113.732 25.2353H114.673V26.1765H113.732V25.2353ZM113.732 26.1765H114.673V27.1176H113.732V26.1765ZM113.732 27.1176H114.673V28.0588H113.732V27.1176ZM112.79 27.1176H113.732V28.0588H112.79V27.1176ZM111.849 27.1176H112.79V28.0588H111.849V27.1176ZM111.849 25.2353H112.79V26.1765H111.849V25.2353ZM111.849 26.1765H112.79V27.1176H111.849V26.1765ZM112.79 26.1765H113.732V27.1176H112.79V26.1765ZM112.79 25.2353H113.732V26.1765H112.79V25.2353ZM112.79 24.2941H113.732V25.2353H112.79V24.2941ZM111.849 24.2941H112.79V25.2353H111.849V24.2941ZM111.849 23.3529H112.79V24.2941H111.849V23.3529ZM111.849 22.4118H112.79V23.3529H111.849V22.4118ZM111.849 21.4706H112.79V22.4118H111.849V21.4706ZM111.849 20.5294H112.79V21.4706H111.849V20.5294ZM111.849 19.5882H112.79V20.5294H111.849V19.5882ZM111.849 18.6471H112.79V19.5882H111.849V18.6471ZM112.79 18.6471H113.732V19.5882H112.79V18.6471ZM112.79 19.5882H113.732V20.5294H112.79V19.5882ZM112.79 20.5294H113.732V21.4706H112.79V20.5294ZM112.79 21.4706H113.732V22.4118H112.79V21.4706ZM112.79 22.4118H113.732V23.3529H112.79V22.4118ZM112.79 23.3529H113.732V24.2941H112.79V23.3529ZM113.732 24.2941H114.673V25.2353H113.732V24.2941ZM113.732 23.3529H114.673V24.2941H113.732V23.3529ZM113.732 22.4118H114.673V23.3529H113.732V22.4118ZM113.732 21.4706H114.673V22.4118H113.732V21.4706ZM113.732 20.5294H114.673V21.4706H113.732V20.5294ZM113.732 19.5882H114.673V20.5294H113.732V19.5882ZM113.732 18.6471H114.673V19.5882H113.732V18.6471ZM111.849 28.0588H112.79V29H111.849V28.0588ZM106.202 28.0588H107.143V29H106.202V28.0588ZM106.202 27.1176H107.143V28.0588H106.202V27.1176ZM105.261 27.1176H106.202V28.0588H105.261V27.1176ZM104.32 27.1176H105.261V28.0588H104.32V27.1176ZM104.32 19.5882H105.261V20.5294H104.32V19.5882ZM104.32 18.6471H105.261V19.5882H104.32V18.6471ZM103.379 17.7059H104.32V18.6471H103.379V17.7059ZM104.32 16.7647H105.261V17.7059H104.32V16.7647ZM105.261 15.8235H106.202V16.7647H105.261V15.8235ZM106.202 15.8235H107.143V16.7647H106.202V15.8235ZM107.143 15.8235H108.085V16.7647H107.143V15.8235ZM107.143 16.7647H108.085V17.7059H107.143V16.7647ZM107.143 17.7059H108.085V18.6471H107.143V17.7059ZM106.202 17.7059H107.143V18.6471H106.202V17.7059ZM105.261 17.7059H106.202V18.6471H105.261V17.7059ZM106.202 18.6471H107.143V19.5882H106.202V18.6471ZM106.202 19.5882H107.143V20.5294H106.202V19.5882ZM106.202 20.5294H107.143V21.4706H106.202V20.5294ZM106.202 26.1765H107.143V27.1176H106.202V26.1765ZM105.261 26.1765H106.202V27.1176H105.261V26.1765ZM105.261 19.5882H106.202V20.5294H105.261V19.5882ZM105.261 18.6471H106.202V19.5882H105.261V18.6471ZM105.261 16.7647H106.202V17.7059H105.261V16.7647ZM106.202 16.7647H107.143V17.7059H106.202V16.7647ZM108.085 15.8235H109.026V16.7647H108.085V15.8235ZM109.026 15.8235H109.967V16.7647H109.026V15.8235ZM109.967 15.8235H110.908V16.7647H109.967V15.8235ZM110.908 15.8235H111.849V16.7647H110.908V15.8235ZM110.908 16.7647H111.849V17.7059H110.908V16.7647ZM109.967 16.7647H110.908V17.7059H109.967V16.7647ZM109.026 16.7647H109.967V17.7059H109.026V16.7647ZM108.085 16.7647H109.026V17.7059H108.085V16.7647ZM104.32 15.8235H105.261V16.7647H104.32V15.8235ZM104.32 26.1765H105.261V27.1176H104.32V26.1765ZM104.32 17.7059H105.261V18.6471H104.32V17.7059ZM103.379 18.6471H104.32V19.5882H103.379V18.6471ZM103.379 19.5882H104.32V20.5294H103.379V19.5882ZM103.379 25.2353H104.32V26.1765H103.379V25.2353ZM104.32 25.2353H105.261V26.1765H104.32V25.2353ZM105.261 25.2353H106.202V26.1765H105.261V25.2353ZM106.202 25.2353H107.143V26.1765H106.202V25.2353ZM105.261 20.5294H106.202V21.4706H105.261V20.5294ZM104.32 20.5294H105.261V21.4706H104.32V20.5294ZM103.379 20.5294H104.32V21.4706H103.379V20.5294ZM103.379 21.4706H104.32V22.4118H103.379V21.4706ZM103.379 22.4118H104.32V23.3529H103.379V22.4118ZM103.379 23.3529H104.32V24.2941H103.379V23.3529ZM104.32 23.3529H105.261V24.2941H104.32V23.3529ZM104.32 24.2941H105.261V25.2353H104.32V24.2941ZM105.261 24.2941H106.202V25.2353H105.261V24.2941ZM103.379 24.2941H104.32V25.2353H103.379V24.2941ZM106.202 24.2941H107.143V25.2353H106.202V24.2941ZM106.202 23.3529H107.143V24.2941H106.202V23.3529ZM106.202 22.4118H107.143V23.3529H106.202V22.4118ZM106.202 21.4706H107.143V22.4118H106.202V21.4706ZM105.261 21.4706H106.202V22.4118H105.261V21.4706ZM104.32 21.4706H105.261V22.4118H104.32V21.4706ZM104.32 22.4118H105.261V23.3529H104.32V22.4118ZM105.261 23.3529H106.202V24.2941H105.261V23.3529ZM105.261 22.4118H106.202V23.3529H105.261V22.4118ZM112.79 28.0588H113.732V29H112.79V28.0588ZM113.732 28.0588H114.673V29H113.732V28.0588ZM114.673 28.0588H115.614V29H114.673V28.0588ZM114.673 27.1176H115.614V28.0588H114.673V27.1176ZM114.673 26.1765H115.614V27.1176H114.673V26.1765ZM122.206 14.8824H123.147V15.8235H122.206V14.8824ZM123.147 14.8824H124.088V15.8235H123.147V14.8824ZM121.265 14.8824H122.206V15.8235H121.265V14.8824ZM124.088 14.8824H125.029V15.8235H124.088V14.8824ZM125.029 14.8824H125.971V15.8235H125.029V14.8824ZM125.971 14.8824H126.912V15.8235H125.971V14.8824ZM126.912 14.8824H127.853V15.8235H126.912V14.8824ZM127.853 15.8235H128.794V16.7647H127.853V15.8235ZM126.912 15.8235H127.853V16.7647H126.912V15.8235ZM126.912 16.7647H127.853V17.7059H126.912V16.7647ZM128.794 15.8235H129.735V16.7647H128.794V15.8235ZM128.794 16.7647H129.735V17.7059H128.794V16.7647ZM127.853 16.7647H128.794V17.7059H127.853V16.7647ZM126.912 17.7059H127.853V18.6471H126.912V17.7059ZM125.971 17.7059H126.912V18.6471H125.971V17.7059ZM127.853 17.7059H128.794V18.6471H127.853V17.7059ZM128.794 17.7059H129.735V18.6471H128.794V17.7059ZM129.735 17.7059H130.676V18.6471H129.735V17.7059ZM129.735 18.6471H130.676V19.5882H129.735V18.6471ZM129.735 24.2941H130.676V25.2353H129.735V24.2941ZM129.735 25.2353H130.676V26.1765H129.735V25.2353ZM128.794 25.2353H129.735V26.1765H128.794V25.2353ZM128.794 26.1765H129.735V27.1176H128.794V26.1765ZM128.794 27.1176H129.735V28.0588H128.794V27.1176ZM127.853 27.1176H128.794V28.0588H127.853V27.1176ZM126.912 27.1176H127.853V28.0588H126.912V27.1176ZM125.971 26.1765H126.912V27.1176H125.971V26.1765ZM125.971 25.2353H126.912V26.1765H125.971V25.2353ZM126.912 25.2353H127.853V26.1765H126.912V25.2353ZM126.912 26.1765H127.853V27.1176H126.912V26.1765ZM127.853 26.1765H128.794V27.1176H127.853V26.1765ZM127.853 25.2353H128.794V26.1765H127.853V25.2353ZM127.853 24.2941H128.794V25.2353H127.853V24.2941ZM126.912 24.2941H127.853V25.2353H126.912V24.2941ZM126.912 18.6471H127.853V19.5882H126.912V18.6471ZM127.853 18.6471H128.794V19.5882H127.853V18.6471ZM128.794 24.2941H129.735V25.2353H128.794V24.2941ZM128.794 18.6471H129.735V19.5882H128.794V18.6471ZM125.971 27.1176H126.912V28.0588H125.971V27.1176ZM125.971 28.0588H126.912V29H125.971V28.0588ZM126.912 28.0588H127.853V29H126.912V28.0588ZM125.029 28.0588H125.971V29H125.029V28.0588ZM124.088 28.0588H125.029V29H124.088V28.0588ZM123.147 28.0588H124.088V29H123.147V28.0588ZM122.206 28.0588H123.147V29H122.206V28.0588ZM121.265 28.0588H122.206V29H121.265V28.0588ZM121.265 27.1176H122.206V28.0588H121.265V27.1176ZM120.324 27.1176H121.265V28.0588H120.324V27.1176ZM119.382 27.1176H120.324V28.0588H119.382V27.1176ZM119.382 26.1765H120.324V27.1176H119.382V26.1765ZM118.441 25.2353H119.382V26.1765H118.441V25.2353ZM119.382 25.2353H120.324V26.1765H119.382V25.2353ZM118.441 24.2941H119.382V25.2353H118.441V24.2941ZM118.441 23.3529H119.382V24.2941H118.441V23.3529ZM118.441 22.4118H119.382V23.3529H118.441V22.4118ZM118.441 21.4706H119.382V22.4118H118.441V21.4706ZM118.441 20.5294H119.382V21.4706H118.441V20.5294ZM118.441 19.5882H119.382V20.5294H118.441V19.5882ZM119.382 19.5882H120.324V20.5294H119.382V19.5882ZM119.382 18.6471H120.324V19.5882H119.382V18.6471ZM118.441 18.6471H119.382V19.5882H118.441V18.6471ZM118.441 17.7059H119.382V18.6471H118.441V17.7059ZM119.382 17.7059H120.324V18.6471H119.382V17.7059ZM119.382 16.7647H120.324V17.7059H119.382V16.7647ZM119.382 15.8235H120.324V16.7647H119.382V15.8235ZM120.324 15.8235H121.265V16.7647H120.324V15.8235ZM121.265 15.8235H122.206V16.7647H121.265V15.8235ZM122.206 15.8235H123.147V16.7647H122.206V15.8235ZM122.206 16.7647H123.147V17.7059H122.206V16.7647ZM122.206 17.7059H123.147V18.6471H122.206V17.7059ZM121.265 17.7059H122.206V18.6471H121.265V17.7059ZM120.324 17.7059H121.265V18.6471H120.324V17.7059ZM121.265 18.6471H122.206V19.5882H121.265V18.6471ZM121.265 19.5882H122.206V20.5294H121.265V19.5882ZM121.265 20.5294H122.206V21.4706H121.265V20.5294ZM121.265 21.4706H122.206V22.4118H121.265V21.4706ZM121.265 22.4118H122.206V23.3529H121.265V22.4118ZM121.265 23.3529H122.206V24.2941H121.265V23.3529ZM121.265 24.2941H122.206V25.2353H121.265V24.2941ZM121.265 25.2353H122.206V26.1765H121.265V25.2353ZM122.206 25.2353H123.147V26.1765H122.206V25.2353ZM122.206 26.1765H123.147V27.1176H122.206V26.1765ZM123.147 26.1765H124.088V27.1176H123.147V26.1765ZM124.088 26.1765H125.029V27.1176H124.088V26.1765ZM125.029 26.1765H125.971V27.1176H125.029V26.1765ZM125.029 27.1176H125.971V28.0588H125.029V27.1176ZM124.088 27.1176H125.029V28.0588H124.088V27.1176ZM123.147 27.1176H124.088V28.0588H123.147V27.1176ZM122.206 27.1176H123.147V28.0588H122.206V27.1176ZM121.265 26.1765H122.206V27.1176H121.265V26.1765ZM120.324 26.1765H121.265V27.1176H120.324V26.1765ZM120.324 25.2353H121.265V26.1765H120.324V25.2353ZM120.324 24.2941H121.265V25.2353H120.324V24.2941ZM120.324 23.3529H121.265V24.2941H120.324V23.3529ZM119.382 23.3529H120.324V24.2941H119.382V23.3529ZM119.382 24.2941H120.324V25.2353H119.382V24.2941ZM119.382 22.4118H120.324V23.3529H119.382V22.4118ZM119.382 21.4706H120.324V22.4118H119.382V21.4706ZM119.382 20.5294H120.324V21.4706H119.382V20.5294ZM120.324 20.5294H121.265V21.4706H120.324V20.5294ZM120.324 21.4706H121.265V22.4118H120.324V21.4706ZM120.324 22.4118H121.265V23.3529H120.324V22.4118ZM120.324 19.5882H121.265V20.5294H120.324V19.5882ZM120.324 18.6471H121.265V19.5882H120.324V18.6471ZM120.324 16.7647H121.265V17.7059H120.324V16.7647ZM121.265 16.7647H122.206V17.7059H121.265V16.7647ZM123.147 15.8235H124.088V16.7647H123.147V15.8235ZM124.088 15.8235H125.029V16.7647H124.088V15.8235ZM125.029 15.8235H125.971V16.7647H125.029V15.8235ZM125.971 15.8235H126.912V16.7647H125.971V15.8235ZM125.971 16.7647H126.912V17.7059H125.971V16.7647ZM125.029 16.7647H125.971V17.7059H125.029V16.7647ZM124.088 16.7647H125.029V17.7059H124.088V16.7647ZM123.147 16.7647H124.088V17.7059H123.147V16.7647ZM129.735 19.5882H130.676V20.5294H129.735V19.5882ZM128.794 19.5882H129.735V20.5294H128.794V19.5882ZM127.853 19.5882H128.794V20.5294H127.853V19.5882ZM126.912 19.5882H127.853V20.5294H126.912V19.5882ZM129.735 20.5294H130.676V21.4706H129.735V20.5294ZM128.794 20.5294H129.735V21.4706H128.794V20.5294ZM127.853 20.5294H128.794V21.4706H127.853V20.5294ZM126.912 20.5294H127.853V21.4706H126.912V20.5294ZM125.971 20.5294H126.912V21.4706H125.971V20.5294ZM125.029 20.5294H125.971V21.4706H125.029V20.5294ZM124.088 20.5294H125.029V21.4706H124.088V20.5294ZM123.147 20.5294H124.088V21.4706H123.147V20.5294ZM122.206 20.5294H123.147V21.4706H122.206V20.5294ZM122.206 21.4706H123.147V22.4118H122.206V21.4706ZM123.147 21.4706H124.088V22.4118H123.147V21.4706ZM124.088 21.4706H125.029V22.4118H124.088V21.4706ZM125.029 21.4706H125.971V22.4118H125.029V21.4706ZM125.971 21.4706H126.912V22.4118H125.971V21.4706ZM126.912 21.4706H127.853V22.4118H126.912V21.4706ZM127.853 21.4706H128.794V22.4118H127.853V21.4706ZM128.794 21.4706H129.735V22.4118H128.794V21.4706ZM129.735 21.4706H130.676V22.4118H129.735V21.4706ZM142.919 17.7059H143.86V18.6471H142.919V17.7059ZM141.978 17.7059H142.919V18.6471H141.978V17.7059ZM141.037 17.7059H141.978V18.6471H141.037V17.7059ZM141.037 16.7647H141.978V17.7059H141.037V16.7647ZM140.096 16.7647H141.037V17.7059H140.096V16.7647ZM141.978 16.7647H142.919V17.7059H141.978V16.7647ZM142.919 16.7647H143.86V17.7059H142.919V16.7647ZM141.978 15.8235H142.919V16.7647H141.978V15.8235ZM141.037 15.8235H141.978V16.7647H141.037V15.8235ZM140.096 15.8235H141.037V16.7647H140.096V15.8235ZM140.096 14.8824H141.037V15.8235H140.096V14.8824ZM141.037 14.8824H141.978V15.8235H141.037V14.8824ZM139.154 14.8824H140.096V15.8235H139.154V14.8824ZM138.213 14.8824H139.154V15.8235H138.213V14.8824ZM137.272 14.8824H138.213V15.8235H137.272V14.8824ZM136.331 15.8235H137.272V16.7647H136.331V15.8235ZM135.39 15.8235H136.331V16.7647H135.39V15.8235ZM135.39 14.8824H136.331V15.8235H135.39V14.8824ZM136.331 14.8824H137.272V15.8235H136.331V14.8824ZM137.272 15.8235H138.213V16.7647H137.272V15.8235ZM137.272 16.7647H138.213V17.7059H137.272V16.7647ZM138.213 16.7647H139.154V17.7059H138.213V16.7647ZM139.154 16.7647H140.096V17.7059H139.154V16.7647ZM139.154 15.8235H140.096V16.7647H139.154V15.8235ZM138.213 15.8235H139.154V16.7647H138.213V15.8235ZM136.331 16.7647H137.272V17.7059H136.331V16.7647ZM135.39 16.7647H136.331V17.7059H135.39V16.7647ZM134.449 16.7647H135.39V17.7059H134.449V16.7647ZM133.507 16.7647H134.449V17.7059H133.507V16.7647ZM133.507 15.8235H134.449V16.7647H133.507V15.8235ZM134.449 15.8235H135.39V16.7647H134.449V15.8235ZM135.39 17.7059H136.331V18.6471H135.39V17.7059ZM136.331 17.7059H137.272V18.6471H136.331V17.7059ZM134.449 17.7059H135.39V18.6471H134.449V17.7059ZM133.507 17.7059H134.449V18.6471H133.507V17.7059ZM132.566 17.7059H133.507V18.6471H132.566V17.7059ZM133.507 18.6471H134.449V19.5882H133.507V18.6471ZM132.566 18.6471H133.507V19.5882H132.566V18.6471ZM132.566 19.5882H133.507V20.5294H132.566V19.5882ZM133.507 19.5882H134.449V20.5294H133.507V19.5882ZM134.449 18.6471H135.39V19.5882H134.449V18.6471ZM135.39 18.6471H136.331V19.5882H135.39V18.6471ZM135.39 19.5882H136.331V20.5294H135.39V19.5882ZM136.331 19.5882H137.272V20.5294H136.331V19.5882ZM134.449 19.5882H135.39V20.5294H134.449V19.5882ZM134.449 20.5294H135.39V21.4706H134.449V20.5294ZM133.507 20.5294H134.449V21.4706H133.507V20.5294ZM134.449 21.4706H135.39V22.4118H134.449V21.4706ZM133.507 21.4706H134.449V22.4118H133.507V21.4706ZM135.39 20.5294H136.331V21.4706H135.39V20.5294ZM136.331 20.5294H137.272V21.4706H136.331V20.5294ZM136.331 21.4706H137.272V22.4118H136.331V21.4706ZM136.331 22.4118H137.272V23.3529H136.331V22.4118ZM135.39 22.4118H136.331V23.3529H135.39V22.4118ZM135.39 21.4706H136.331V22.4118H135.39V21.4706ZM137.272 21.4706H138.213V22.4118H137.272V21.4706ZM138.213 21.4706H139.154V22.4118H138.213V21.4706ZM138.213 20.5294H139.154V21.4706H138.213V20.5294ZM139.154 20.5294H140.096V21.4706H139.154V20.5294ZM140.096 20.5294H141.037V21.4706H140.096V20.5294ZM141.037 20.5294H141.978V21.4706H141.037V20.5294ZM137.272 20.5294H138.213V21.4706H137.272V20.5294ZM137.272 22.4118H138.213V23.3529H137.272V22.4118ZM138.213 22.4118H139.154V23.3529H138.213V22.4118ZM139.154 22.4118H140.096V23.3529H139.154V22.4118ZM140.096 22.4118H141.037V23.3529H140.096V22.4118ZM141.037 22.4118H141.978V23.3529H141.037V22.4118ZM141.037 21.4706H141.978V22.4118H141.037V21.4706ZM140.096 21.4706H141.037V22.4118H140.096V21.4706ZM139.154 21.4706H140.096V22.4118H139.154V21.4706ZM142.919 21.4706H143.86V22.4118H142.919V21.4706ZM141.978 21.4706H142.919V22.4118H141.978V21.4706ZM141.978 22.4118H142.919V23.3529H141.978V22.4118ZM142.919 22.4118H143.86V23.3529H142.919V22.4118ZM141.037 23.3529H141.978V24.2941H141.037V23.3529ZM140.096 23.3529H141.037V24.2941H140.096V23.3529ZM141.978 23.3529H142.919V24.2941H141.978V23.3529ZM142.919 23.3529H143.86V24.2941H142.919V23.3529ZM143.86 23.3529H144.801V24.2941H143.86V23.3529ZM143.86 24.2941H144.801V25.2353H143.86V24.2941ZM143.86 25.2353H144.801V26.1765H143.86V25.2353ZM142.919 25.2353H143.86V26.1765H142.919V25.2353ZM142.919 24.2941H143.86V25.2353H142.919V24.2941ZM141.978 24.2941H142.919V25.2353H141.978V24.2941ZM141.978 25.2353H142.919V26.1765H141.978V25.2353ZM141.037 24.2941H141.978V25.2353H141.037V24.2941ZM141.037 25.2353H141.978V26.1765H141.037V25.2353ZM140.096 25.2353H141.037V26.1765H140.096V25.2353ZM140.096 26.1765H141.037V27.1176H140.096V26.1765ZM141.037 26.1765H141.978V27.1176H141.037V26.1765ZM141.037 27.1176H141.978V28.0588H141.037V27.1176ZM141.978 27.1176H142.919V28.0588H141.978V27.1176ZM141.978 26.1765H142.919V27.1176H141.978V26.1765ZM142.919 26.1765H143.86V27.1176H142.919V26.1765ZM142.919 27.1176H143.86V28.0588H142.919V27.1176ZM141.037 28.0588H141.978V29H141.037V28.0588ZM140.096 28.0588H141.037V29H140.096V28.0588ZM140.096 27.1176H141.037V28.0588H140.096V27.1176ZM139.154 27.1176H140.096V28.0588H139.154V27.1176ZM138.213 27.1176H139.154V28.0588H138.213V27.1176ZM137.272 27.1176H138.213V28.0588H137.272V27.1176ZM137.272 26.1765H138.213V27.1176H137.272V26.1765ZM138.213 26.1765H139.154V27.1176H138.213V26.1765ZM139.154 26.1765H140.096V27.1176H139.154V26.1765ZM139.154 28.0588H140.096V29H139.154V28.0588ZM138.213 28.0588H139.154V29H138.213V28.0588ZM137.272 28.0588H138.213V29H137.272V28.0588ZM136.331 28.0588H137.272V29H136.331V28.0588ZM135.39 28.0588H136.331V29H135.39V28.0588ZM135.39 27.1176H136.331V28.0588H135.39V27.1176ZM136.331 27.1176H137.272V28.0588H136.331V27.1176ZM136.331 26.1765H137.272V27.1176H136.331V26.1765ZM135.39 26.1765H136.331V27.1176H135.39V26.1765ZM134.449 27.1176H135.39V28.0588H134.449V27.1176ZM133.507 27.1176H134.449V28.0588H133.507V27.1176ZM133.507 26.1765H134.449V27.1176H133.507V26.1765ZM134.449 26.1765H135.39V27.1176H134.449V26.1765ZM135.39 25.2353H136.331V26.1765H135.39V25.2353ZM136.331 25.2353H137.272V26.1765H136.331V25.2353ZM135.39 24.2941H136.331V25.2353H135.39V24.2941ZM134.449 24.2941H135.39V25.2353H134.449V24.2941ZM133.507 24.2941H134.449V25.2353H133.507V24.2941ZM132.566 24.2941H133.507V25.2353H132.566V24.2941ZM132.566 25.2353H133.507V26.1765H132.566V25.2353ZM133.507 25.2353H134.449V26.1765H133.507V25.2353ZM134.449 25.2353H135.39V26.1765H134.449V25.2353ZM143.86 17.7059H144.801V18.6471H143.86V17.7059ZM142.919 15.8235H143.86V16.7647H142.919V15.8235ZM143.86 18.6471H144.801V19.5882H143.86V18.6471ZM142.919 18.6471H143.86V19.5882H142.919V18.6471ZM141.978 18.6471H142.919V19.5882H141.978V18.6471ZM141.037 18.6471H141.978V19.5882H141.037V18.6471ZM140.096 17.7059H141.037V18.6471H140.096V17.7059Z" fill="#0635F6"/>
</svg>
