<svg width="79" height="39" viewBox="0 0 79 39" fill="none" xmlns="http://www.w3.org/2000/svg">
<rect width="79" height="39" fill="white"/>
<path d="M26.2353 28.0588H27.1765V29H26.2353V28.0588ZM26.2353 29H27.1765V29.9412H26.2353V29ZM26.2353 29.9412H27.1765V30.8824H26.2353V29.9412ZM26.2353 30.8824H27.1765V31.8235H26.2353V30.8824ZM25.2941 30.8824H26.2353V31.8235H25.2941V30.8824ZM24.3529 30.8824H25.2941V31.8235H24.3529V30.8824ZM23.4118 30.8824H24.3529V31.8235H23.4118V30.8824ZM22.4706 30.8824H23.4118V31.8235H22.4706V30.8824ZM22.4706 29.9412H23.4118V30.8824H22.4706V29.9412ZM21.5294 29.9412H22.4706V30.8824H21.5294V29.9412ZM21.5294 29H22.4706V29.9412H21.5294V29ZM22.4706 29H23.4118V29.9412H22.4706V29ZM22.4706 28.0588H23.4118V29H22.4706V28.0588ZM23.4118 28.0588H24.3529V29H23.4118V28.0588ZM24.3529 28.0588H25.2941V29H24.3529V28.0588ZM25.2941 28.0588H26.2353V29H25.2941V28.0588ZM25.2941 29H26.2353V29.9412H25.2941V29ZM25.2941 29.9412H26.2353V30.8824H25.2941V29.9412ZM24.3529 29.9412H25.2941V30.8824H24.3529V29.9412ZM23.4118 29.9412H24.3529V30.8824H23.4118V29.9412ZM23.4118 29H24.3529V29.9412H23.4118V29ZM24.3529 29H25.2941V29.9412H24.3529V29ZM23.4118 27.1176H24.3529V28.0588H23.4118V27.1176ZM23.4118 26.1765H24.3529V27.1176H23.4118V26.1765ZM24.3529 26.1765H25.2941V27.1176H24.3529V26.1765ZM25.2941 26.1765H26.2353V27.1176H25.2941V26.1765ZM25.2941 25.2353H26.2353V26.1765H25.2941V25.2353ZM25.2941 24.2941H26.2353V25.2353H25.2941V24.2941ZM26.2353 24.2941H27.1765V25.2353H26.2353V24.2941ZM24.3529 24.2941H25.2941V25.2353H24.3529V24.2941ZM23.4118 24.2941H24.3529V25.2353H23.4118V24.2941ZM22.4706 24.2941H23.4118V25.2353H22.4706V24.2941ZM23.4118 25.2353H24.3529V26.1765H23.4118V25.2353ZM24.3529 25.2353H25.2941V26.1765H24.3529V25.2353ZM22.4706 25.2353H23.4118V26.1765H22.4706V25.2353ZM22.4706 26.1765H23.4118V27.1176H22.4706V26.1765ZM22.4706 27.1176H23.4118V28.0588H22.4706V27.1176ZM21.5294 28.0588H22.4706V29H21.5294V28.0588ZM21.5294 27.1176H22.4706V28.0588H21.5294V27.1176ZM21.5294 26.1765H22.4706V27.1176H21.5294V26.1765ZM21.5294 25.2353H22.4706V26.1765H21.5294V25.2353ZM20.5882 27.1176H21.5294V28.0588H20.5882V27.1176ZM20.5882 28.0588H21.5294V29H20.5882V28.0588ZM19.6471 28.0588H20.5882V29H19.6471V28.0588ZM18.7059 28.0588H19.6471V29H18.7059V28.0588ZM17.7647 28.0588H18.7059V29H17.7647V28.0588ZM17.7647 27.1176H18.7059V28.0588H17.7647V27.1176ZM16.8235 27.1176H17.7647V28.0588H16.8235V27.1176ZM15.8824 27.1176H16.8235V28.0588H15.8824V27.1176ZM15.8824 26.1765H16.8235V27.1176H15.8824V26.1765ZM15.8824 25.2353H16.8235V26.1765H15.8824V25.2353ZM14.9412 25.2353H15.8824V26.1765H14.9412V25.2353ZM16.8235 25.2353H17.7647V26.1765H16.8235V25.2353ZM17.7647 25.2353H18.7059V26.1765H17.7647V25.2353ZM18.7059 25.2353H19.6471V26.1765H18.7059V25.2353ZM19.6471 25.2353H20.5882V26.1765H19.6471V25.2353ZM20.5882 25.2353H21.5294V26.1765H20.5882V25.2353ZM20.5882 26.1765H21.5294V27.1176H20.5882V26.1765ZM19.6471 26.1765H20.5882V27.1176H19.6471V26.1765ZM18.7059 26.1765H19.6471V27.1176H18.7059V26.1765ZM17.7647 26.1765H18.7059V27.1176H17.7647V26.1765ZM16.8235 26.1765H17.7647V27.1176H16.8235V26.1765ZM18.7059 27.1176H19.6471V28.0588H18.7059V27.1176ZM19.6471 27.1176H20.5882V28.0588H19.6471V27.1176ZM18.7059 24.2941H19.6471V25.2353H18.7059V24.2941ZM17.7647 24.2941H18.7059V25.2353H17.7647V24.2941ZM16.8235 24.2941H17.7647V25.2353H16.8235V24.2941ZM15.8824 24.2941H16.8235V25.2353H15.8824V24.2941ZM14.9412 24.2941H15.8824V25.2353H14.9412V24.2941ZM14.9412 23.3529H15.8824V24.2941H14.9412V23.3529ZM14.9412 22.4118H15.8824V23.3529H14.9412V22.4118ZM15.8824 22.4118H16.8235V23.3529H15.8824V22.4118ZM15.8824 21.4706H16.8235V22.4118H15.8824V21.4706ZM16.8235 21.4706H17.7647V22.4118H16.8235V21.4706ZM16.8235 22.4118H17.7647V23.3529H16.8235V22.4118ZM16.8235 23.3529H17.7647V24.2941H16.8235V23.3529ZM17.7647 23.3529H18.7059V24.2941H17.7647V23.3529ZM17.7647 22.4118H18.7059V23.3529H17.7647V22.4118ZM17.7647 21.4706H18.7059V22.4118H17.7647V21.4706ZM15.8824 23.3529H16.8235V24.2941H15.8824V23.3529ZM14.9412 21.4706H15.8824V22.4118H14.9412V21.4706ZM14.9412 20.5294H15.8824V21.4706H14.9412V20.5294ZM15.8824 20.5294H16.8235V21.4706H15.8824V20.5294ZM16.8235 19.5882H17.7647V20.5294H16.8235V19.5882ZM17.7647 19.5882H18.7059V20.5294H17.7647V19.5882ZM17.7647 20.5294H18.7059V21.4706H17.7647V20.5294ZM16.8235 20.5294H17.7647V21.4706H16.8235V20.5294ZM14.9412 19.5882H15.8824V20.5294H14.9412V19.5882ZM15.8824 19.5882H16.8235V20.5294H15.8824V19.5882ZM23.4118 23.3529H24.3529V24.2941H23.4118V23.3529ZM23.4118 22.4118H24.3529V23.3529H23.4118V22.4118ZM23.4118 21.4706H24.3529V22.4118H23.4118V21.4706ZM23.4118 20.5294H24.3529V21.4706H23.4118V20.5294ZM23.4118 19.5882H24.3529V20.5294H23.4118V19.5882ZM23.4118 18.6471H24.3529V19.5882H23.4118V18.6471ZM23.4118 17.7059H24.3529V18.6471H23.4118V17.7059ZM23.4118 16.7647H24.3529V17.7059H23.4118V16.7647ZM23.4118 15.8235H24.3529V16.7647H23.4118V15.8235ZM23.4118 14.8824H24.3529V15.8235H23.4118V14.8824ZM24.3529 14.8824H25.2941V15.8235H24.3529V14.8824ZM25.2941 14.8824H26.2353V15.8235H25.2941V14.8824ZM26.2353 14.8824H27.1765V15.8235H26.2353V14.8824ZM26.2353 15.8235H27.1765V16.7647H26.2353V15.8235ZM26.2353 16.7647H27.1765V17.7059H26.2353V16.7647ZM26.2353 17.7059H27.1765V18.6471H26.2353V17.7059ZM26.2353 18.6471H27.1765V19.5882H26.2353V18.6471ZM26.2353 23.3529H27.1765V24.2941H26.2353V23.3529ZM26.2353 22.4118H27.1765V23.3529H26.2353V22.4118ZM26.2353 21.4706H27.1765V22.4118H26.2353V21.4706ZM26.2353 20.5294H27.1765V21.4706H26.2353V20.5294ZM26.2353 19.5882H27.1765V20.5294H26.2353V19.5882ZM25.2941 23.3529H26.2353V24.2941H25.2941V23.3529ZM24.3529 23.3529H25.2941V24.2941H24.3529V23.3529ZM24.3529 22.4118H25.2941V23.3529H24.3529V22.4118ZM24.3529 21.4706H25.2941V22.4118H24.3529V21.4706ZM24.3529 20.5294H25.2941V21.4706H24.3529V20.5294ZM24.3529 19.5882H25.2941V20.5294H24.3529V19.5882ZM24.3529 18.6471H25.2941V19.5882H24.3529V18.6471ZM24.3529 17.7059H25.2941V18.6471H24.3529V17.7059ZM24.3529 16.7647H25.2941V17.7059H24.3529V16.7647ZM25.2941 16.7647H26.2353V17.7059H25.2941V16.7647ZM25.2941 15.8235H26.2353V16.7647H25.2941V15.8235ZM24.3529 15.8235H25.2941V16.7647H24.3529V15.8235ZM25.2941 18.6471H26.2353V19.5882H25.2941V18.6471ZM25.2941 19.5882H26.2353V20.5294H25.2941V19.5882ZM25.2941 20.5294H26.2353V21.4706H25.2941V20.5294ZM25.2941 21.4706H26.2353V22.4118H25.2941V21.4706ZM25.2941 22.4118H26.2353V23.3529H25.2941V22.4118ZM25.2941 17.7059H26.2353V18.6471H25.2941V17.7059ZM26.2353 13.9412H27.1765V14.8824H26.2353V13.9412ZM26.2353 13H27.1765V13.9412H26.2353V13ZM25.2941 13H26.2353V13.9412H25.2941V13ZM25.2941 13.9412H26.2353V14.8824H25.2941V13.9412ZM24.3529 13.9412H25.2941V14.8824H24.3529V13.9412ZM23.4118 13.9412H24.3529V14.8824H23.4118V13.9412ZM22.4706 13.9412H23.4118V14.8824H22.4706V13.9412ZM22.4706 13H23.4118V13.9412H22.4706V13ZM23.4118 13H24.3529V13.9412H23.4118V13ZM24.3529 13H25.2941V13.9412H24.3529V13ZM24.3529 12.0588H25.2941V13H24.3529V12.0588ZM25.2941 12.0588H26.2353V13H25.2941V12.0588ZM25.2941 11.1176H26.2353V12.0588H25.2941V11.1176ZM24.3529 11.1176H25.2941V12.0588H24.3529V11.1176ZM23.4118 11.1176H24.3529V12.0588H23.4118V11.1176ZM23.4118 10.1765H24.3529V11.1176H23.4118V10.1765ZM22.4706 10.1765H23.4118V11.1176H22.4706V10.1765ZM21.5294 10.1765H22.4706V11.1176H21.5294V10.1765ZM20.5882 10.1765H21.5294V11.1176H20.5882V10.1765ZM19.6471 10.1765H20.5882V11.1176H19.6471V10.1765ZM18.7059 10.1765H19.6471V11.1176H18.7059V10.1765ZM17.7647 10.1765H18.7059V11.1176H17.7647V10.1765ZM17.7647 11.1176H18.7059V12.0588H17.7647V11.1176ZM16.8235 11.1176H17.7647V12.0588H16.8235V11.1176ZM15.8824 11.1176H16.8235V12.0588H15.8824V11.1176ZM15.8824 12.0588H16.8235V13H15.8824V12.0588ZM15.8824 13H16.8235V13.9412H15.8824V13ZM14.9412 13H15.8824V13.9412H14.9412V13ZM14.9412 13.9412H15.8824V14.8824H14.9412V13.9412ZM14.9412 14.8824H15.8824V15.8235H14.9412V14.8824ZM14.9412 15.8235H15.8824V16.7647H14.9412V15.8235ZM14.9412 16.7647H15.8824V17.7059H14.9412V16.7647ZM14.9412 17.7059H15.8824V18.6471H14.9412V17.7059ZM14.9412 18.6471H15.8824V19.5882H14.9412V18.6471ZM15.8824 18.6471H16.8235V19.5882H15.8824V18.6471ZM16.8235 18.6471H17.7647V19.5882H16.8235V18.6471ZM16.8235 17.7059H17.7647V18.6471H16.8235V17.7059ZM17.7647 17.7059H18.7059V18.6471H17.7647V17.7059ZM17.7647 16.7647H18.7059V17.7059H17.7647V16.7647ZM17.7647 15.8235H18.7059V16.7647H17.7647V15.8235ZM17.7647 14.8824H18.7059V15.8235H17.7647V14.8824ZM17.7647 18.6471H18.7059V19.5882H17.7647V18.6471ZM15.8824 17.7059H16.8235V18.6471H15.8824V17.7059ZM15.8824 16.7647H16.8235V17.7059H15.8824V16.7647ZM15.8824 15.8235H16.8235V16.7647H15.8824V15.8235ZM16.8235 15.8235H17.7647V16.7647H16.8235V15.8235ZM16.8235 14.8824H17.7647V15.8235H16.8235V14.8824ZM16.8235 13.9412H17.7647V14.8824H16.8235V13.9412ZM15.8824 13.9412H16.8235V14.8824H15.8824V13.9412ZM15.8824 14.8824H16.8235V15.8235H15.8824V14.8824ZM16.8235 16.7647H17.7647V17.7059H16.8235V16.7647ZM17.7647 13.9412H18.7059V14.8824H17.7647V13.9412ZM18.7059 13.9412H19.6471V14.8824H18.7059V13.9412ZM18.7059 13H19.6471V13.9412H18.7059V13ZM18.7059 12.0588H19.6471V13H18.7059V12.0588ZM19.6471 13H20.5882V13.9412H19.6471V13ZM20.5882 13H21.5294V13.9412H20.5882V13ZM21.5294 13H22.4706V13.9412H21.5294V13ZM21.5294 12.0588H22.4706V13H21.5294V12.0588ZM22.4706 12.0588H23.4118V13H22.4706V12.0588ZM23.4118 12.0588H24.3529V13H23.4118V12.0588ZM21.5294 11.1176H22.4706V12.0588H21.5294V11.1176ZM20.5882 12.0588H21.5294V13H20.5882V12.0588ZM19.6471 12.0588H20.5882V13H19.6471V12.0588ZM17.7647 12.0588H18.7059V13H17.7647V12.0588ZM16.8235 12.0588H17.7647V13H16.8235V12.0588ZM16.8235 13H17.7647V13.9412H16.8235V13ZM17.7647 13H18.7059V13.9412H17.7647V13ZM18.7059 11.1176H19.6471V12.0588H18.7059V11.1176ZM19.6471 11.1176H20.5882V12.0588H19.6471V11.1176ZM20.5882 11.1176H21.5294V12.0588H20.5882V11.1176ZM22.4706 11.1176H23.4118V12.0588H22.4706V11.1176ZM42.239 29H41.2978V28.0588H42.239V29ZM41.2978 29H40.3566V28.0588H41.2978V29ZM40.3566 29H39.4154V28.0588H40.3566V29ZM42.239 27.1176H41.2978V26.1765H42.239V27.1176ZM42.239 28.0588H41.2978V27.1176H42.239V28.0588ZM40.3566 15.8235H39.4154V14.8824H40.3566V15.8235ZM41.2978 15.8235H40.3566V14.8824H41.2978V15.8235ZM42.239 16.7647H41.2978V15.8235H42.239V16.7647ZM42.239 17.7059H41.2978V16.7647H42.239V17.7059ZM42.239 15.8235H41.2978V14.8824H42.239V15.8235ZM37.5331 29H36.5919V28.0588H37.5331V29ZM39.4154 29H38.4743V28.0588H39.4154V29ZM36.5919 29H35.6507V28.0588H36.5919V29ZM35.6507 29H34.7096V28.0588H35.6507V29ZM34.7096 29H33.7684V28.0588H34.7096V29ZM33.7684 29H32.8272V28.0588H33.7684V29ZM32.8272 28.0588H31.886V27.1176H32.8272V28.0588ZM33.7684 28.0588H32.8272V27.1176H33.7684V28.0588ZM33.7684 27.1176H32.8272V26.1765H33.7684V27.1176ZM31.886 28.0588H30.9449V27.1176H31.886V28.0588ZM31.886 27.1176H30.9449V26.1765H31.886V27.1176ZM32.8272 27.1176H31.886V26.1765H32.8272V27.1176ZM33.7684 26.1765H32.8272V25.2353H33.7684V26.1765ZM34.7096 26.1765H33.7684V25.2353H34.7096V26.1765ZM32.8272 26.1765H31.886V25.2353H32.8272V26.1765ZM31.886 26.1765H30.9449V25.2353H31.886V26.1765ZM30.9449 26.1765H30.0037V25.2353H30.9449V26.1765ZM30.9449 25.2353H30.0037V24.2941H30.9449V25.2353ZM30.9449 24.2941H30.0037V23.3529H30.9449V24.2941ZM30.9449 23.3529H30.0037V22.4118H30.9449V23.3529ZM30.9449 22.4118H30.0037V21.4706H30.9449V22.4118ZM30.9449 21.4706H30.0037V20.5294H30.9449V21.4706ZM30.9449 20.5294H30.0037V19.5882H30.9449V20.5294ZM30.9449 19.5882H30.0037V18.6471H30.9449V19.5882ZM30.9449 18.6471H30.0037V17.7059H30.9449V18.6471ZM31.886 18.6471H30.9449V17.7059H31.886V18.6471ZM31.886 17.7059H30.9449V16.7647H31.886V17.7059ZM31.886 16.7647H30.9449V15.8235H31.886V16.7647ZM32.8272 16.7647H31.886V15.8235H32.8272V16.7647ZM33.7684 16.7647H32.8272V15.8235H33.7684V16.7647ZM33.7684 18.6471H32.8272V17.7059H33.7684V18.6471ZM33.7684 17.7059H32.8272V16.7647H33.7684V17.7059ZM32.8272 17.7059H31.886V16.7647H32.8272V17.7059ZM32.8272 18.6471H31.886V17.7059H32.8272V18.6471ZM32.8272 19.5882H31.886V18.6471H32.8272V19.5882ZM33.7684 19.5882H32.8272V18.6471H33.7684V19.5882ZM33.7684 20.5294H32.8272V19.5882H33.7684V20.5294ZM33.7684 21.4706H32.8272V20.5294H33.7684V21.4706ZM33.7684 22.4118H32.8272V21.4706H33.7684V22.4118ZM33.7684 23.3529H32.8272V22.4118H33.7684V23.3529ZM33.7684 24.2941H32.8272V23.3529H33.7684V24.2941ZM33.7684 25.2353H32.8272V24.2941H33.7684V25.2353ZM32.8272 25.2353H31.886V24.2941H32.8272V25.2353ZM32.8272 24.2941H31.886V23.3529H32.8272V24.2941ZM32.8272 23.3529H31.886V22.4118H32.8272V23.3529ZM32.8272 22.4118H31.886V21.4706H32.8272V22.4118ZM32.8272 21.4706H31.886V20.5294H32.8272V21.4706ZM32.8272 20.5294H31.886V19.5882H32.8272V20.5294ZM31.886 19.5882H30.9449V18.6471H31.886V19.5882ZM31.886 20.5294H30.9449V19.5882H31.886V20.5294ZM31.886 21.4706H30.9449V20.5294H31.886V21.4706ZM31.886 22.4118H30.9449V21.4706H31.886V22.4118ZM31.886 23.3529H30.9449V22.4118H31.886V23.3529ZM31.886 24.2941H30.9449V23.3529H31.886V24.2941ZM31.886 25.2353H30.9449V24.2941H31.886V25.2353ZM33.7684 15.8235H32.8272V14.8824H33.7684V15.8235ZM39.4154 15.8235H38.4743V14.8824H39.4154V15.8235ZM39.4154 16.7647H38.4743V15.8235H39.4154V16.7647ZM40.3566 16.7647H39.4154V15.8235H40.3566V16.7647ZM41.2978 16.7647H40.3566V15.8235H41.2978V16.7647ZM41.2978 24.2941H40.3566V23.3529H41.2978V24.2941ZM41.2978 25.2353H40.3566V24.2941H41.2978V25.2353ZM42.239 26.1765H41.2978V25.2353H42.239V26.1765ZM41.2978 27.1176H40.3566V26.1765H41.2978V27.1176ZM40.3566 28.0588H39.4154V27.1176H40.3566V28.0588ZM39.4154 28.0588H38.4743V27.1176H39.4154V28.0588ZM38.4743 28.0588H37.5331V27.1176H38.4743V28.0588ZM38.4743 27.1176H37.5331V26.1765H38.4743V27.1176ZM38.4743 26.1765H37.5331V25.2353H38.4743V26.1765ZM39.4154 26.1765H38.4743V25.2353H39.4154V26.1765ZM40.3566 26.1765H39.4154V25.2353H40.3566V26.1765ZM39.4154 25.2353H38.4743V24.2941H39.4154V25.2353ZM39.4154 24.2941H38.4743V23.3529H39.4154V24.2941ZM39.4154 23.3529H38.4743V22.4118H39.4154V23.3529ZM39.4154 17.7059H38.4743V16.7647H39.4154V17.7059ZM40.3566 17.7059H39.4154V16.7647H40.3566V17.7059ZM40.3566 24.2941H39.4154V23.3529H40.3566V24.2941ZM40.3566 25.2353H39.4154V24.2941H40.3566V25.2353ZM40.3566 27.1176H39.4154V26.1765H40.3566V27.1176ZM39.4154 27.1176H38.4743V26.1765H39.4154V27.1176ZM37.5331 28.0588H36.5919V27.1176H37.5331V28.0588ZM36.5919 28.0588H35.6507V27.1176H36.5919V28.0588ZM35.6507 28.0588H34.7096V27.1176H35.6507V28.0588ZM34.7096 28.0588H33.7684V27.1176H34.7096V28.0588ZM34.7096 27.1176H33.7684V26.1765H34.7096V27.1176ZM35.6507 27.1176H34.7096V26.1765H35.6507V27.1176ZM36.5919 27.1176H35.6507V26.1765H36.5919V27.1176ZM37.5331 27.1176H36.5919V26.1765H37.5331V27.1176ZM41.2978 28.0588H40.3566V27.1176H41.2978V28.0588ZM41.2978 17.7059H40.3566V16.7647H41.2978V17.7059ZM41.2978 26.1765H40.3566V25.2353H41.2978V26.1765ZM42.239 25.2353H41.2978V24.2941H42.239V25.2353ZM42.239 24.2941H41.2978V23.3529H42.239V24.2941ZM42.239 18.6471H41.2978V17.7059H42.239V18.6471ZM41.2978 18.6471H40.3566V17.7059H41.2978V18.6471ZM40.3566 18.6471H39.4154V17.7059H40.3566V18.6471ZM39.4154 18.6471H38.4743V17.7059H39.4154V18.6471ZM40.3566 23.3529H39.4154V22.4118H40.3566V23.3529ZM41.2978 23.3529H40.3566V22.4118H41.2978V23.3529ZM42.239 23.3529H41.2978V22.4118H42.239V23.3529ZM42.239 22.4118H41.2978V21.4706H42.239V22.4118ZM42.239 21.4706H41.2978V20.5294H42.239V21.4706ZM42.239 20.5294H41.2978V19.5882H42.239V20.5294ZM41.2978 20.5294H40.3566V19.5882H41.2978V20.5294ZM41.2978 19.5882H40.3566V18.6471H41.2978V19.5882ZM40.3566 19.5882H39.4154V18.6471H40.3566V19.5882ZM42.239 19.5882H41.2978V18.6471H42.239V19.5882ZM39.4154 19.5882H38.4743V18.6471H39.4154V19.5882ZM39.4154 20.5294H38.4743V19.5882H39.4154V20.5294ZM39.4154 21.4706H38.4743V20.5294H39.4154V21.4706ZM39.4154 22.4118H38.4743V21.4706H39.4154V22.4118ZM40.3566 22.4118H39.4154V21.4706H40.3566V22.4118ZM41.2978 22.4118H40.3566V21.4706H41.2978V22.4118ZM41.2978 21.4706H40.3566V20.5294H41.2978V21.4706ZM40.3566 20.5294H39.4154V19.5882H40.3566V20.5294ZM40.3566 21.4706H39.4154V20.5294H40.3566V21.4706ZM32.8272 15.8235H31.886V14.8824H32.8272V15.8235ZM31.886 15.8235H30.9449V14.8824H31.886V15.8235ZM30.9449 15.8235H30.0037V14.8824H30.9449V15.8235ZM30.9449 16.7647H30.0037V15.8235H30.9449V16.7647ZM30.9449 17.7059H30.0037V16.7647H30.9449V17.7059ZM46.0074 15.8235H46.9485V16.7647H46.0074V15.8235ZM46.0074 16.7647H46.9485V17.7059H46.0074V16.7647ZM46.0074 17.7059H46.9485V18.6471H46.0074V17.7059ZM46.0074 18.6471H46.9485V19.5882H46.0074V18.6471ZM46.0074 19.5882H46.9485V20.5294H46.0074V19.5882ZM45.0662 19.5882H46.0074V20.5294H45.0662V19.5882ZM45.0662 18.6471H46.0074V19.5882H45.0662V18.6471ZM45.0662 17.7059H46.0074V18.6471H45.0662V17.7059ZM45.0662 16.7647H46.0074V17.7059H45.0662V16.7647ZM45.0662 15.8235H46.0074V16.7647H45.0662V15.8235ZM45.0662 25.2353H46.0074V26.1765H45.0662V25.2353ZM45.0662 24.2941H46.0074V25.2353H45.0662V24.2941ZM45.0662 23.3529H46.0074V24.2941H45.0662V23.3529ZM45.0662 22.4118H46.0074V23.3529H45.0662V22.4118ZM46.0074 21.4706H46.9485V22.4118H46.0074V21.4706ZM46.0074 20.5294H46.9485V21.4706H46.0074V20.5294ZM45.0662 20.5294H46.0074V21.4706H45.0662V20.5294ZM45.0662 21.4706H46.0074V22.4118H45.0662V21.4706ZM45.0662 26.1765H46.0074V27.1176H45.0662V26.1765ZM45.0662 27.1176H46.0074V28.0588H45.0662V27.1176ZM45.0662 28.0588H46.0074V29H45.0662V28.0588ZM47.8897 15.8235H48.8309V16.7647H47.8897V15.8235ZM47.8897 16.7647H48.8309V17.7059H47.8897V16.7647ZM47.8897 17.7059H48.8309V18.6471H47.8897V17.7059ZM47.8897 18.6471H48.8309V19.5882H47.8897V18.6471ZM47.8897 19.5882H48.8309V20.5294H47.8897V19.5882ZM47.8897 20.5294H48.8309V21.4706H47.8897V20.5294ZM47.8897 21.4706H48.8309V22.4118H47.8897V21.4706ZM47.8897 22.4118H48.8309V23.3529H47.8897V22.4118ZM47.8897 23.3529H48.8309V24.2941H47.8897V23.3529ZM47.8897 24.2941H48.8309V25.2353H47.8897V24.2941ZM47.8897 25.2353H48.8309V26.1765H47.8897V25.2353ZM47.8897 26.1765H48.8309V27.1176H47.8897V26.1765ZM47.8897 27.1176H48.8309V28.0588H47.8897V27.1176ZM47.8897 28.0588H48.8309V29H47.8897V28.0588ZM46.9485 28.0588H47.8897V29H46.9485V28.0588ZM46.0074 28.0588H46.9485V29H46.0074V28.0588ZM46.0074 27.1176H46.9485V28.0588H46.0074V27.1176ZM46.9485 27.1176H47.8897V28.0588H46.9485V27.1176ZM46.9485 26.1765H47.8897V27.1176H46.9485V26.1765ZM46.0074 25.2353H46.9485V26.1765H46.0074V25.2353ZM46.0074 24.2941H46.9485V25.2353H46.0074V24.2941ZM46.0074 23.3529H46.9485V24.2941H46.0074V23.3529ZM46.9485 23.3529H47.8897V24.2941H46.9485V23.3529ZM46.9485 24.2941H47.8897V25.2353H46.9485V24.2941ZM46.9485 25.2353H47.8897V26.1765H46.9485V25.2353ZM46.0074 26.1765H46.9485V27.1176H46.0074V26.1765ZM46.9485 22.4118H47.8897V23.3529H46.9485V22.4118ZM46.9485 21.4706H47.8897V22.4118H46.9485V21.4706ZM46.9485 20.5294H47.8897V21.4706H46.9485V20.5294ZM46.0074 22.4118H46.9485V23.3529H46.0074V22.4118ZM46.9485 19.5882H47.8897V20.5294H46.9485V19.5882ZM46.9485 18.6471H47.8897V19.5882H46.9485V18.6471ZM46.9485 17.7059H47.8897V18.6471H46.9485V17.7059ZM46.9485 16.7647H47.8897V17.7059H46.9485V16.7647ZM46.9485 15.8235H47.8897V16.7647H46.9485V15.8235ZM47.8897 10.1765H48.8309V11.1176H47.8897V10.1765ZM46.9485 11.1176H47.8897V12.0588H46.9485V11.1176ZM46.9485 9.23529H47.8897V10.1765H46.9485V9.23529ZM46.0074 10.1765H46.9485V11.1176H46.0074V10.1765ZM46.9485 10.1765H47.8897V11.1176H46.9485V10.1765ZM46.0074 9.23529H46.9485V10.1765H46.0074V9.23529ZM46.0074 11.1176H46.9485V12.0588H46.0074V11.1176ZM47.8897 11.1176H48.8309V12.0588H47.8897V11.1176ZM45.0662 10.1765H46.0074V11.1176H45.0662V10.1765ZM45.0662 11.1176H46.0074V12.0588H45.0662V11.1176ZM46.0074 12.0588H46.9485V13H46.0074V12.0588ZM46.9485 12.0588H47.8897V13H46.9485V12.0588ZM45.0662 9.23529H46.0074V10.1765H45.0662V9.23529ZM47.8897 9.23529H48.8309V10.1765H47.8897V9.23529ZM47.8897 12.0588H48.8309V13H47.8897V12.0588ZM45.0662 12.0588H46.0074V13H45.0662V12.0588ZM51.6599 14.8824H52.6011V15.8235H51.6599V14.8824ZM52.6011 14.8824H53.5423V15.8235H52.6011V14.8824ZM53.5423 14.8824H54.4835V15.8235H53.5423V14.8824ZM54.4835 14.8824H55.4246V15.8235H54.4835V14.8824ZM55.4246 14.8824H56.3658V15.8235H55.4246V14.8824ZM56.3658 14.8824H57.307V15.8235H56.3658V14.8824ZM57.307 14.8824H58.2482V15.8235H57.307V14.8824ZM58.2482 14.8824H59.1893V15.8235H58.2482V14.8824ZM59.1893 14.8824H60.1305V15.8235H59.1893V14.8824ZM60.1305 14.8824H61.0717V15.8235H60.1305V14.8824ZM61.0717 14.8824H62.0129V15.8235H61.0717V14.8824ZM61.0717 15.8235H62.0129V16.7647H61.0717V15.8235ZM62.0129 14.8824H62.954V15.8235H62.0129V14.8824ZM62.0129 15.8235H62.954V16.7647H62.0129V15.8235ZM62.0129 16.7647H62.954V17.7059H62.0129V16.7647ZM62.0129 17.7059H62.954V18.6471H62.0129V17.7059ZM61.0717 17.7059H62.0129V18.6471H61.0717V17.7059ZM60.1305 17.7059H61.0717V18.6471H60.1305V17.7059ZM59.1893 17.7059H60.1305V18.6471H59.1893V17.7059ZM58.2482 17.7059H59.1893V18.6471H58.2482V17.7059ZM57.307 17.7059H58.2482V18.6471H57.307V17.7059ZM56.3658 17.7059H57.307V18.6471H56.3658V17.7059ZM55.4246 17.7059H56.3658V18.6471H55.4246V17.7059ZM54.4835 17.7059H55.4246V18.6471H54.4835V17.7059ZM53.5423 17.7059H54.4835V18.6471H53.5423V17.7059ZM52.6011 17.7059H53.5423V18.6471H52.6011V17.7059ZM51.6599 17.7059H52.6011V18.6471H51.6599V17.7059ZM51.6599 16.7647H52.6011V17.7059H51.6599V16.7647ZM51.6599 15.8235H52.6011V16.7647H51.6599V15.8235ZM52.6011 15.8235H53.5423V16.7647H52.6011V15.8235ZM53.5423 15.8235H54.4835V16.7647H53.5423V15.8235ZM54.4835 15.8235H55.4246V16.7647H54.4835V15.8235ZM55.4246 15.8235H56.3658V16.7647H55.4246V15.8235ZM56.3658 15.8235H57.307V16.7647H56.3658V15.8235ZM57.307 15.8235H58.2482V16.7647H57.307V15.8235ZM58.2482 15.8235H59.1893V16.7647H58.2482V15.8235ZM59.1893 16.7647H60.1305V17.7059H59.1893V16.7647ZM60.1305 16.7647H61.0717V17.7059H60.1305V16.7647ZM61.0717 16.7647H62.0129V17.7059H61.0717V16.7647ZM60.1305 15.8235H61.0717V16.7647H60.1305V15.8235ZM59.1893 15.8235H60.1305V16.7647H59.1893V15.8235ZM57.307 16.7647H58.2482V17.7059H57.307V16.7647ZM56.3658 16.7647H57.307V17.7059H56.3658V16.7647ZM55.4246 16.7647H56.3658V17.7059H55.4246V16.7647ZM54.4835 16.7647H55.4246V17.7059H54.4835V16.7647ZM53.5423 16.7647H54.4835V17.7059H53.5423V16.7647ZM52.6011 16.7647H53.5423V17.7059H52.6011V16.7647ZM58.2482 16.7647H59.1893V17.7059H58.2482V16.7647ZM61.0717 18.6471H62.0129V19.5882H61.0717V18.6471ZM60.1305 18.6471H61.0717V19.5882H60.1305V18.6471ZM59.1893 18.6471H60.1305V19.5882H59.1893V18.6471ZM58.2482 18.6471H59.1893V19.5882H58.2482V18.6471ZM58.2482 19.5882H59.1893V20.5294H58.2482V19.5882ZM57.307 19.5882H58.2482V20.5294H57.307V19.5882ZM59.1893 19.5882H60.1305V20.5294H59.1893V19.5882ZM60.1305 19.5882H61.0717V20.5294H60.1305V19.5882ZM59.1893 20.5294H60.1305V21.4706H59.1893V20.5294ZM58.2482 20.5294H59.1893V21.4706H58.2482V20.5294ZM57.307 20.5294H58.2482V21.4706H57.307V20.5294ZM56.3658 20.5294H57.307V21.4706H56.3658V20.5294ZM55.4246 21.4706H56.3658V22.4118H55.4246V21.4706ZM56.3658 21.4706H57.307V22.4118H56.3658V21.4706ZM57.307 21.4706H58.2482V22.4118H57.307V21.4706ZM58.2482 21.4706H59.1893V22.4118H58.2482V21.4706ZM52.6011 24.2941H53.5423V25.2353H52.6011V24.2941ZM53.5423 24.2941H54.4835V25.2353H53.5423V24.2941ZM54.4835 24.2941H55.4246V25.2353H54.4835V24.2941ZM55.4246 24.2941H56.3658V25.2353H55.4246V24.2941ZM55.4246 23.3529H56.3658V24.2941H55.4246V23.3529ZM56.3658 23.3529H57.307V24.2941H56.3658V23.3529ZM56.3658 22.4118H57.307V23.3529H56.3658V22.4118ZM57.307 22.4118H58.2482V23.3529H57.307V22.4118ZM55.4246 22.4118H56.3658V23.3529H55.4246V22.4118ZM54.4835 22.4118H55.4246V23.3529H54.4835V22.4118ZM54.4835 23.3529H55.4246V24.2941H54.4835V23.3529ZM53.5423 23.3529H54.4835V24.2941H53.5423V23.3529ZM51.6599 25.2353H52.6011V26.1765H51.6599V25.2353ZM52.6011 25.2353H53.5423V26.1765H52.6011V25.2353ZM53.5423 25.2353H54.4835V26.1765H53.5423V25.2353ZM54.4835 25.2353H55.4246V26.1765H54.4835V25.2353ZM55.4246 25.2353H56.3658V26.1765H55.4246V25.2353ZM56.3658 25.2353H57.307V26.1765H56.3658V25.2353ZM57.307 25.2353H58.2482V26.1765H57.307V25.2353ZM58.2482 25.2353H59.1893V26.1765H58.2482V25.2353ZM59.1893 25.2353H60.1305V26.1765H59.1893V25.2353ZM60.1305 25.2353H61.0717V26.1765H60.1305V25.2353ZM61.0717 25.2353H62.0129V26.1765H61.0717V25.2353ZM62.0129 25.2353H62.954V26.1765H62.0129V25.2353ZM62.0129 26.1765H62.954V27.1176H62.0129V26.1765ZM62.0129 27.1176H62.954V28.0588H62.0129V27.1176ZM62.0129 28.0588H62.954V29H62.0129V28.0588ZM61.0717 28.0588H62.0129V29H61.0717V28.0588ZM60.1305 28.0588H61.0717V29H60.1305V28.0588ZM59.1893 28.0588H60.1305V29H59.1893V28.0588ZM58.2482 28.0588H59.1893V29H58.2482V28.0588ZM57.307 28.0588H58.2482V29H57.307V28.0588ZM56.3658 28.0588H57.307V29H56.3658V28.0588ZM55.4246 28.0588H56.3658V29H55.4246V28.0588ZM54.4835 28.0588H55.4246V29H54.4835V28.0588ZM53.5423 28.0588H54.4835V29H53.5423V28.0588ZM52.6011 28.0588H53.5423V29H52.6011V28.0588ZM52.6011 27.1176H53.5423V28.0588H52.6011V27.1176ZM51.6599 27.1176H52.6011V28.0588H51.6599V27.1176ZM51.6599 26.1765H52.6011V27.1176H51.6599V26.1765ZM51.6599 28.0588H52.6011V29H51.6599V28.0588ZM53.5423 27.1176H54.4835V28.0588H53.5423V27.1176ZM54.4835 27.1176H55.4246V28.0588H54.4835V27.1176ZM55.4246 27.1176H56.3658V28.0588H55.4246V27.1176ZM56.3658 27.1176H57.307V28.0588H56.3658V27.1176ZM57.307 27.1176H58.2482V28.0588H57.307V27.1176ZM58.2482 27.1176H59.1893V28.0588H58.2482V27.1176ZM59.1893 27.1176H60.1305V28.0588H59.1893V27.1176ZM60.1305 27.1176H61.0717V28.0588H60.1305V27.1176ZM61.0717 27.1176H62.0129V28.0588H61.0717V27.1176ZM61.0717 26.1765H62.0129V27.1176H61.0717V26.1765ZM60.1305 26.1765H61.0717V27.1176H60.1305V26.1765ZM58.2482 26.1765H59.1893V27.1176H58.2482V26.1765ZM57.307 26.1765H58.2482V27.1176H57.307V26.1765ZM56.3658 26.1765H57.307V27.1176H56.3658V26.1765ZM55.4246 26.1765H56.3658V27.1176H55.4246V26.1765ZM54.4835 26.1765H55.4246V27.1176H54.4835V26.1765ZM53.5423 26.1765H54.4835V27.1176H53.5423V26.1765ZM52.6011 26.1765H53.5423V27.1176H52.6011V26.1765ZM59.1893 26.1765H60.1305V27.1176H59.1893V26.1765Z" fill="#0635F6"/>
</svg>
