<svg width="185" height="39" viewBox="0 0 185 39" fill="none" xmlns="http://www.w3.org/2000/svg">
<rect width="185" height="39" fill="white"/>
<path d="M14.8824 10.1765H15.8235V11.1176H14.8824V10.1765ZM15.8235 10.1765H16.7647V11.1176H15.8235V10.1765ZM16.7647 10.1765H17.7059V11.1176H16.7647V10.1765ZM17.7059 11.1176H18.6471V12.0588H17.7059V11.1176ZM17.7059 12.0588H18.6471V13H17.7059V12.0588ZM17.7059 13H18.6471V13.9412H17.7059V13ZM17.7059 13.9412H18.6471V14.8824H17.7059V13.9412ZM17.7059 14.8824H18.6471V15.8235H17.7059V14.8824ZM17.7059 15.8235H18.6471V16.7647H17.7059V15.8235ZM16.7647 19.5882H17.7059V20.5294H16.7647V19.5882ZM16.7647 18.6471H17.7059V19.5882H16.7647V18.6471ZM16.7647 17.7059H17.7059V18.6471H16.7647V17.7059ZM15.8235 16.7647H16.7647V17.7059H15.8235V16.7647ZM15.8235 15.8235H16.7647V16.7647H15.8235V15.8235ZM15.8235 14.8824H16.7647V15.8235H15.8235V14.8824ZM15.8235 13.9412H16.7647V14.8824H15.8235V13.9412ZM15.8235 13H16.7647V13.9412H15.8235V13ZM16.7647 12.0588H17.7059V13H16.7647V12.0588ZM16.7647 11.1176H17.7059V12.0588H16.7647V11.1176ZM16.7647 13H17.7059V13.9412H16.7647V13ZM16.7647 13.9412H17.7059V14.8824H16.7647V13.9412ZM16.7647 14.8824H17.7059V15.8235H16.7647V14.8824ZM16.7647 15.8235H17.7059V16.7647H16.7647V15.8235ZM16.7647 16.7647H17.7059V17.7059H16.7647V16.7647ZM14.8824 12.0588H15.8235V13H14.8824V12.0588ZM14.8824 11.1176H15.8235V12.0588H14.8824V11.1176ZM15.8235 11.1176H16.7647V12.0588H15.8235V11.1176ZM15.8235 12.0588H16.7647V13H15.8235V12.0588ZM14.8824 13.9412H15.8235V14.8824H14.8824V13.9412ZM14.8824 14.8824H15.8235V15.8235H14.8824V14.8824ZM14.8824 15.8235H15.8235V16.7647H14.8824V15.8235ZM14.8824 16.7647H15.8235V17.7059H14.8824V16.7647ZM14.8824 17.7059H15.8235V18.6471H14.8824V17.7059ZM14.8824 18.6471H15.8235V19.5882H14.8824V18.6471ZM14.8824 13H15.8235V13.9412H14.8824V13ZM15.8235 18.6471H16.7647V19.5882H15.8235V18.6471ZM15.8235 19.5882H16.7647V20.5294H15.8235V19.5882ZM15.8235 17.7059H16.7647V18.6471H15.8235V17.7059ZM14.8824 19.5882H15.8235V20.5294H14.8824V19.5882ZM14.8824 20.5294H15.8235V21.4706H14.8824V20.5294ZM14.8824 21.4706H15.8235V22.4118H14.8824V21.4706ZM14.8824 22.4118H15.8235V23.3529H14.8824V22.4118ZM14.8824 23.3529H15.8235V24.2941H14.8824V23.3529ZM14.8824 24.2941H15.8235V25.2353H14.8824V24.2941ZM14.8824 25.2353H15.8235V26.1765H14.8824V25.2353ZM14.8824 26.1765H15.8235V27.1176H14.8824V26.1765ZM14.8824 27.1176H15.8235V28.0588H14.8824V27.1176ZM14.8824 28.0588H15.8235V29H14.8824V28.0588ZM15.8235 28.0588H16.7647V29H15.8235V28.0588ZM16.7647 28.0588H17.7059V29H16.7647V28.0588ZM16.7647 20.5294H17.7059V21.4706H16.7647V20.5294ZM15.8235 20.5294H16.7647V21.4706H15.8235V20.5294ZM15.8235 21.4706H16.7647V22.4118H15.8235V21.4706ZM15.8235 22.4118H16.7647V23.3529H15.8235V22.4118ZM15.8235 23.3529H16.7647V24.2941H15.8235V23.3529ZM15.8235 24.2941H16.7647V25.2353H15.8235V24.2941ZM15.8235 25.2353H16.7647V26.1765H15.8235V25.2353ZM15.8235 26.1765H16.7647V27.1176H15.8235V26.1765ZM15.8235 27.1176H16.7647V28.0588H15.8235V27.1176ZM16.7647 27.1176H17.7059V28.0588H16.7647V27.1176ZM16.7647 26.1765H17.7059V27.1176H16.7647V26.1765ZM16.7647 25.2353H17.7059V26.1765H16.7647V25.2353ZM16.7647 24.2941H17.7059V25.2353H16.7647V24.2941ZM16.7647 23.3529H17.7059V24.2941H16.7647V23.3529ZM16.7647 22.4118H17.7059V23.3529H16.7647V22.4118ZM16.7647 21.4706H17.7059V22.4118H16.7647V21.4706ZM18.6471 12.0588H19.5882V13H18.6471V12.0588ZM18.6471 13H19.5882V13.9412H18.6471V13ZM18.6471 13.9412H19.5882V14.8824H18.6471V13.9412ZM18.6471 14.8824H19.5882V15.8235H18.6471V14.8824ZM18.6471 15.8235H19.5882V16.7647H18.6471V15.8235ZM18.6471 16.7647H19.5882V17.7059H18.6471V16.7647ZM19.5882 13H20.5294V13.9412H19.5882V13ZM19.5882 13.9412H20.5294V14.8824H19.5882V13.9412ZM19.5882 14.8824H20.5294V15.8235H19.5882V14.8824ZM19.5882 15.8235H20.5294V16.7647H19.5882V15.8235ZM19.5882 16.7647H20.5294V17.7059H19.5882V16.7647ZM19.5882 17.7059H20.5294V18.6471H19.5882V17.7059ZM20.5294 13.9412H21.4706V14.8824H20.5294V13.9412ZM20.5294 14.8824H21.4706V15.8235H20.5294V14.8824ZM20.5294 15.8235H21.4706V16.7647H20.5294V15.8235ZM20.5294 16.7647H21.4706V17.7059H20.5294V16.7647ZM20.5294 17.7059H21.4706V18.6471H20.5294V17.7059ZM20.5294 18.6471H21.4706V19.5882H20.5294V18.6471ZM21.4706 14.8824H22.4118V15.8235H21.4706V14.8824ZM21.4706 15.8235H22.4118V16.7647H21.4706V15.8235ZM21.4706 16.7647H22.4118V17.7059H21.4706V16.7647ZM21.4706 17.7059H22.4118V18.6471H21.4706V17.7059ZM21.4706 18.6471H22.4118V19.5882H21.4706V18.6471ZM21.4706 19.5882H22.4118V20.5294H21.4706V19.5882ZM22.4118 15.8235H23.3529V16.7647H22.4118V15.8235ZM22.4118 16.7647H23.3529V17.7059H22.4118V16.7647ZM22.4118 17.7059H23.3529V18.6471H22.4118V17.7059ZM22.4118 18.6471H23.3529V19.5882H22.4118V18.6471ZM22.4118 19.5882H23.3529V20.5294H22.4118V19.5882ZM22.4118 20.5294H23.3529V21.4706H22.4118V20.5294ZM23.3529 19.5882H24.2941V20.5294H23.3529V19.5882ZM23.3529 18.6471H24.2941V19.5882H23.3529V18.6471ZM23.3529 17.7059H24.2941V18.6471H23.3529V17.7059ZM23.3529 16.7647H24.2941V17.7059H23.3529V16.7647ZM23.3529 15.8235H24.2941V16.7647H23.3529V15.8235ZM23.3529 14.8824H24.2941V15.8235H23.3529V14.8824ZM24.2941 13.9412H25.2353V14.8824H24.2941V13.9412ZM24.2941 14.8824H25.2353V15.8235H24.2941V14.8824ZM24.2941 15.8235H25.2353V16.7647H24.2941V15.8235ZM24.2941 16.7647H25.2353V17.7059H24.2941V16.7647ZM24.2941 17.7059H25.2353V18.6471H24.2941V17.7059ZM24.2941 18.6471H25.2353V19.5882H24.2941V18.6471ZM25.2353 13H26.1765V13.9412H25.2353V13ZM25.2353 13.9412H26.1765V14.8824H25.2353V13.9412ZM25.2353 14.8824H26.1765V15.8235H25.2353V14.8824ZM25.2353 15.8235H26.1765V16.7647H25.2353V15.8235ZM25.2353 16.7647H26.1765V17.7059H25.2353V16.7647ZM25.2353 17.7059H26.1765V18.6471H25.2353V17.7059ZM26.1765 12.0588H27.1176V13H26.1765V12.0588ZM26.1765 13H27.1176V13.9412H26.1765V13ZM26.1765 13.9412H27.1176V14.8824H26.1765V13.9412ZM26.1765 14.8824H27.1176V15.8235H26.1765V14.8824ZM26.1765 15.8235H27.1176V16.7647H26.1765V15.8235ZM26.1765 16.7647H27.1176V17.7059H26.1765V16.7647ZM28.0588 10.1765H29V11.1176H28.0588V10.1765ZM29 10.1765H29.9412V11.1176H29V10.1765ZM29.9412 10.1765H30.8824V11.1176H29.9412V10.1765ZM29.9412 11.1176H30.8824V12.0588H29.9412V11.1176ZM29.9412 12.0588H30.8824V13H29.9412V12.0588ZM29.9412 13H30.8824V13.9412H29.9412V13ZM29.9412 13.9412H30.8824V14.8824H29.9412V13.9412ZM29 13.9412H29.9412V14.8824H29V13.9412ZM29 13H29.9412V13.9412H29V13ZM28.0588 12.0588H29V13H28.0588V12.0588ZM28.0588 11.1176H29V12.0588H28.0588V11.1176ZM27.1176 12.0588H28.0588V13H27.1176V12.0588ZM27.1176 13H28.0588V13.9412H27.1176V13ZM27.1176 13.9412H28.0588V14.8824H27.1176V13.9412ZM27.1176 11.1176H28.0588V12.0588H27.1176V11.1176ZM29 11.1176H29.9412V12.0588H29V11.1176ZM29 12.0588H29.9412V13H29V12.0588ZM28.0588 13H29V13.9412H28.0588V13ZM28.0588 13.9412H29V14.8824H28.0588V13.9412ZM28.0588 14.8824H29V15.8235H28.0588V14.8824ZM28.0588 15.8235H29V16.7647H28.0588V15.8235ZM27.1176 15.8235H28.0588V16.7647H27.1176V15.8235ZM27.1176 14.8824H28.0588V15.8235H27.1176V14.8824ZM28.0588 16.7647H29V17.7059H28.0588V16.7647ZM28.0588 17.7059H29V18.6471H28.0588V17.7059ZM28.0588 18.6471H29V19.5882H28.0588V18.6471ZM28.0588 19.5882H29V20.5294H28.0588V19.5882ZM28.0588 20.5294H29V21.4706H28.0588V20.5294ZM28.0588 21.4706H29V22.4118H28.0588V21.4706ZM29 15.8235H29.9412V16.7647H29V15.8235ZM29 14.8824H29.9412V15.8235H29V14.8824ZM29.9412 14.8824H30.8824V15.8235H29.9412V14.8824ZM29.9412 15.8235H30.8824V16.7647H29.9412V15.8235ZM29.9412 16.7647H30.8824V17.7059H29.9412V16.7647ZM29.9412 17.7059H30.8824V18.6471H29.9412V17.7059ZM29.9412 18.6471H30.8824V19.5882H29.9412V18.6471ZM29.9412 19.5882H30.8824V20.5294H29.9412V19.5882ZM29.9412 20.5294H30.8824V21.4706H29.9412V20.5294ZM29.9412 21.4706H30.8824V22.4118H29.9412V21.4706ZM29 21.4706H29.9412V22.4118H29V21.4706ZM29 20.5294H29.9412V21.4706H29V20.5294ZM29 19.5882H29.9412V20.5294H29V19.5882ZM29 18.6471H29.9412V19.5882H29V18.6471ZM29 17.7059H29.9412V18.6471H29V17.7059ZM29 16.7647H29.9412V17.7059H29V16.7647ZM28.0588 26.1765H29V27.1176H28.0588V26.1765ZM28.0588 27.1176H29V28.0588H28.0588V27.1176ZM28.0588 28.0588H29V29H28.0588V28.0588ZM29 28.0588H29.9412V29H29V28.0588ZM29.9412 28.0588H30.8824V29H29.9412V28.0588ZM29.9412 27.1176H30.8824V28.0588H29.9412V27.1176ZM29.9412 26.1765H30.8824V27.1176H29.9412V26.1765ZM29.9412 25.2353H30.8824V26.1765H29.9412V25.2353ZM29.9412 24.2941H30.8824V25.2353H29.9412V24.2941ZM29.9412 23.3529H30.8824V24.2941H29.9412V23.3529ZM29.9412 22.4118H30.8824V23.3529H29.9412V22.4118ZM29 22.4118H29.9412V23.3529H29V22.4118ZM29 23.3529H29.9412V24.2941H29V23.3529ZM29 24.2941H29.9412V25.2353H29V24.2941ZM29 25.2353H29.9412V26.1765H29V25.2353ZM29 26.1765H29.9412V27.1176H29V26.1765ZM29 27.1176H29.9412V28.0588H29V27.1176ZM28.0588 22.4118H29V23.3529H28.0588V22.4118ZM28.0588 23.3529H29V24.2941H28.0588V23.3529ZM28.0588 24.2941H29V25.2353H28.0588V24.2941ZM28.0588 25.2353H29V26.1765H28.0588V25.2353ZM13.9412 10.1765H14.8824V11.1176H13.9412V10.1765ZM13.9412 11.1176H14.8824V12.0588H13.9412V11.1176ZM13.9412 12.0588H14.8824V13H13.9412V12.0588ZM13.9412 13H14.8824V13.9412H13.9412V13ZM13.9412 13.9412H14.8824V14.8824H13.9412V13.9412ZM13.9412 14.8824H14.8824V15.8235H13.9412V14.8824ZM13.9412 15.8235H14.8824V16.7647H13.9412V15.8235ZM13.9412 16.7647H14.8824V17.7059H13.9412V16.7647ZM13.9412 17.7059H14.8824V18.6471H13.9412V17.7059ZM13.9412 18.6471H14.8824V19.5882H13.9412V18.6471ZM13.9412 19.5882H14.8824V20.5294H13.9412V19.5882ZM13.9412 20.5294H14.8824V21.4706H13.9412V20.5294ZM13.9412 21.4706H14.8824V22.4118H13.9412V21.4706ZM13.9412 22.4118H14.8824V23.3529H13.9412V22.4118ZM13.9412 23.3529H14.8824V24.2941H13.9412V23.3529ZM13.9412 24.2941H14.8824V25.2353H13.9412V24.2941ZM13.9412 25.2353H14.8824V26.1765H13.9412V25.2353ZM13.9412 26.1765H14.8824V27.1176H13.9412V26.1765ZM13.9412 27.1176H14.8824V28.0588H13.9412V27.1176ZM13.9412 28.0588H14.8824V29H13.9412V28.0588ZM30.8824 28.0588H31.8235V29H30.8824V28.0588ZM30.8824 27.1176H31.8235V28.0588H30.8824V27.1176ZM30.8824 26.1765H31.8235V27.1176H30.8824V26.1765ZM30.8824 25.2353H31.8235V26.1765H30.8824V25.2353ZM30.8824 24.2941H31.8235V25.2353H30.8824V24.2941ZM30.8824 23.3529H31.8235V24.2941H30.8824V23.3529ZM30.8824 22.4118H31.8235V23.3529H30.8824V22.4118ZM30.8824 21.4706H31.8235V22.4118H30.8824V21.4706ZM30.8824 20.5294H31.8235V21.4706H30.8824V20.5294ZM30.8824 19.5882H31.8235V20.5294H30.8824V19.5882ZM30.8824 18.6471H31.8235V19.5882H30.8824V18.6471ZM30.8824 17.7059H31.8235V18.6471H30.8824V17.7059ZM30.8824 16.7647H31.8235V17.7059H30.8824V16.7647ZM30.8824 15.8235H31.8235V16.7647H30.8824V15.8235ZM30.8824 14.8824H31.8235V15.8235H30.8824V14.8824ZM30.8824 13.9412H31.8235V14.8824H30.8824V13.9412ZM30.8824 13H31.8235V13.9412H30.8824V13ZM30.8824 12.0588H31.8235V13H30.8824V12.0588ZM30.8824 11.1176H31.8235V12.0588H30.8824V11.1176ZM30.8824 10.1765H31.8235V11.1176H30.8824V10.1765ZM34.6599 14.8824H35.6011V15.8235H34.6599V14.8824ZM35.6011 14.8824H36.5423V15.8235H35.6011V14.8824ZM36.5423 14.8824H37.4835V15.8235H36.5423V14.8824ZM37.4835 14.8824H38.4246V15.8235H37.4835V14.8824ZM37.4835 15.8235H38.4246V16.7647H37.4835V15.8235ZM37.4835 16.7647H38.4246V17.7059H37.4835V16.7647ZM37.4835 17.7059H38.4246V18.6471H37.4835V17.7059ZM37.4835 18.6471H38.4246V19.5882H37.4835V18.6471ZM37.4835 19.5882H38.4246V20.5294H37.4835V19.5882ZM37.4835 20.5294H38.4246V21.4706H37.4835V20.5294ZM37.4835 21.4706H38.4246V22.4118H37.4835V21.4706ZM37.4835 22.4118H38.4246V23.3529H37.4835V22.4118ZM37.4835 23.3529H38.4246V24.2941H37.4835V23.3529ZM36.5423 23.3529H37.4835V24.2941H36.5423V23.3529ZM35.6011 23.3529H36.5423V24.2941H35.6011V23.3529ZM34.6599 23.3529H35.6011V24.2941H34.6599V23.3529ZM34.6599 22.4118H35.6011V23.3529H34.6599V22.4118ZM34.6599 21.4706H35.6011V22.4118H34.6599V21.4706ZM34.6599 20.5294H35.6011V21.4706H34.6599V20.5294ZM34.6599 19.5882H35.6011V20.5294H34.6599V19.5882ZM34.6599 18.6471H35.6011V19.5882H34.6599V18.6471ZM34.6599 17.7059H35.6011V18.6471H34.6599V17.7059ZM34.6599 16.7647H35.6011V17.7059H34.6599V16.7647ZM34.6599 15.8235H35.6011V16.7647H34.6599V15.8235ZM35.6011 15.8235H36.5423V16.7647H35.6011V15.8235ZM36.5423 15.8235H37.4835V16.7647H36.5423V15.8235ZM36.5423 16.7647H37.4835V17.7059H36.5423V16.7647ZM36.5423 17.7059H37.4835V18.6471H36.5423V17.7059ZM36.5423 18.6471H37.4835V19.5882H36.5423V18.6471ZM36.5423 19.5882H37.4835V20.5294H36.5423V19.5882ZM36.5423 20.5294H37.4835V21.4706H36.5423V20.5294ZM35.6011 21.4706H36.5423V22.4118H35.6011V21.4706ZM35.6011 22.4118H36.5423V23.3529H35.6011V22.4118ZM35.6011 20.5294H36.5423V21.4706H35.6011V20.5294ZM35.6011 19.5882H36.5423V20.5294H35.6011V19.5882ZM35.6011 18.6471H36.5423V19.5882H35.6011V18.6471ZM35.6011 17.7059H36.5423V18.6471H35.6011V17.7059ZM35.6011 16.7647H36.5423V17.7059H35.6011V16.7647ZM36.5423 21.4706H37.4835V22.4118H36.5423V21.4706ZM36.5423 22.4118H37.4835V23.3529H36.5423V22.4118ZM43.1305 14.8824H44.0717V15.8235H43.1305V14.8824ZM44.0717 14.8824H45.0129V15.8235H44.0717V14.8824ZM45.0129 14.8824H45.954V15.8235H45.0129V14.8824ZM45.954 14.8824H46.8952V15.8235H45.954V14.8824ZM45.954 15.8235H46.8952V16.7647H45.954V15.8235ZM45.954 16.7647H46.8952V17.7059H45.954V16.7647ZM45.954 17.7059H46.8952V18.6471H45.954V17.7059ZM45.954 18.6471H46.8952V19.5882H45.954V18.6471ZM45.954 19.5882H46.8952V20.5294H45.954V19.5882ZM45.954 20.5294H46.8952V21.4706H45.954V20.5294ZM45.954 21.4706H46.8952V22.4118H45.954V21.4706ZM45.954 22.4118H46.8952V23.3529H45.954V22.4118ZM45.954 23.3529H46.8952V24.2941H45.954V23.3529ZM45.0129 22.4118H45.954V23.3529H45.0129V22.4118ZM44.0717 22.4118H45.0129V23.3529H44.0717V22.4118ZM44.0717 23.3529H45.0129V24.2941H44.0717V23.3529ZM43.1305 22.4118H44.0717V23.3529H43.1305V22.4118ZM43.1305 21.4706H44.0717V22.4118H43.1305V21.4706ZM43.1305 20.5294H44.0717V21.4706H43.1305V20.5294ZM43.1305 19.5882H44.0717V20.5294H43.1305V19.5882ZM43.1305 18.6471H44.0717V19.5882H43.1305V18.6471ZM43.1305 17.7059H44.0717V18.6471H43.1305V17.7059ZM43.1305 16.7647H44.0717V17.7059H43.1305V16.7647ZM43.1305 15.8235H44.0717V16.7647H43.1305V15.8235ZM44.0717 15.8235H45.0129V16.7647H44.0717V15.8235ZM45.0129 15.8235H45.954V16.7647H45.0129V15.8235ZM45.0129 16.7647H45.954V17.7059H45.0129V16.7647ZM45.0129 17.7059H45.954V18.6471H45.0129V17.7059ZM45.0129 18.6471H45.954V19.5882H45.0129V18.6471ZM45.0129 19.5882H45.954V20.5294H45.0129V19.5882ZM45.0129 20.5294H45.954V21.4706H45.0129V20.5294ZM45.0129 21.4706H45.954V22.4118H45.0129V21.4706ZM44.0717 21.4706H45.0129V22.4118H44.0717V21.4706ZM44.0717 20.5294H45.0129V21.4706H44.0717V20.5294ZM44.0717 19.5882H45.0129V20.5294H44.0717V19.5882ZM44.0717 18.6471H45.0129V19.5882H44.0717V18.6471ZM44.0717 17.7059H45.0129V18.6471H44.0717V17.7059ZM44.0717 16.7647H45.0129V17.7059H44.0717V16.7647ZM42.1893 23.3529H43.1305V24.2941H42.1893V23.3529ZM43.1305 23.3529H44.0717V24.2941H43.1305V23.3529ZM44.0717 24.2941H45.0129V25.2353H44.0717V24.2941ZM45.0129 24.2941H45.954V25.2353H45.0129V24.2941ZM45.0129 23.3529H45.954V24.2941H45.0129V23.3529ZM43.1305 24.2941H44.0717V25.2353H43.1305V24.2941ZM43.1305 25.2353H44.0717V26.1765H43.1305V25.2353ZM44.0717 25.2353H45.0129V26.1765H44.0717V25.2353ZM43.1305 26.1765H44.0717V27.1176H43.1305V26.1765ZM42.1893 26.1765H43.1305V27.1176H42.1893V26.1765ZM42.1893 27.1176H43.1305V28.0588H42.1893V27.1176ZM41.2482 27.1176H42.1893V28.0588H41.2482V27.1176ZM41.2482 28.0588H42.1893V29H41.2482V28.0588ZM40.307 28.0588H41.2482V29H40.307V28.0588ZM40.307 29H41.2482V29.9412H40.307V29ZM39.3658 29H40.307V29.9412H39.3658V29ZM39.3658 29.9412H40.307V30.8824H39.3658V29.9412ZM38.4246 29.9412H39.3658V30.8824H38.4246V29.9412ZM38.4246 30.8824H39.3658V31.8235H38.4246V30.8824ZM37.4835 30.8824H38.4246V31.8235H37.4835V30.8824ZM37.4835 31.8235H38.4246V32.7647H37.4835V31.8235ZM36.5423 31.8235H37.4835V32.7647H36.5423V31.8235ZM36.5423 32.7647H37.4835V33.7059H36.5423V32.7647ZM35.6011 32.7647H36.5423V33.7059H35.6011V32.7647ZM34.6599 32.7647H35.6011V33.7059H34.6599V32.7647ZM34.6599 31.8235H35.6011V32.7647H34.6599V31.8235ZM34.6599 30.8824H35.6011V31.8235H34.6599V30.8824ZM35.6011 30.8824H36.5423V31.8235H35.6011V30.8824ZM35.6011 31.8235H36.5423V32.7647H35.6011V31.8235ZM36.5423 30.8824H37.4835V31.8235H36.5423V30.8824ZM35.6011 29.9412H36.5423V30.8824H35.6011V29.9412ZM36.5423 29.9412H37.4835V30.8824H36.5423V29.9412ZM36.5423 29H37.4835V29.9412H36.5423V29ZM37.4835 29H38.4246V29.9412H37.4835V29ZM38.4246 29H39.3658V29.9412H38.4246V29ZM38.4246 28.0588H39.3658V29H38.4246V28.0588ZM37.4835 28.0588H38.4246V29H37.4835V28.0588ZM37.4835 29.9412H38.4246V30.8824H37.4835V29.9412ZM39.3658 27.1176H40.307V28.0588H39.3658V27.1176ZM38.4246 27.1176H39.3658V28.0588H38.4246V27.1176ZM39.3658 28.0588H40.307V29H39.3658V28.0588ZM40.307 27.1176H41.2482V28.0588H40.307V27.1176ZM40.307 26.1765H41.2482V27.1176H40.307V26.1765ZM41.2482 26.1765H42.1893V27.1176H41.2482V26.1765ZM41.2482 25.2353H42.1893V26.1765H41.2482V25.2353ZM42.1893 25.2353H43.1305V26.1765H42.1893V25.2353ZM42.1893 24.2941H43.1305V25.2353H42.1893V24.2941ZM41.2482 24.2941H42.1893V25.2353H41.2482V24.2941ZM40.307 25.2353H41.2482V26.1765H40.307V25.2353ZM39.3658 25.2353H40.307V26.1765H39.3658V25.2353ZM39.3658 24.2941H40.307V25.2353H39.3658V24.2941ZM38.4246 25.2353H39.3658V26.1765H38.4246V25.2353ZM38.4246 24.2941H39.3658V25.2353H38.4246V24.2941ZM38.4246 23.3529H39.3658V24.2941H38.4246V23.3529ZM37.4835 24.2941H38.4246V25.2353H37.4835V24.2941ZM36.5423 24.2941H37.4835V25.2353H36.5423V24.2941ZM35.6011 24.2941H36.5423V25.2353H35.6011V24.2941ZM37.4835 25.2353H38.4246V26.1765H37.4835V25.2353ZM36.5423 25.2353H37.4835V26.1765H36.5423V25.2353ZM37.4835 26.1765H38.4246V27.1176H37.4835V26.1765ZM38.4246 26.1765H39.3658V27.1176H38.4246V26.1765ZM39.3658 26.1765H40.307V27.1176H39.3658V26.1765ZM56.3162 10.1765H57.2574V11.1176H56.3162V10.1765ZM57.2574 10.1765H58.1985V11.1176H57.2574V10.1765ZM58.1985 10.1765H59.1397V11.1176H58.1985V10.1765ZM59.1397 10.1765H60.0809V11.1176H59.1397V10.1765ZM60.0809 10.1765H61.0221V11.1176H60.0809V10.1765ZM60.0809 11.1176H61.0221V12.0588H60.0809V11.1176ZM60.0809 12.0588H61.0221V13H60.0809V12.0588ZM60.0809 13H61.0221V13.9412H60.0809V13ZM61.0221 12.0588H61.9632V13H61.0221V12.0588ZM61.0221 13H61.9632V13.9412H61.0221V13ZM61.0221 13.9412H61.9632V14.8824H61.0221V13.9412ZM61.0221 14.8824H61.9632V15.8235H61.0221V14.8824ZM61.0221 15.8235H61.9632V16.7647H61.0221V15.8235ZM61.0221 16.7647H61.9632V17.7059H61.0221V16.7647ZM61.0221 17.7059H61.9632V18.6471H61.0221V17.7059ZM60.0809 17.7059H61.0221V18.6471H60.0809V17.7059ZM60.0809 16.7647H61.0221V17.7059H60.0809V16.7647ZM60.0809 15.8235H61.0221V16.7647H60.0809V15.8235ZM60.0809 14.8824H61.0221V15.8235H60.0809V14.8824ZM60.0809 13.9412H61.0221V14.8824H60.0809V13.9412ZM56.3162 28.0588H57.2574V29H56.3162V28.0588ZM57.2574 28.0588H58.1985V29H57.2574V28.0588ZM58.1985 28.0588H59.1397V29H58.1985V28.0588ZM59.1397 27.1176H60.0809V28.0588H59.1397V27.1176ZM59.1397 26.1765H60.0809V27.1176H59.1397V26.1765ZM59.1397 25.2353H60.0809V26.1765H59.1397V25.2353ZM58.1985 25.2353H59.1397V26.1765H58.1985V25.2353ZM58.1985 26.1765H59.1397V27.1176H58.1985V26.1765ZM59.1397 28.0588H60.0809V29H59.1397V28.0588ZM58.1985 27.1176H59.1397V28.0588H58.1985V27.1176ZM57.2574 27.1176H58.1985V28.0588H57.2574V27.1176ZM56.3162 27.1176H57.2574V28.0588H56.3162V27.1176ZM56.3162 26.1765H57.2574V27.1176H56.3162V26.1765ZM56.3162 25.2353H57.2574V26.1765H56.3162V25.2353ZM57.2574 25.2353H58.1985V26.1765H57.2574V25.2353ZM57.2574 26.1765H58.1985V27.1176H57.2574V26.1765ZM57.2574 24.2941H58.1985V25.2353H57.2574V24.2941ZM56.3162 24.2941H57.2574V25.2353H56.3162V24.2941ZM56.3162 23.3529H57.2574V24.2941H56.3162V23.3529ZM56.3162 22.4118H57.2574V23.3529H56.3162V22.4118ZM56.3162 21.4706H57.2574V22.4118H56.3162V21.4706ZM56.3162 20.5294H57.2574V21.4706H56.3162V20.5294ZM56.3162 19.5882H57.2574V20.5294H56.3162V19.5882ZM57.2574 20.5294H58.1985V21.4706H57.2574V20.5294ZM57.2574 19.5882H58.1985V20.5294H57.2574V19.5882ZM58.1985 19.5882H59.1397V20.5294H58.1985V19.5882ZM58.1985 20.5294H59.1397V21.4706H58.1985V20.5294ZM58.1985 21.4706H59.1397V22.4118H58.1985V21.4706ZM59.1397 21.4706H60.0809V22.4118H59.1397V21.4706ZM59.1397 22.4118H60.0809V23.3529H59.1397V22.4118ZM59.1397 23.3529H60.0809V24.2941H59.1397V23.3529ZM59.1397 24.2941H60.0809V25.2353H59.1397V24.2941ZM59.1397 20.5294H60.0809V21.4706H59.1397V20.5294ZM59.1397 19.5882H60.0809V20.5294H59.1397V19.5882ZM57.2574 21.4706H58.1985V22.4118H57.2574V21.4706ZM57.2574 22.4118H58.1985V23.3529H57.2574V22.4118ZM57.2574 23.3529H58.1985V24.2941H57.2574V23.3529ZM58.1985 24.2941H59.1397V25.2353H58.1985V24.2941ZM58.1985 23.3529H59.1397V24.2941H58.1985V23.3529ZM58.1985 22.4118H59.1397V23.3529H58.1985V22.4118ZM59.1397 18.6471H60.0809V19.5882H59.1397V18.6471ZM58.1985 18.6471H59.1397V19.5882H58.1985V18.6471ZM57.2574 18.6471H58.1985V19.5882H57.2574V18.6471ZM56.3162 18.6471H57.2574V19.5882H56.3162V18.6471ZM56.3162 17.7059H57.2574V18.6471H56.3162V17.7059ZM57.2574 17.7059H58.1985V18.6471H57.2574V17.7059ZM58.1985 17.7059H59.1397V18.6471H58.1985V17.7059ZM59.1397 17.7059H60.0809V18.6471H59.1397V17.7059ZM59.1397 16.7647H60.0809V17.7059H59.1397V16.7647ZM59.1397 15.8235H60.0809V16.7647H59.1397V15.8235ZM58.1985 15.8235H59.1397V16.7647H58.1985V15.8235ZM57.2574 15.8235H58.1985V16.7647H57.2574V15.8235ZM57.2574 16.7647H58.1985V17.7059H57.2574V16.7647ZM58.1985 16.7647H59.1397V17.7059H58.1985V16.7647ZM56.3162 16.7647H57.2574V17.7059H56.3162V16.7647ZM61.0221 19.5882H61.9632V20.5294H61.0221V19.5882ZM61.0221 18.6471H61.9632V19.5882H61.0221V18.6471ZM61.9632 13.9412H62.9044V14.8824H61.9632V13.9412ZM61.9632 14.8824H62.9044V15.8235H61.9632V14.8824ZM61.9632 15.8235H62.9044V16.7647H61.9632V15.8235ZM61.9632 16.7647H62.9044V17.7059H61.9632V16.7647ZM61.9632 17.7059H62.9044V18.6471H61.9632V17.7059ZM61.9632 18.6471H62.9044V19.5882H61.9632V18.6471ZM61.9632 19.5882H62.9044V20.5294H61.9632V19.5882ZM61.9632 20.5294H62.9044V21.4706H61.9632V20.5294ZM61.9632 21.4706H62.9044V22.4118H61.9632V21.4706ZM62.9044 21.4706H63.8456V22.4118H62.9044V21.4706ZM62.9044 20.5294H63.8456V21.4706H62.9044V20.5294ZM62.9044 19.5882H63.8456V20.5294H62.9044V19.5882ZM62.9044 18.6471H63.8456V19.5882H62.9044V18.6471ZM62.9044 17.7059H63.8456V18.6471H62.9044V17.7059ZM62.9044 16.7647H63.8456V17.7059H62.9044V16.7647ZM62.9044 15.8235H63.8456V16.7647H62.9044V15.8235ZM62.9044 22.4118H63.8456V23.3529H62.9044V22.4118ZM62.9044 23.3529H63.8456V24.2941H62.9044V23.3529ZM63.8456 23.3529H64.7868V24.2941H63.8456V23.3529ZM63.8456 22.4118H64.7868V23.3529H63.8456V22.4118ZM63.8456 21.4706H64.7868V22.4118H63.8456V21.4706ZM63.8456 20.5294H64.7868V21.4706H63.8456V20.5294ZM63.8456 19.5882H64.7868V20.5294H63.8456V19.5882ZM63.8456 18.6471H64.7868V19.5882H63.8456V18.6471ZM63.8456 17.7059H64.7868V18.6471H63.8456V17.7059ZM63.8456 24.2941H64.7868V25.2353H63.8456V24.2941ZM63.8456 25.2353H64.7868V26.1765H63.8456V25.2353ZM64.7868 25.2353H65.7279V26.1765H64.7868V25.2353ZM64.7868 24.2941H65.7279V25.2353H64.7868V24.2941ZM64.7868 23.3529H65.7279V24.2941H64.7868V23.3529ZM64.7868 22.4118H65.7279V23.3529H64.7868V22.4118ZM64.7868 21.4706H65.7279V22.4118H64.7868V21.4706ZM64.7868 20.5294H65.7279V21.4706H64.7868V20.5294ZM64.7868 19.5882H65.7279V20.5294H64.7868V19.5882ZM64.7868 26.1765H65.7279V27.1176H64.7868V26.1765ZM64.7868 27.1176H65.7279V28.0588H64.7868V27.1176ZM65.7279 27.1176H66.6691V28.0588H65.7279V27.1176ZM65.7279 26.1765H66.6691V27.1176H65.7279V26.1765ZM65.7279 25.2353H66.6691V26.1765H65.7279V25.2353ZM65.7279 24.2941H66.6691V25.2353H65.7279V24.2941ZM65.7279 23.3529H66.6691V24.2941H65.7279V23.3529ZM65.7279 22.4118H66.6691V23.3529H65.7279V22.4118ZM65.7279 21.4706H66.6691V22.4118H65.7279V21.4706ZM65.7279 28.0588H66.6691V29H65.7279V28.0588ZM56.3162 11.1176H57.2574V12.0588H56.3162V11.1176ZM56.3162 12.0588H57.2574V13H56.3162V12.0588ZM56.3162 13H57.2574V13.9412H56.3162V13ZM56.3162 13.9412H57.2574V14.8824H56.3162V13.9412ZM56.3162 14.8824H57.2574V15.8235H56.3162V14.8824ZM56.3162 15.8235H57.2574V16.7647H56.3162V15.8235ZM58.1985 14.8824H59.1397V15.8235H58.1985V14.8824ZM59.1397 14.8824H60.0809V15.8235H59.1397V14.8824ZM59.1397 13.9412H60.0809V14.8824H59.1397V13.9412ZM59.1397 13H60.0809V13.9412H59.1397V13ZM59.1397 12.0588H60.0809V13H59.1397V12.0588ZM58.1985 12.0588H59.1397V13H58.1985V12.0588ZM58.1985 11.1176H59.1397V12.0588H58.1985V11.1176ZM57.2574 11.1176H58.1985V12.0588H57.2574V11.1176ZM57.2574 12.0588H58.1985V13H57.2574V12.0588ZM57.2574 13H58.1985V13.9412H57.2574V13ZM57.2574 13.9412H58.1985V14.8824H57.2574V13.9412ZM57.2574 14.8824H58.1985V15.8235H57.2574V14.8824ZM58.1985 13.9412H59.1397V14.8824H58.1985V13.9412ZM58.1985 13H59.1397V13.9412H58.1985V13ZM59.1397 11.1176H60.0809V12.0588H59.1397V11.1176ZM66.6691 10.1765H67.6103V11.1176H66.6691V10.1765ZM67.6103 10.1765H68.5515V11.1176H67.6103V10.1765ZM68.5515 10.1765H69.4926V11.1176H68.5515V10.1765ZM69.4926 10.1765H70.4338V11.1176H69.4926V10.1765ZM67.6103 11.1176H68.5515V12.0588H67.6103V11.1176ZM66.6691 11.1176H67.6103V12.0588H66.6691V11.1176ZM66.6691 12.0588H67.6103V13H66.6691V12.0588ZM66.6691 13H67.6103V13.9412H66.6691V13ZM66.6691 13.9412H67.6103V14.8824H66.6691V13.9412ZM66.6691 14.8824H67.6103V15.8235H66.6691V14.8824ZM66.6691 15.8235H67.6103V16.7647H66.6691V15.8235ZM67.6103 15.8235H68.5515V16.7647H67.6103V15.8235ZM67.6103 16.7647H68.5515V17.7059H67.6103V16.7647ZM67.6103 17.7059H68.5515V18.6471H67.6103V17.7059ZM67.6103 18.6471H68.5515V19.5882H67.6103V18.6471ZM67.6103 19.5882H68.5515V20.5294H67.6103V19.5882ZM67.6103 20.5294H68.5515V21.4706H67.6103V20.5294ZM67.6103 21.4706H68.5515V22.4118H67.6103V21.4706ZM66.6691 18.6471H67.6103V19.5882H66.6691V18.6471ZM66.6691 17.7059H67.6103V18.6471H66.6691V17.7059ZM66.6691 16.7647H67.6103V17.7059H66.6691V16.7647ZM66.6691 19.5882H67.6103V20.5294H66.6691V19.5882ZM66.6691 20.5294H67.6103V21.4706H66.6691V20.5294ZM66.6691 21.4706H67.6103V22.4118H66.6691V21.4706ZM66.6691 22.4118H67.6103V23.3529H66.6691V22.4118ZM66.6691 23.3529H67.6103V24.2941H66.6691V23.3529ZM66.6691 24.2941H67.6103V25.2353H66.6691V24.2941ZM66.6691 25.2353H67.6103V26.1765H66.6691V25.2353ZM66.6691 26.1765H67.6103V27.1176H66.6691V26.1765ZM66.6691 27.1176H67.6103V28.0588H66.6691V27.1176ZM66.6691 28.0588H67.6103V29H66.6691V28.0588ZM67.6103 28.0588H68.5515V29H67.6103V28.0588ZM68.5515 28.0588H69.4926V29H68.5515V28.0588ZM69.4926 28.0588H70.4338V29H69.4926V28.0588ZM69.4926 27.1176H70.4338V28.0588H69.4926V27.1176ZM69.4926 26.1765H70.4338V27.1176H69.4926V26.1765ZM68.5515 26.1765H69.4926V27.1176H68.5515V26.1765ZM68.5515 25.2353H69.4926V26.1765H68.5515V25.2353ZM68.5515 24.2941H69.4926V25.2353H68.5515V24.2941ZM67.6103 23.3529H68.5515V24.2941H67.6103V23.3529ZM67.6103 24.2941H68.5515V25.2353H67.6103V24.2941ZM67.6103 25.2353H68.5515V26.1765H67.6103V25.2353ZM67.6103 26.1765H68.5515V27.1176H67.6103V26.1765ZM67.6103 27.1176H68.5515V28.0588H67.6103V27.1176ZM68.5515 27.1176H69.4926V28.0588H68.5515V27.1176ZM69.4926 25.2353H70.4338V26.1765H69.4926V25.2353ZM68.5515 23.3529H69.4926V24.2941H68.5515V23.3529ZM67.6103 22.4118H68.5515V23.3529H67.6103V22.4118ZM69.4926 11.1176H70.4338V12.0588H69.4926V11.1176ZM69.4926 12.0588H70.4338V13H69.4926V12.0588ZM69.4926 13H70.4338V13.9412H69.4926V13ZM69.4926 13.9412H70.4338V14.8824H69.4926V13.9412ZM69.4926 14.8824H70.4338V15.8235H69.4926V14.8824ZM69.4926 15.8235H70.4338V16.7647H69.4926V15.8235ZM69.4926 16.7647H70.4338V17.7059H69.4926V16.7647ZM69.4926 17.7059H70.4338V18.6471H69.4926V17.7059ZM69.4926 18.6471H70.4338V19.5882H69.4926V18.6471ZM69.4926 19.5882H70.4338V20.5294H69.4926V19.5882ZM69.4926 20.5294H70.4338V21.4706H69.4926V20.5294ZM69.4926 21.4706H70.4338V22.4118H69.4926V21.4706ZM69.4926 22.4118H70.4338V23.3529H69.4926V22.4118ZM69.4926 23.3529H70.4338V24.2941H69.4926V23.3529ZM69.4926 24.2941H70.4338V25.2353H69.4926V24.2941ZM68.5515 22.4118H69.4926V23.3529H68.5515V22.4118ZM68.5515 21.4706H69.4926V22.4118H68.5515V21.4706ZM68.5515 20.5294H69.4926V21.4706H68.5515V20.5294ZM68.5515 19.5882H69.4926V20.5294H68.5515V19.5882ZM68.5515 18.6471H69.4926V19.5882H68.5515V18.6471ZM68.5515 17.7059H69.4926V18.6471H68.5515V17.7059ZM68.5515 16.7647H69.4926V17.7059H68.5515V16.7647ZM68.5515 15.8235H69.4926V16.7647H68.5515V15.8235ZM68.5515 14.8824H69.4926V15.8235H68.5515V14.8824ZM68.5515 13.9412H69.4926V14.8824H68.5515V13.9412ZM68.5515 13H69.4926V13.9412H68.5515V13ZM68.5515 12.0588H69.4926V13H68.5515V12.0588ZM68.5515 11.1176H69.4926V12.0588H68.5515V11.1176ZM67.6103 12.0588H68.5515V13H67.6103V12.0588ZM67.6103 13H68.5515V13.9412H67.6103V13ZM67.6103 13.9412H68.5515V14.8824H67.6103V13.9412ZM67.6103 14.8824H68.5515V15.8235H67.6103V14.8824ZM77.0184 14.8824H77.9596V15.8235H77.0184V14.8824ZM77.9596 14.8824H78.9007V15.8235H77.9596V14.8824ZM76.0772 14.8824H77.0184V15.8235H76.0772V14.8824ZM78.9007 14.8824H79.8419V15.8235H78.9007V14.8824ZM79.8419 14.8824H80.7831V15.8235H79.8419V14.8824ZM80.7831 14.8824H81.7243V15.8235H80.7831V14.8824ZM81.7243 14.8824H82.6654V15.8235H81.7243V14.8824ZM82.6654 15.8235H83.6066V16.7647H82.6654V15.8235ZM81.7243 15.8235H82.6654V16.7647H81.7243V15.8235ZM81.7243 16.7647H82.6654V17.7059H81.7243V16.7647ZM83.6066 15.8235H84.5478V16.7647H83.6066V15.8235ZM83.6066 16.7647H84.5478V17.7059H83.6066V16.7647ZM82.6654 16.7647H83.6066V17.7059H82.6654V16.7647ZM81.7243 17.7059H82.6654V18.6471H81.7243V17.7059ZM80.7831 17.7059H81.7243V18.6471H80.7831V17.7059ZM82.6654 17.7059H83.6066V18.6471H82.6654V17.7059ZM83.6066 17.7059H84.5478V18.6471H83.6066V17.7059ZM84.5478 17.7059H85.489V18.6471H84.5478V17.7059ZM84.5478 18.6471H85.489V19.5882H84.5478V18.6471ZM84.5478 19.5882H85.489V20.5294H84.5478V19.5882ZM84.5478 20.5294H85.489V21.4706H84.5478V20.5294ZM84.5478 21.4706H85.489V22.4118H84.5478V21.4706ZM84.5478 22.4118H85.489V23.3529H84.5478V22.4118ZM84.5478 23.3529H85.489V24.2941H84.5478V23.3529ZM84.5478 24.2941H85.489V25.2353H84.5478V24.2941ZM84.5478 25.2353H85.489V26.1765H84.5478V25.2353ZM83.6066 25.2353H84.5478V26.1765H83.6066V25.2353ZM83.6066 26.1765H84.5478V27.1176H83.6066V26.1765ZM83.6066 27.1176H84.5478V28.0588H83.6066V27.1176ZM82.6654 27.1176H83.6066V28.0588H82.6654V27.1176ZM81.7243 27.1176H82.6654V28.0588H81.7243V27.1176ZM80.7831 26.1765H81.7243V27.1176H80.7831V26.1765ZM80.7831 25.2353H81.7243V26.1765H80.7831V25.2353ZM81.7243 25.2353H82.6654V26.1765H81.7243V25.2353ZM81.7243 26.1765H82.6654V27.1176H81.7243V26.1765ZM82.6654 26.1765H83.6066V27.1176H82.6654V26.1765ZM82.6654 25.2353H83.6066V26.1765H82.6654V25.2353ZM82.6654 24.2941H83.6066V25.2353H82.6654V24.2941ZM81.7243 24.2941H82.6654V25.2353H81.7243V24.2941ZM81.7243 23.3529H82.6654V24.2941H81.7243V23.3529ZM81.7243 22.4118H82.6654V23.3529H81.7243V22.4118ZM81.7243 21.4706H82.6654V22.4118H81.7243V21.4706ZM81.7243 20.5294H82.6654V21.4706H81.7243V20.5294ZM81.7243 19.5882H82.6654V20.5294H81.7243V19.5882ZM81.7243 18.6471H82.6654V19.5882H81.7243V18.6471ZM82.6654 18.6471H83.6066V19.5882H82.6654V18.6471ZM82.6654 19.5882H83.6066V20.5294H82.6654V19.5882ZM82.6654 20.5294H83.6066V21.4706H82.6654V20.5294ZM82.6654 21.4706H83.6066V22.4118H82.6654V21.4706ZM82.6654 22.4118H83.6066V23.3529H82.6654V22.4118ZM82.6654 23.3529H83.6066V24.2941H82.6654V23.3529ZM83.6066 24.2941H84.5478V25.2353H83.6066V24.2941ZM83.6066 23.3529H84.5478V24.2941H83.6066V23.3529ZM83.6066 22.4118H84.5478V23.3529H83.6066V22.4118ZM83.6066 21.4706H84.5478V22.4118H83.6066V21.4706ZM83.6066 20.5294H84.5478V21.4706H83.6066V20.5294ZM83.6066 19.5882H84.5478V20.5294H83.6066V19.5882ZM83.6066 18.6471H84.5478V19.5882H83.6066V18.6471ZM80.7831 27.1176H81.7243V28.0588H80.7831V27.1176ZM80.7831 28.0588H81.7243V29H80.7831V28.0588ZM81.7243 28.0588H82.6654V29H81.7243V28.0588ZM79.8419 28.0588H80.7831V29H79.8419V28.0588ZM78.9007 28.0588H79.8419V29H78.9007V28.0588ZM77.9596 28.0588H78.9007V29H77.9596V28.0588ZM77.0184 28.0588H77.9596V29H77.0184V28.0588ZM76.0772 28.0588H77.0184V29H76.0772V28.0588ZM76.0772 27.1176H77.0184V28.0588H76.0772V27.1176ZM75.136 27.1176H76.0772V28.0588H75.136V27.1176ZM74.1949 27.1176H75.136V28.0588H74.1949V27.1176ZM74.1949 26.1765H75.136V27.1176H74.1949V26.1765ZM73.2537 25.2353H74.1949V26.1765H73.2537V25.2353ZM74.1949 25.2353H75.136V26.1765H74.1949V25.2353ZM73.2537 24.2941H74.1949V25.2353H73.2537V24.2941ZM73.2537 23.3529H74.1949V24.2941H73.2537V23.3529ZM73.2537 22.4118H74.1949V23.3529H73.2537V22.4118ZM73.2537 21.4706H74.1949V22.4118H73.2537V21.4706ZM73.2537 20.5294H74.1949V21.4706H73.2537V20.5294ZM73.2537 19.5882H74.1949V20.5294H73.2537V19.5882ZM74.1949 19.5882H75.136V20.5294H74.1949V19.5882ZM74.1949 18.6471H75.136V19.5882H74.1949V18.6471ZM73.2537 18.6471H74.1949V19.5882H73.2537V18.6471ZM73.2537 17.7059H74.1949V18.6471H73.2537V17.7059ZM74.1949 17.7059H75.136V18.6471H74.1949V17.7059ZM74.1949 16.7647H75.136V17.7059H74.1949V16.7647ZM74.1949 15.8235H75.136V16.7647H74.1949V15.8235ZM75.136 15.8235H76.0772V16.7647H75.136V15.8235ZM76.0772 15.8235H77.0184V16.7647H76.0772V15.8235ZM77.0184 15.8235H77.9596V16.7647H77.0184V15.8235ZM77.0184 16.7647H77.9596V17.7059H77.0184V16.7647ZM77.0184 17.7059H77.9596V18.6471H77.0184V17.7059ZM76.0772 17.7059H77.0184V18.6471H76.0772V17.7059ZM75.136 17.7059H76.0772V18.6471H75.136V17.7059ZM76.0772 18.6471H77.0184V19.5882H76.0772V18.6471ZM76.0772 19.5882H77.0184V20.5294H76.0772V19.5882ZM76.0772 20.5294H77.0184V21.4706H76.0772V20.5294ZM76.0772 21.4706H77.0184V22.4118H76.0772V21.4706ZM76.0772 22.4118H77.0184V23.3529H76.0772V22.4118ZM76.0772 23.3529H77.0184V24.2941H76.0772V23.3529ZM76.0772 24.2941H77.0184V25.2353H76.0772V24.2941ZM76.0772 25.2353H77.0184V26.1765H76.0772V25.2353ZM77.0184 25.2353H77.9596V26.1765H77.0184V25.2353ZM77.0184 26.1765H77.9596V27.1176H77.0184V26.1765ZM77.9596 26.1765H78.9007V27.1176H77.9596V26.1765ZM78.9007 26.1765H79.8419V27.1176H78.9007V26.1765ZM79.8419 26.1765H80.7831V27.1176H79.8419V26.1765ZM79.8419 27.1176H80.7831V28.0588H79.8419V27.1176ZM78.9007 27.1176H79.8419V28.0588H78.9007V27.1176ZM77.9596 27.1176H78.9007V28.0588H77.9596V27.1176ZM77.0184 27.1176H77.9596V28.0588H77.0184V27.1176ZM76.0772 26.1765H77.0184V27.1176H76.0772V26.1765ZM75.136 26.1765H76.0772V27.1176H75.136V26.1765ZM75.136 25.2353H76.0772V26.1765H75.136V25.2353ZM75.136 24.2941H76.0772V25.2353H75.136V24.2941ZM75.136 23.3529H76.0772V24.2941H75.136V23.3529ZM74.1949 23.3529H75.136V24.2941H74.1949V23.3529ZM74.1949 24.2941H75.136V25.2353H74.1949V24.2941ZM74.1949 22.4118H75.136V23.3529H74.1949V22.4118ZM74.1949 21.4706H75.136V22.4118H74.1949V21.4706ZM74.1949 20.5294H75.136V21.4706H74.1949V20.5294ZM75.136 20.5294H76.0772V21.4706H75.136V20.5294ZM75.136 21.4706H76.0772V22.4118H75.136V21.4706ZM75.136 22.4118H76.0772V23.3529H75.136V22.4118ZM75.136 19.5882H76.0772V20.5294H75.136V19.5882ZM75.136 18.6471H76.0772V19.5882H75.136V18.6471ZM75.136 16.7647H76.0772V17.7059H75.136V16.7647ZM76.0772 16.7647H77.0184V17.7059H76.0772V16.7647ZM77.9596 15.8235H78.9007V16.7647H77.9596V15.8235ZM78.9007 15.8235H79.8419V16.7647H78.9007V15.8235ZM79.8419 15.8235H80.7831V16.7647H79.8419V15.8235ZM80.7831 15.8235H81.7243V16.7647H80.7831V15.8235ZM80.7831 16.7647H81.7243V17.7059H80.7831V16.7647ZM79.8419 16.7647H80.7831V17.7059H79.8419V16.7647ZM78.9007 16.7647H79.8419V17.7059H78.9007V16.7647ZM77.9596 16.7647H78.9007V17.7059H77.9596V16.7647ZM88.3162 15.8235H89.2574V16.7647H88.3162V15.8235ZM89.2574 15.8235H90.1985V16.7647H89.2574V15.8235ZM90.1985 15.8235H91.1397V16.7647H90.1985V15.8235ZM91.1397 15.8235H92.0809V16.7647H91.1397V15.8235ZM92.0809 15.8235H93.0221V16.7647H92.0809V15.8235ZM93.0221 15.8235H93.9632V16.7647H93.0221V15.8235ZM93.9632 15.8235H94.9044V16.7647H93.9632V15.8235ZM94.9044 15.8235H95.8456V16.7647H94.9044V15.8235ZM95.8456 15.8235H96.7868V16.7647H95.8456V15.8235ZM95.8456 16.7647H96.7868V17.7059H95.8456V16.7647ZM95.8456 17.7059H96.7868V18.6471H95.8456V17.7059ZM94.9044 17.7059H95.8456V18.6471H94.9044V17.7059ZM93.9632 17.7059H94.9044V18.6471H93.9632V17.7059ZM93.0221 17.7059H93.9632V18.6471H93.0221V17.7059ZM92.0809 17.7059H93.0221V18.6471H92.0809V17.7059ZM91.1397 17.7059H92.0809V18.6471H91.1397V17.7059ZM90.1985 17.7059H91.1397V18.6471H90.1985V17.7059ZM89.2574 17.7059H90.1985V18.6471H89.2574V17.7059ZM89.2574 16.7647H90.1985V17.7059H89.2574V16.7647ZM88.3162 16.7647H89.2574V17.7059H88.3162V16.7647ZM88.3162 17.7059H89.2574V18.6471H88.3162V17.7059ZM90.1985 16.7647H91.1397V17.7059H90.1985V16.7647ZM91.1397 16.7647H92.0809V17.7059H91.1397V16.7647ZM92.0809 16.7647H93.0221V17.7059H92.0809V16.7647ZM93.0221 16.7647H93.9632V17.7059H93.0221V16.7647ZM93.9632 16.7647H94.9044V17.7059H93.9632V16.7647ZM94.9044 16.7647H95.8456V17.7059H94.9044V16.7647ZM90.1985 14.8824H91.1397V15.8235H90.1985V14.8824ZM91.1397 14.8824H92.0809V15.8235H91.1397V14.8824ZM92.0809 14.8824H93.0221V15.8235H92.0809V14.8824ZM93.0221 14.8824H93.9632V15.8235H93.0221V14.8824ZM92.0809 13.9412H93.0221V14.8824H92.0809V13.9412ZM91.1397 13.9412H92.0809V14.8824H91.1397V13.9412ZM93.0221 13.9412H93.9632V14.8824H93.0221V13.9412ZM93.0221 12.0588H93.9632V13H93.0221V12.0588ZM93.0221 13H93.9632V13.9412H93.0221V13ZM92.0809 13H93.0221V13.9412H92.0809V13ZM93.0221 11.1176H93.9632V12.0588H93.0221V11.1176ZM92.0809 12.0588H93.0221V13H92.0809V12.0588ZM91.1397 13H92.0809V13.9412H91.1397V13ZM90.1985 13.9412H91.1397V14.8824H90.1985V13.9412ZM90.1985 18.6471H91.1397V19.5882H90.1985V18.6471ZM90.1985 19.5882H91.1397V20.5294H90.1985V19.5882ZM90.1985 20.5294H91.1397V21.4706H90.1985V20.5294ZM90.1985 21.4706H91.1397V22.4118H90.1985V21.4706ZM91.1397 21.4706H92.0809V22.4118H91.1397V21.4706ZM91.1397 22.4118H92.0809V23.3529H91.1397V22.4118ZM92.0809 21.4706H93.0221V22.4118H92.0809V21.4706ZM92.0809 20.5294H93.0221V21.4706H92.0809V20.5294ZM93.0221 20.5294H93.9632V21.4706H93.0221V20.5294ZM93.0221 19.5882H93.9632V20.5294H93.0221V19.5882ZM92.0809 18.6471H93.0221V19.5882H92.0809V18.6471ZM91.1397 18.6471H92.0809V19.5882H91.1397V18.6471ZM91.1397 19.5882H92.0809V20.5294H91.1397V19.5882ZM91.1397 20.5294H92.0809V21.4706H91.1397V20.5294ZM92.0809 19.5882H93.0221V20.5294H92.0809V19.5882ZM93.0221 18.6471H93.9632V19.5882H93.0221V18.6471ZM93.0221 21.4706H93.9632V22.4118H93.0221V21.4706ZM93.0221 22.4118H93.9632V23.3529H93.0221V22.4118ZM92.0809 22.4118H93.0221V23.3529H92.0809V22.4118ZM92.0809 23.3529H93.0221V24.2941H92.0809V23.3529ZM91.1397 23.3529H92.0809V24.2941H91.1397V23.3529ZM90.1985 22.4118H91.1397V23.3529H90.1985V22.4118ZM90.1985 23.3529H91.1397V24.2941H90.1985V23.3529ZM93.0221 23.3529H93.9632V24.2941H93.0221V23.3529ZM90.1985 24.2941H91.1397V25.2353H90.1985V24.2941ZM91.1397 24.2941H92.0809V25.2353H91.1397V24.2941ZM91.1397 25.2353H92.0809V26.1765H91.1397V25.2353ZM92.0809 25.2353H93.0221V26.1765H92.0809V25.2353ZM93.0221 25.2353H93.9632V26.1765H93.0221V25.2353ZM93.0221 24.2941H93.9632V25.2353H93.0221V24.2941ZM92.0809 24.2941H93.0221V25.2353H92.0809V24.2941ZM90.1985 25.2353H91.1397V26.1765H90.1985V25.2353ZM93.0221 26.1765H93.9632V27.1176H93.0221V26.1765ZM93.9632 26.1765H94.9044V27.1176H93.9632V26.1765ZM93.9632 25.2353H94.9044V26.1765H93.9632V25.2353ZM92.0809 26.1765H93.0221V27.1176H92.0809V26.1765ZM91.1397 26.1765H92.0809V27.1176H91.1397V26.1765ZM91.1397 27.1176H92.0809V28.0588H91.1397V27.1176ZM92.0809 27.1176H93.0221V28.0588H92.0809V27.1176ZM93.0221 27.1176H93.9632V28.0588H93.0221V27.1176ZM93.9632 27.1176H94.9044V28.0588H93.9632V27.1176ZM94.9044 27.1176H95.8456V28.0588H94.9044V27.1176ZM94.9044 26.1765H95.8456V27.1176H94.9044V26.1765ZM95.8456 26.1765H96.7868V27.1176H95.8456V26.1765ZM95.8456 27.1176H96.7868V28.0588H95.8456V27.1176ZM94.9044 28.0588H95.8456V29H94.9044V28.0588ZM93.9632 28.0588H94.9044V29H93.9632V28.0588ZM93.0221 28.0588H93.9632V29H93.0221V28.0588ZM95.8456 28.0588H96.7868V29H95.8456V28.0588ZM103.362 14.8824H104.303V15.8235H103.362V14.8824ZM104.303 14.8824H105.244V15.8235H104.303V14.8824ZM102.421 14.8824H103.362V15.8235H102.421V14.8824ZM105.244 14.8824H106.186V15.8235H105.244V14.8824ZM106.186 14.8824H107.127V15.8235H106.186V14.8824ZM107.127 14.8824H108.068V15.8235H107.127V14.8824ZM108.068 14.8824H109.009V15.8235H108.068V14.8824ZM109.009 15.8235H109.95V16.7647H109.009V15.8235ZM108.068 15.8235H109.009V16.7647H108.068V15.8235ZM108.068 16.7647H109.009V17.7059H108.068V16.7647ZM109.95 15.8235H110.892V16.7647H109.95V15.8235ZM109.95 16.7647H110.892V17.7059H109.95V16.7647ZM109.009 16.7647H109.95V17.7059H109.009V16.7647ZM108.068 17.7059H109.009V18.6471H108.068V17.7059ZM107.127 17.7059H108.068V18.6471H107.127V17.7059ZM109.009 17.7059H109.95V18.6471H109.009V17.7059ZM109.95 17.7059H110.892V18.6471H109.95V17.7059ZM110.892 17.7059H111.833V18.6471H110.892V17.7059ZM110.892 18.6471H111.833V19.5882H110.892V18.6471ZM110.892 24.2941H111.833V25.2353H110.892V24.2941ZM110.892 25.2353H111.833V26.1765H110.892V25.2353ZM109.95 25.2353H110.892V26.1765H109.95V25.2353ZM109.95 26.1765H110.892V27.1176H109.95V26.1765ZM109.95 27.1176H110.892V28.0588H109.95V27.1176ZM109.009 27.1176H109.95V28.0588H109.009V27.1176ZM108.068 27.1176H109.009V28.0588H108.068V27.1176ZM107.127 26.1765H108.068V27.1176H107.127V26.1765ZM107.127 25.2353H108.068V26.1765H107.127V25.2353ZM108.068 25.2353H109.009V26.1765H108.068V25.2353ZM108.068 26.1765H109.009V27.1176H108.068V26.1765ZM109.009 26.1765H109.95V27.1176H109.009V26.1765ZM109.009 25.2353H109.95V26.1765H109.009V25.2353ZM109.009 24.2941H109.95V25.2353H109.009V24.2941ZM108.068 24.2941H109.009V25.2353H108.068V24.2941ZM108.068 18.6471H109.009V19.5882H108.068V18.6471ZM109.009 18.6471H109.95V19.5882H109.009V18.6471ZM109.95 24.2941H110.892V25.2353H109.95V24.2941ZM109.95 18.6471H110.892V19.5882H109.95V18.6471ZM107.127 27.1176H108.068V28.0588H107.127V27.1176ZM107.127 28.0588H108.068V29H107.127V28.0588ZM108.068 28.0588H109.009V29H108.068V28.0588ZM106.186 28.0588H107.127V29H106.186V28.0588ZM105.244 28.0588H106.186V29H105.244V28.0588ZM104.303 28.0588H105.244V29H104.303V28.0588ZM103.362 28.0588H104.303V29H103.362V28.0588ZM102.421 28.0588H103.362V29H102.421V28.0588ZM102.421 27.1176H103.362V28.0588H102.421V27.1176ZM101.48 27.1176H102.421V28.0588H101.48V27.1176ZM100.539 27.1176H101.48V28.0588H100.539V27.1176ZM100.539 26.1765H101.48V27.1176H100.539V26.1765ZM99.5974 25.2353H100.539V26.1765H99.5974V25.2353ZM100.539 25.2353H101.48V26.1765H100.539V25.2353ZM99.5974 24.2941H100.539V25.2353H99.5974V24.2941ZM99.5974 23.3529H100.539V24.2941H99.5974V23.3529ZM99.5974 22.4118H100.539V23.3529H99.5974V22.4118ZM99.5974 21.4706H100.539V22.4118H99.5974V21.4706ZM99.5974 20.5294H100.539V21.4706H99.5974V20.5294ZM99.5974 19.5882H100.539V20.5294H99.5974V19.5882ZM100.539 19.5882H101.48V20.5294H100.539V19.5882ZM100.539 18.6471H101.48V19.5882H100.539V18.6471ZM99.5974 18.6471H100.539V19.5882H99.5974V18.6471ZM99.5974 17.7059H100.539V18.6471H99.5974V17.7059ZM100.539 17.7059H101.48V18.6471H100.539V17.7059ZM100.539 16.7647H101.48V17.7059H100.539V16.7647ZM100.539 15.8235H101.48V16.7647H100.539V15.8235ZM101.48 15.8235H102.421V16.7647H101.48V15.8235ZM102.421 15.8235H103.362V16.7647H102.421V15.8235ZM103.362 15.8235H104.303V16.7647H103.362V15.8235ZM103.362 16.7647H104.303V17.7059H103.362V16.7647ZM103.362 17.7059H104.303V18.6471H103.362V17.7059ZM102.421 17.7059H103.362V18.6471H102.421V17.7059ZM101.48 17.7059H102.421V18.6471H101.48V17.7059ZM102.421 18.6471H103.362V19.5882H102.421V18.6471ZM102.421 19.5882H103.362V20.5294H102.421V19.5882ZM102.421 20.5294H103.362V21.4706H102.421V20.5294ZM102.421 21.4706H103.362V22.4118H102.421V21.4706ZM102.421 22.4118H103.362V23.3529H102.421V22.4118ZM102.421 23.3529H103.362V24.2941H102.421V23.3529ZM102.421 24.2941H103.362V25.2353H102.421V24.2941ZM102.421 25.2353H103.362V26.1765H102.421V25.2353ZM103.362 25.2353H104.303V26.1765H103.362V25.2353ZM103.362 26.1765H104.303V27.1176H103.362V26.1765ZM104.303 26.1765H105.244V27.1176H104.303V26.1765ZM105.244 26.1765H106.186V27.1176H105.244V26.1765ZM106.186 26.1765H107.127V27.1176H106.186V26.1765ZM106.186 27.1176H107.127V28.0588H106.186V27.1176ZM105.244 27.1176H106.186V28.0588H105.244V27.1176ZM104.303 27.1176H105.244V28.0588H104.303V27.1176ZM103.362 27.1176H104.303V28.0588H103.362V27.1176ZM102.421 26.1765H103.362V27.1176H102.421V26.1765ZM101.48 26.1765H102.421V27.1176H101.48V26.1765ZM101.48 25.2353H102.421V26.1765H101.48V25.2353ZM101.48 24.2941H102.421V25.2353H101.48V24.2941ZM101.48 23.3529H102.421V24.2941H101.48V23.3529ZM100.539 23.3529H101.48V24.2941H100.539V23.3529ZM100.539 24.2941H101.48V25.2353H100.539V24.2941ZM100.539 22.4118H101.48V23.3529H100.539V22.4118ZM100.539 21.4706H101.48V22.4118H100.539V21.4706ZM100.539 20.5294H101.48V21.4706H100.539V20.5294ZM101.48 20.5294H102.421V21.4706H101.48V20.5294ZM101.48 21.4706H102.421V22.4118H101.48V21.4706ZM101.48 22.4118H102.421V23.3529H101.48V22.4118ZM101.48 19.5882H102.421V20.5294H101.48V19.5882ZM101.48 18.6471H102.421V19.5882H101.48V18.6471ZM101.48 16.7647H102.421V17.7059H101.48V16.7647ZM102.421 16.7647H103.362V17.7059H102.421V16.7647ZM104.303 15.8235H105.244V16.7647H104.303V15.8235ZM105.244 15.8235H106.186V16.7647H105.244V15.8235ZM106.186 15.8235H107.127V16.7647H106.186V15.8235ZM107.127 15.8235H108.068V16.7647H107.127V15.8235ZM107.127 16.7647H108.068V17.7059H107.127V16.7647ZM106.186 16.7647H107.127V17.7059H106.186V16.7647ZM105.244 16.7647H106.186V17.7059H105.244V16.7647ZM104.303 16.7647H105.244V17.7059H104.303V16.7647ZM110.892 19.5882H111.833V20.5294H110.892V19.5882ZM109.95 19.5882H110.892V20.5294H109.95V19.5882ZM109.009 19.5882H109.95V20.5294H109.009V19.5882ZM108.068 19.5882H109.009V20.5294H108.068V19.5882ZM110.892 20.5294H111.833V21.4706H110.892V20.5294ZM109.95 20.5294H110.892V21.4706H109.95V20.5294ZM109.009 20.5294H109.95V21.4706H109.009V20.5294ZM108.068 20.5294H109.009V21.4706H108.068V20.5294ZM107.127 20.5294H108.068V21.4706H107.127V20.5294ZM106.186 20.5294H107.127V21.4706H106.186V20.5294ZM105.244 20.5294H106.186V21.4706H105.244V20.5294ZM104.303 20.5294H105.244V21.4706H104.303V20.5294ZM103.362 20.5294H104.303V21.4706H103.362V20.5294ZM103.362 21.4706H104.303V22.4118H103.362V21.4706ZM104.303 21.4706H105.244V22.4118H104.303V21.4706ZM105.244 21.4706H106.186V22.4118H105.244V21.4706ZM106.186 21.4706H107.127V22.4118H106.186V21.4706ZM107.127 21.4706H108.068V22.4118H107.127V21.4706ZM108.068 21.4706H109.009V22.4118H108.068V21.4706ZM109.009 21.4706H109.95V22.4118H109.009V21.4706ZM109.95 21.4706H110.892V22.4118H109.95V21.4706ZM110.892 21.4706H111.833V22.4118H110.892V21.4706ZM113.722 10.1765H114.664V11.1176H113.722V10.1765ZM114.664 10.1765H115.605V11.1176H114.664V10.1765ZM115.605 10.1765H116.546V11.1176H115.605V10.1765ZM116.546 10.1765H117.487V11.1176H116.546V10.1765ZM116.546 11.1176H117.487V12.0588H116.546V11.1176ZM116.546 12.0588H117.487V13H116.546V12.0588ZM115.605 12.0588H116.546V13H115.605V12.0588ZM114.664 12.0588H115.605V13H114.664V12.0588ZM114.664 11.1176H115.605V12.0588H114.664V11.1176ZM113.722 11.1176H114.664V12.0588H113.722V11.1176ZM115.605 11.1176H116.546V12.0588H115.605V11.1176ZM113.722 12.0588H114.664V13H113.722V12.0588ZM113.722 13H114.664V13.9412H113.722V13ZM113.722 13.9412H114.664V14.8824H113.722V13.9412ZM114.664 13.9412H115.605V14.8824H114.664V13.9412ZM115.605 13.9412H116.546V14.8824H115.605V13.9412ZM116.546 13.9412H117.487V14.8824H116.546V13.9412ZM116.546 13H117.487V13.9412H116.546V13ZM115.605 13H116.546V13.9412H115.605V13ZM114.664 13H115.605V13.9412H114.664V13ZM113.722 14.8824H114.664V15.8235H113.722V14.8824ZM114.664 14.8824H115.605V15.8235H114.664V14.8824ZM115.605 14.8824H116.546V15.8235H115.605V14.8824ZM113.722 16.7647H114.664V17.7059H113.722V16.7647ZM113.722 15.8235H114.664V16.7647H113.722V15.8235ZM115.605 28.0588H116.546V29H115.605V28.0588ZM114.664 28.0588H115.605V29H114.664V28.0588ZM113.722 27.1176H114.664V28.0588H113.722V27.1176ZM113.722 26.1765H114.664V27.1176H113.722V26.1765ZM113.722 28.0588H114.664V29H113.722V28.0588ZM118.428 14.8824H119.369V15.8235H118.428V14.8824ZM116.546 14.8824H117.487V15.8235H116.546V14.8824ZM119.369 14.8824H120.311V15.8235H119.369V14.8824ZM120.311 14.8824H121.252V15.8235H120.311V14.8824ZM121.252 14.8824H122.193V15.8235H121.252V14.8824ZM122.193 14.8824H123.134V15.8235H122.193V14.8824ZM123.134 15.8235H124.075V16.7647H123.134V15.8235ZM122.193 15.8235H123.134V16.7647H122.193V15.8235ZM122.193 16.7647H123.134V17.7059H122.193V16.7647ZM124.075 15.8235H125.017V16.7647H124.075V15.8235ZM124.075 16.7647H125.017V17.7059H124.075V16.7647ZM123.134 16.7647H124.075V17.7059H123.134V16.7647ZM122.193 17.7059H123.134V18.6471H122.193V17.7059ZM121.252 17.7059H122.193V18.6471H121.252V17.7059ZM123.134 17.7059H124.075V18.6471H123.134V17.7059ZM124.075 17.7059H125.017V18.6471H124.075V17.7059ZM125.017 17.7059H125.958V18.6471H125.017V17.7059ZM125.017 18.6471H125.958V19.5882H125.017V18.6471ZM125.017 19.5882H125.958V20.5294H125.017V19.5882ZM125.017 20.5294H125.958V21.4706H125.017V20.5294ZM125.017 21.4706H125.958V22.4118H125.017V21.4706ZM125.017 22.4118H125.958V23.3529H125.017V22.4118ZM125.017 23.3529H125.958V24.2941H125.017V23.3529ZM125.017 24.2941H125.958V25.2353H125.017V24.2941ZM125.017 25.2353H125.958V26.1765H125.017V25.2353ZM124.075 25.2353H125.017V26.1765H124.075V25.2353ZM124.075 26.1765H125.017V27.1176H124.075V26.1765ZM124.075 27.1176H125.017V28.0588H124.075V27.1176ZM123.134 27.1176H124.075V28.0588H123.134V27.1176ZM122.193 27.1176H123.134V28.0588H122.193V27.1176ZM121.252 26.1765H122.193V27.1176H121.252V26.1765ZM121.252 25.2353H122.193V26.1765H121.252V25.2353ZM122.193 25.2353H123.134V26.1765H122.193V25.2353ZM122.193 26.1765H123.134V27.1176H122.193V26.1765ZM123.134 26.1765H124.075V27.1176H123.134V26.1765ZM123.134 25.2353H124.075V26.1765H123.134V25.2353ZM123.134 24.2941H124.075V25.2353H123.134V24.2941ZM122.193 24.2941H123.134V25.2353H122.193V24.2941ZM122.193 23.3529H123.134V24.2941H122.193V23.3529ZM122.193 22.4118H123.134V23.3529H122.193V22.4118ZM122.193 21.4706H123.134V22.4118H122.193V21.4706ZM122.193 20.5294H123.134V21.4706H122.193V20.5294ZM122.193 19.5882H123.134V20.5294H122.193V19.5882ZM122.193 18.6471H123.134V19.5882H122.193V18.6471ZM123.134 18.6471H124.075V19.5882H123.134V18.6471ZM123.134 19.5882H124.075V20.5294H123.134V19.5882ZM123.134 20.5294H124.075V21.4706H123.134V20.5294ZM123.134 21.4706H124.075V22.4118H123.134V21.4706ZM123.134 22.4118H124.075V23.3529H123.134V22.4118ZM123.134 23.3529H124.075V24.2941H123.134V23.3529ZM124.075 24.2941H125.017V25.2353H124.075V24.2941ZM124.075 23.3529H125.017V24.2941H124.075V23.3529ZM124.075 22.4118H125.017V23.3529H124.075V22.4118ZM124.075 21.4706H125.017V22.4118H124.075V21.4706ZM124.075 20.5294H125.017V21.4706H124.075V20.5294ZM124.075 19.5882H125.017V20.5294H124.075V19.5882ZM124.075 18.6471H125.017V19.5882H124.075V18.6471ZM121.252 27.1176H122.193V28.0588H121.252V27.1176ZM121.252 28.0588H122.193V29H121.252V28.0588ZM122.193 28.0588H123.134V29H122.193V28.0588ZM120.311 28.0588H121.252V29H120.311V28.0588ZM119.369 28.0588H120.311V29H119.369V28.0588ZM118.428 28.0588H119.369V29H118.428V28.0588ZM117.487 28.0588H118.428V29H117.487V28.0588ZM116.546 28.0588H117.487V29H116.546V28.0588ZM116.546 27.1176H117.487V28.0588H116.546V27.1176ZM115.605 27.1176H116.546V28.0588H115.605V27.1176ZM114.664 27.1176H115.605V28.0588H114.664V27.1176ZM114.664 19.5882H115.605V20.5294H114.664V19.5882ZM114.664 18.6471H115.605V19.5882H114.664V18.6471ZM113.722 17.7059H114.664V18.6471H113.722V17.7059ZM114.664 16.7647H115.605V17.7059H114.664V16.7647ZM115.605 15.8235H116.546V16.7647H115.605V15.8235ZM116.546 15.8235H117.487V16.7647H116.546V15.8235ZM117.487 15.8235H118.428V16.7647H117.487V15.8235ZM117.487 16.7647H118.428V17.7059H117.487V16.7647ZM117.487 17.7059H118.428V18.6471H117.487V17.7059ZM116.546 17.7059H117.487V18.6471H116.546V17.7059ZM115.605 17.7059H116.546V18.6471H115.605V17.7059ZM116.546 18.6471H117.487V19.5882H116.546V18.6471ZM116.546 19.5882H117.487V20.5294H116.546V19.5882ZM116.546 20.5294H117.487V21.4706H116.546V20.5294ZM117.487 26.1765H118.428V27.1176H117.487V26.1765ZM118.428 26.1765H119.369V27.1176H118.428V26.1765ZM119.369 26.1765H120.311V27.1176H119.369V26.1765ZM120.311 26.1765H121.252V27.1176H120.311V26.1765ZM120.311 27.1176H121.252V28.0588H120.311V27.1176ZM119.369 27.1176H120.311V28.0588H119.369V27.1176ZM118.428 27.1176H119.369V28.0588H118.428V27.1176ZM117.487 27.1176H118.428V28.0588H117.487V27.1176ZM116.546 26.1765H117.487V27.1176H116.546V26.1765ZM115.605 26.1765H116.546V27.1176H115.605V26.1765ZM115.605 19.5882H116.546V20.5294H115.605V19.5882ZM115.605 18.6471H116.546V19.5882H115.605V18.6471ZM115.605 16.7647H116.546V17.7059H115.605V16.7647ZM116.546 16.7647H117.487V17.7059H116.546V16.7647ZM118.428 15.8235H119.369V16.7647H118.428V15.8235ZM119.369 15.8235H120.311V16.7647H119.369V15.8235ZM120.311 15.8235H121.252V16.7647H120.311V15.8235ZM121.252 15.8235H122.193V16.7647H121.252V15.8235ZM121.252 16.7647H122.193V17.7059H121.252V16.7647ZM120.311 16.7647H121.252V17.7059H120.311V16.7647ZM119.369 16.7647H120.311V17.7059H119.369V16.7647ZM118.428 16.7647H119.369V17.7059H118.428V16.7647ZM114.664 15.8235H115.605V16.7647H114.664V15.8235ZM114.664 26.1765H115.605V27.1176H114.664V26.1765ZM114.664 17.7059H115.605V18.6471H114.664V17.7059ZM113.722 18.6471H114.664V19.5882H113.722V18.6471ZM113.722 19.5882H114.664V20.5294H113.722V19.5882ZM113.722 25.2353H114.664V26.1765H113.722V25.2353ZM114.664 25.2353H115.605V26.1765H114.664V25.2353ZM115.605 25.2353H116.546V26.1765H115.605V25.2353ZM116.546 25.2353H117.487V26.1765H116.546V25.2353ZM115.605 20.5294H116.546V21.4706H115.605V20.5294ZM114.664 20.5294H115.605V21.4706H114.664V20.5294ZM113.722 20.5294H114.664V21.4706H113.722V20.5294ZM113.722 21.4706H114.664V22.4118H113.722V21.4706ZM113.722 22.4118H114.664V23.3529H113.722V22.4118ZM113.722 23.3529H114.664V24.2941H113.722V23.3529ZM114.664 23.3529H115.605V24.2941H114.664V23.3529ZM114.664 24.2941H115.605V25.2353H114.664V24.2941ZM115.605 24.2941H116.546V25.2353H115.605V24.2941ZM113.722 24.2941H114.664V25.2353H113.722V24.2941ZM116.546 24.2941H117.487V25.2353H116.546V24.2941ZM116.546 23.3529H117.487V24.2941H116.546V23.3529ZM116.546 22.4118H117.487V23.3529H116.546V22.4118ZM116.546 21.4706H117.487V22.4118H116.546V21.4706ZM115.605 21.4706H116.546V22.4118H115.605V21.4706ZM114.664 21.4706H115.605V22.4118H114.664V21.4706ZM114.664 22.4118H115.605V23.3529H114.664V22.4118ZM115.605 23.3529H116.546V24.2941H115.605V23.3529ZM115.605 22.4118H116.546V23.3529H115.605V22.4118ZM132.55 14.8824H133.491V15.8235H132.55V14.8824ZM133.491 14.8824H134.432V15.8235H133.491V14.8824ZM131.608 14.8824H132.55V15.8235H131.608V14.8824ZM134.432 14.8824H135.373V15.8235H134.432V14.8824ZM135.373 14.8824H136.314V15.8235H135.373V14.8824ZM136.314 14.8824H137.256V15.8235H136.314V14.8824ZM137.256 14.8824H138.197V15.8235H137.256V14.8824ZM138.197 15.8235H139.138V16.7647H138.197V15.8235ZM137.256 15.8235H138.197V16.7647H137.256V15.8235ZM137.256 16.7647H138.197V17.7059H137.256V16.7647ZM139.138 15.8235H140.079V16.7647H139.138V15.8235ZM139.138 16.7647H140.079V17.7059H139.138V16.7647ZM138.197 16.7647H139.138V17.7059H138.197V16.7647ZM137.256 17.7059H138.197V18.6471H137.256V17.7059ZM136.314 17.7059H137.256V18.6471H136.314V17.7059ZM138.197 17.7059H139.138V18.6471H138.197V17.7059ZM139.138 17.7059H140.079V18.6471H139.138V17.7059ZM140.079 17.7059H141.02V18.6471H140.079V17.7059ZM140.079 18.6471H141.02V19.5882H140.079V18.6471ZM140.079 19.5882H141.02V20.5294H140.079V19.5882ZM140.079 20.5294H141.02V21.4706H140.079V20.5294ZM140.079 21.4706H141.02V22.4118H140.079V21.4706ZM140.079 22.4118H141.02V23.3529H140.079V22.4118ZM140.079 23.3529H141.02V24.2941H140.079V23.3529ZM140.079 24.2941H141.02V25.2353H140.079V24.2941ZM140.079 25.2353H141.02V26.1765H140.079V25.2353ZM139.138 25.2353H140.079V26.1765H139.138V25.2353ZM139.138 26.1765H140.079V27.1176H139.138V26.1765ZM139.138 27.1176H140.079V28.0588H139.138V27.1176ZM138.197 27.1176H139.138V28.0588H138.197V27.1176ZM137.256 27.1176H138.197V28.0588H137.256V27.1176ZM136.314 26.1765H137.256V27.1176H136.314V26.1765ZM136.314 25.2353H137.256V26.1765H136.314V25.2353ZM137.256 25.2353H138.197V26.1765H137.256V25.2353ZM137.256 26.1765H138.197V27.1176H137.256V26.1765ZM138.197 26.1765H139.138V27.1176H138.197V26.1765ZM138.197 25.2353H139.138V26.1765H138.197V25.2353ZM138.197 24.2941H139.138V25.2353H138.197V24.2941ZM137.256 24.2941H138.197V25.2353H137.256V24.2941ZM137.256 23.3529H138.197V24.2941H137.256V23.3529ZM137.256 22.4118H138.197V23.3529H137.256V22.4118ZM137.256 21.4706H138.197V22.4118H137.256V21.4706ZM137.256 20.5294H138.197V21.4706H137.256V20.5294ZM137.256 19.5882H138.197V20.5294H137.256V19.5882ZM137.256 18.6471H138.197V19.5882H137.256V18.6471ZM138.197 18.6471H139.138V19.5882H138.197V18.6471ZM138.197 19.5882H139.138V20.5294H138.197V19.5882ZM138.197 20.5294H139.138V21.4706H138.197V20.5294ZM138.197 21.4706H139.138V22.4118H138.197V21.4706ZM138.197 22.4118H139.138V23.3529H138.197V22.4118ZM138.197 23.3529H139.138V24.2941H138.197V23.3529ZM139.138 24.2941H140.079V25.2353H139.138V24.2941ZM139.138 23.3529H140.079V24.2941H139.138V23.3529ZM139.138 22.4118H140.079V23.3529H139.138V22.4118ZM139.138 21.4706H140.079V22.4118H139.138V21.4706ZM139.138 20.5294H140.079V21.4706H139.138V20.5294ZM139.138 19.5882H140.079V20.5294H139.138V19.5882ZM139.138 18.6471H140.079V19.5882H139.138V18.6471ZM136.314 27.1176H137.256V28.0588H136.314V27.1176ZM136.314 28.0588H137.256V29H136.314V28.0588ZM137.256 28.0588H138.197V29H137.256V28.0588ZM135.373 28.0588H136.314V29H135.373V28.0588ZM134.432 28.0588H135.373V29H134.432V28.0588ZM133.491 28.0588H134.432V29H133.491V28.0588ZM132.55 28.0588H133.491V29H132.55V28.0588ZM131.608 28.0588H132.55V29H131.608V28.0588ZM131.608 27.1176H132.55V28.0588H131.608V27.1176ZM130.667 27.1176H131.608V28.0588H130.667V27.1176ZM129.726 27.1176H130.667V28.0588H129.726V27.1176ZM129.726 26.1765H130.667V27.1176H129.726V26.1765ZM128.785 25.2353H129.726V26.1765H128.785V25.2353ZM129.726 25.2353H130.667V26.1765H129.726V25.2353ZM128.785 24.2941H129.726V25.2353H128.785V24.2941ZM128.785 23.3529H129.726V24.2941H128.785V23.3529ZM128.785 22.4118H129.726V23.3529H128.785V22.4118ZM128.785 21.4706H129.726V22.4118H128.785V21.4706ZM128.785 20.5294H129.726V21.4706H128.785V20.5294ZM128.785 19.5882H129.726V20.5294H128.785V19.5882ZM129.726 19.5882H130.667V20.5294H129.726V19.5882ZM129.726 18.6471H130.667V19.5882H129.726V18.6471ZM128.785 18.6471H129.726V19.5882H128.785V18.6471ZM128.785 17.7059H129.726V18.6471H128.785V17.7059ZM129.726 17.7059H130.667V18.6471H129.726V17.7059ZM129.726 16.7647H130.667V17.7059H129.726V16.7647ZM129.726 15.8235H130.667V16.7647H129.726V15.8235ZM130.667 15.8235H131.608V16.7647H130.667V15.8235ZM131.608 15.8235H132.55V16.7647H131.608V15.8235ZM132.55 15.8235H133.491V16.7647H132.55V15.8235ZM132.55 16.7647H133.491V17.7059H132.55V16.7647ZM132.55 17.7059H133.491V18.6471H132.55V17.7059ZM131.608 17.7059H132.55V18.6471H131.608V17.7059ZM130.667 17.7059H131.608V18.6471H130.667V17.7059ZM131.608 18.6471H132.55V19.5882H131.608V18.6471ZM131.608 19.5882H132.55V20.5294H131.608V19.5882ZM131.608 20.5294H132.55V21.4706H131.608V20.5294ZM131.608 21.4706H132.55V22.4118H131.608V21.4706ZM131.608 22.4118H132.55V23.3529H131.608V22.4118ZM131.608 23.3529H132.55V24.2941H131.608V23.3529ZM131.608 24.2941H132.55V25.2353H131.608V24.2941ZM131.608 25.2353H132.55V26.1765H131.608V25.2353ZM132.55 25.2353H133.491V26.1765H132.55V25.2353ZM132.55 26.1765H133.491V27.1176H132.55V26.1765ZM133.491 26.1765H134.432V27.1176H133.491V26.1765ZM134.432 26.1765H135.373V27.1176H134.432V26.1765ZM135.373 26.1765H136.314V27.1176H135.373V26.1765ZM135.373 27.1176H136.314V28.0588H135.373V27.1176ZM134.432 27.1176H135.373V28.0588H134.432V27.1176ZM133.491 27.1176H134.432V28.0588H133.491V27.1176ZM132.55 27.1176H133.491V28.0588H132.55V27.1176ZM131.608 26.1765H132.55V27.1176H131.608V26.1765ZM130.667 26.1765H131.608V27.1176H130.667V26.1765ZM130.667 25.2353H131.608V26.1765H130.667V25.2353ZM130.667 24.2941H131.608V25.2353H130.667V24.2941ZM130.667 23.3529H131.608V24.2941H130.667V23.3529ZM129.726 23.3529H130.667V24.2941H129.726V23.3529ZM129.726 24.2941H130.667V25.2353H129.726V24.2941ZM129.726 22.4118H130.667V23.3529H129.726V22.4118ZM129.726 21.4706H130.667V22.4118H129.726V21.4706ZM129.726 20.5294H130.667V21.4706H129.726V20.5294ZM130.667 20.5294H131.608V21.4706H130.667V20.5294ZM130.667 21.4706H131.608V22.4118H130.667V21.4706ZM130.667 22.4118H131.608V23.3529H130.667V22.4118ZM130.667 19.5882H131.608V20.5294H130.667V19.5882ZM130.667 18.6471H131.608V19.5882H130.667V18.6471ZM130.667 16.7647H131.608V17.7059H130.667V16.7647ZM131.608 16.7647H132.55V17.7059H131.608V16.7647ZM133.491 15.8235H134.432V16.7647H133.491V15.8235ZM134.432 15.8235H135.373V16.7647H134.432V15.8235ZM135.373 15.8235H136.314V16.7647H135.373V15.8235ZM136.314 15.8235H137.256V16.7647H136.314V15.8235ZM136.314 16.7647H137.256V17.7059H136.314V16.7647ZM135.373 16.7647H136.314V17.7059H135.373V16.7647ZM134.432 16.7647H135.373V17.7059H134.432V16.7647ZM133.491 16.7647H134.432V17.7059H133.491V16.7647ZM147.612 14.8824H148.553V15.8235H147.612V14.8824ZM148.553 14.8824H149.494V15.8235H148.553V14.8824ZM146.671 14.8824H147.612V15.8235H146.671V14.8824ZM149.494 14.8824H150.436V15.8235H149.494V14.8824ZM150.436 14.8824H151.377V15.8235H150.436V14.8824ZM151.377 14.8824H152.318V15.8235H151.377V14.8824ZM152.318 14.8824H153.259V15.8235H152.318V14.8824ZM153.259 15.8235H154.2V16.7647H153.259V15.8235ZM152.318 15.8235H153.259V16.7647H152.318V15.8235ZM152.318 16.7647H153.259V17.7059H152.318V16.7647ZM154.2 15.8235H155.142V16.7647H154.2V15.8235ZM154.2 16.7647H155.142V17.7059H154.2V16.7647ZM153.259 16.7647H154.2V17.7059H153.259V16.7647ZM152.318 17.7059H153.259V18.6471H152.318V17.7059ZM151.377 17.7059H152.318V18.6471H151.377V17.7059ZM153.259 17.7059H154.2V18.6471H153.259V17.7059ZM154.2 17.7059H155.142V18.6471H154.2V17.7059ZM155.142 17.7059H156.083V18.6471H155.142V17.7059ZM155.142 18.6471H156.083V19.5882H155.142V18.6471ZM155.142 19.5882H156.083V20.5294H155.142V19.5882ZM155.142 20.5294H156.083V21.4706H155.142V20.5294ZM155.142 21.4706H156.083V22.4118H155.142V21.4706ZM155.142 22.4118H156.083V23.3529H155.142V22.4118ZM155.142 23.3529H156.083V24.2941H155.142V23.3529ZM155.142 24.2941H156.083V25.2353H155.142V24.2941ZM155.142 25.2353H156.083V26.1765H155.142V25.2353ZM154.2 25.2353H155.142V26.1765H154.2V25.2353ZM154.2 26.1765H155.142V27.1176H154.2V26.1765ZM154.2 27.1176H155.142V28.0588H154.2V27.1176ZM153.259 27.1176H154.2V28.0588H153.259V27.1176ZM152.318 27.1176H153.259V28.0588H152.318V27.1176ZM151.377 26.1765H152.318V27.1176H151.377V26.1765ZM151.377 25.2353H152.318V26.1765H151.377V25.2353ZM152.318 25.2353H153.259V26.1765H152.318V25.2353ZM152.318 26.1765H153.259V27.1176H152.318V26.1765ZM153.259 26.1765H154.2V27.1176H153.259V26.1765ZM153.259 25.2353H154.2V26.1765H153.259V25.2353ZM153.259 24.2941H154.2V25.2353H153.259V24.2941ZM152.318 24.2941H153.259V25.2353H152.318V24.2941ZM152.318 23.3529H153.259V24.2941H152.318V23.3529ZM152.318 22.4118H153.259V23.3529H152.318V22.4118ZM152.318 21.4706H153.259V22.4118H152.318V21.4706ZM152.318 20.5294H153.259V21.4706H152.318V20.5294ZM152.318 19.5882H153.259V20.5294H152.318V19.5882ZM152.318 18.6471H153.259V19.5882H152.318V18.6471ZM153.259 18.6471H154.2V19.5882H153.259V18.6471ZM153.259 19.5882H154.2V20.5294H153.259V19.5882ZM153.259 20.5294H154.2V21.4706H153.259V20.5294ZM153.259 21.4706H154.2V22.4118H153.259V21.4706ZM153.259 22.4118H154.2V23.3529H153.259V22.4118ZM153.259 23.3529H154.2V24.2941H153.259V23.3529ZM154.2 24.2941H155.142V25.2353H154.2V24.2941ZM154.2 23.3529H155.142V24.2941H154.2V23.3529ZM154.2 22.4118H155.142V23.3529H154.2V22.4118ZM154.2 21.4706H155.142V22.4118H154.2V21.4706ZM154.2 20.5294H155.142V21.4706H154.2V20.5294ZM154.2 19.5882H155.142V20.5294H154.2V19.5882ZM154.2 18.6471H155.142V19.5882H154.2V18.6471ZM151.377 27.1176H152.318V28.0588H151.377V27.1176ZM151.377 28.0588H152.318V29H151.377V28.0588ZM152.318 28.0588H153.259V29H152.318V28.0588ZM150.436 28.0588H151.377V29H150.436V28.0588ZM149.494 28.0588H150.436V29H149.494V28.0588ZM148.553 28.0588H149.494V29H148.553V28.0588ZM147.612 28.0588H148.553V29H147.612V28.0588ZM146.671 28.0588H147.612V29H146.671V28.0588ZM146.671 27.1176H147.612V28.0588H146.671V27.1176ZM145.73 27.1176H146.671V28.0588H145.73V27.1176ZM144.789 27.1176H145.73V28.0588H144.789V27.1176ZM144.789 26.1765H145.73V27.1176H144.789V26.1765ZM143.847 25.2353H144.789V26.1765H143.847V25.2353ZM144.789 25.2353H145.73V26.1765H144.789V25.2353ZM143.847 24.2941H144.789V25.2353H143.847V24.2941ZM143.847 23.3529H144.789V24.2941H143.847V23.3529ZM143.847 22.4118H144.789V23.3529H143.847V22.4118ZM143.847 21.4706H144.789V22.4118H143.847V21.4706ZM143.847 20.5294H144.789V21.4706H143.847V20.5294ZM143.847 19.5882H144.789V20.5294H143.847V19.5882ZM144.789 19.5882H145.73V20.5294H144.789V19.5882ZM144.789 18.6471H145.73V19.5882H144.789V18.6471ZM143.847 18.6471H144.789V19.5882H143.847V18.6471ZM143.847 17.7059H144.789V18.6471H143.847V17.7059ZM144.789 17.7059H145.73V18.6471H144.789V17.7059ZM144.789 16.7647H145.73V17.7059H144.789V16.7647ZM144.789 15.8235H145.73V16.7647H144.789V15.8235ZM145.73 15.8235H146.671V16.7647H145.73V15.8235ZM146.671 15.8235H147.612V16.7647H146.671V15.8235ZM147.612 15.8235H148.553V16.7647H147.612V15.8235ZM147.612 16.7647H148.553V17.7059H147.612V16.7647ZM147.612 17.7059H148.553V18.6471H147.612V17.7059ZM146.671 17.7059H147.612V18.6471H146.671V17.7059ZM145.73 17.7059H146.671V18.6471H145.73V17.7059ZM146.671 18.6471H147.612V19.5882H146.671V18.6471ZM146.671 19.5882H147.612V20.5294H146.671V19.5882ZM146.671 20.5294H147.612V21.4706H146.671V20.5294ZM146.671 21.4706H147.612V22.4118H146.671V21.4706ZM146.671 22.4118H147.612V23.3529H146.671V22.4118ZM146.671 23.3529H147.612V24.2941H146.671V23.3529ZM146.671 24.2941H147.612V25.2353H146.671V24.2941ZM146.671 25.2353H147.612V26.1765H146.671V25.2353ZM147.612 25.2353H148.553V26.1765H147.612V25.2353ZM147.612 26.1765H148.553V27.1176H147.612V26.1765ZM148.553 26.1765H149.494V27.1176H148.553V26.1765ZM149.494 26.1765H150.436V27.1176H149.494V26.1765ZM150.436 26.1765H151.377V27.1176H150.436V26.1765ZM150.436 27.1176H151.377V28.0588H150.436V27.1176ZM149.494 27.1176H150.436V28.0588H149.494V27.1176ZM148.553 27.1176H149.494V28.0588H148.553V27.1176ZM147.612 27.1176H148.553V28.0588H147.612V27.1176ZM146.671 26.1765H147.612V27.1176H146.671V26.1765ZM145.73 26.1765H146.671V27.1176H145.73V26.1765ZM145.73 25.2353H146.671V26.1765H145.73V25.2353ZM145.73 24.2941H146.671V25.2353H145.73V24.2941ZM145.73 23.3529H146.671V24.2941H145.73V23.3529ZM144.789 23.3529H145.73V24.2941H144.789V23.3529ZM144.789 24.2941H145.73V25.2353H144.789V24.2941ZM144.789 22.4118H145.73V23.3529H144.789V22.4118ZM144.789 21.4706H145.73V22.4118H144.789V21.4706ZM144.789 20.5294H145.73V21.4706H144.789V20.5294ZM145.73 20.5294H146.671V21.4706H145.73V20.5294ZM145.73 21.4706H146.671V22.4118H145.73V21.4706ZM145.73 22.4118H146.671V23.3529H145.73V22.4118ZM145.73 19.5882H146.671V20.5294H145.73V19.5882ZM145.73 18.6471H146.671V19.5882H145.73V18.6471ZM145.73 16.7647H146.671V17.7059H145.73V16.7647ZM146.671 16.7647H147.612V17.7059H146.671V16.7647ZM148.553 15.8235H149.494V16.7647H148.553V15.8235ZM149.494 15.8235H150.436V16.7647H149.494V15.8235ZM150.436 15.8235H151.377V16.7647H150.436V15.8235ZM151.377 15.8235H152.318V16.7647H151.377V15.8235ZM151.377 16.7647H152.318V17.7059H151.377V16.7647ZM150.436 16.7647H151.377V17.7059H150.436V16.7647ZM149.494 16.7647H150.436V17.7059H149.494V16.7647ZM148.553 16.7647H149.494V17.7059H148.553V16.7647ZM158.91 10.1765H159.851V11.1176H158.91V10.1765ZM159.851 10.1765H160.792V11.1176H159.851V10.1765ZM160.792 10.1765H161.733V11.1176H160.792V10.1765ZM161.733 10.1765H162.675V11.1176H161.733V10.1765ZM161.733 12.0588H162.675V13H161.733V12.0588ZM161.733 13H162.675V13.9412H161.733V13ZM161.733 11.1176H162.675V12.0588H161.733V11.1176ZM161.733 13.9412H162.675V14.8824H161.733V13.9412ZM160.792 13.9412H161.733V14.8824H160.792V13.9412ZM159.851 13.9412H160.792V14.8824H159.851V13.9412ZM158.91 13.9412H159.851V14.8824H158.91V13.9412ZM158.91 13H159.851V13.9412H158.91V13ZM158.91 12.0588H159.851V13H158.91V12.0588ZM158.91 11.1176H159.851V12.0588H158.91V11.1176ZM159.851 11.1176H160.792V12.0588H159.851V11.1176ZM159.851 12.0588H160.792V13H159.851V12.0588ZM160.792 12.0588H161.733V13H160.792V12.0588ZM160.792 13H161.733V13.9412H160.792V13ZM159.851 13H160.792V13.9412H159.851V13ZM160.792 11.1176H161.733V12.0588H160.792V11.1176ZM165.498 14.8824H166.439V15.8235H165.498V14.8824ZM165.498 15.8235H166.439V16.7647H165.498V15.8235ZM165.498 16.7647H166.439V17.7059H165.498V16.7647ZM165.498 17.7059H166.439V18.6471H165.498V17.7059ZM166.439 17.7059H167.381V18.6471H166.439V17.7059ZM167.381 17.7059H168.322V18.6471H167.381V17.7059ZM168.322 17.7059H169.263V18.6471H168.322V17.7059ZM168.322 16.7647H169.263V17.7059H168.322V16.7647ZM168.322 15.8235H169.263V16.7647H168.322V15.8235ZM168.322 14.8824H169.263V15.8235H168.322V14.8824ZM167.381 14.8824H168.322V15.8235H167.381V14.8824ZM166.439 14.8824H167.381V15.8235H166.439V14.8824ZM166.439 15.8235H167.381V16.7647H166.439V15.8235ZM166.439 16.7647H167.381V17.7059H166.439V16.7647ZM167.381 16.7647H168.322V17.7059H167.381V16.7647ZM167.381 15.8235H168.322V16.7647H167.381V15.8235ZM158.91 14.8824H159.851V15.8235H158.91V14.8824ZM159.851 14.8824H160.792V15.8235H159.851V14.8824ZM160.792 14.8824H161.733V15.8235H160.792V14.8824ZM161.733 14.8824H162.675V15.8235H161.733V14.8824ZM161.733 15.8235H162.675V16.7647H161.733V15.8235ZM161.733 16.7647H162.675V17.7059H161.733V16.7647ZM161.733 17.7059H162.675V18.6471H161.733V17.7059ZM161.733 18.6471H162.675V19.5882H161.733V18.6471ZM161.733 19.5882H162.675V20.5294H161.733V19.5882ZM160.792 19.5882H161.733V20.5294H160.792V19.5882ZM159.851 19.5882H160.792V20.5294H159.851V19.5882ZM159.851 18.6471H160.792V19.5882H159.851V18.6471ZM159.851 17.7059H160.792V18.6471H159.851V17.7059ZM159.851 16.7647H160.792V17.7059H159.851V16.7647ZM159.851 15.8235H160.792V16.7647H159.851V15.8235ZM158.91 15.8235H159.851V16.7647H158.91V15.8235ZM158.91 16.7647H159.851V17.7059H158.91V16.7647ZM158.91 17.7059H159.851V18.6471H158.91V17.7059ZM158.91 18.6471H159.851V19.5882H158.91V18.6471ZM158.91 19.5882H159.851V20.5294H158.91V19.5882ZM160.792 18.6471H161.733V19.5882H160.792V18.6471ZM160.792 17.7059H161.733V18.6471H160.792V17.7059ZM160.792 16.7647H161.733V17.7059H160.792V16.7647ZM160.792 15.8235H161.733V16.7647H160.792V15.8235ZM162.675 19.5882H163.616V20.5294H162.675V19.5882ZM163.616 19.5882H164.557V20.5294H163.616V19.5882ZM163.616 18.6471H164.557V19.5882H163.616V18.6471ZM164.557 18.6471H165.498V19.5882H164.557V18.6471ZM164.557 17.7059H165.498V18.6471H164.557V17.7059ZM168.322 18.6471H169.263V19.5882H168.322V18.6471ZM167.381 18.6471H168.322V19.5882H167.381V18.6471ZM166.439 18.6471H167.381V19.5882H166.439V18.6471ZM165.498 18.6471H166.439V19.5882H165.498V18.6471ZM166.439 19.5882H167.381V20.5294H166.439V19.5882ZM167.381 19.5882H168.322V20.5294H167.381V19.5882ZM166.439 20.5294H167.381V21.4706H166.439V20.5294ZM165.498 20.5294H166.439V21.4706H165.498V20.5294ZM165.498 21.4706H166.439V22.4118H165.498V21.4706ZM164.557 21.4706H165.498V22.4118H164.557V21.4706ZM163.616 21.4706H164.557V22.4118H163.616V21.4706ZM162.675 21.4706H163.616V22.4118H162.675V21.4706ZM161.733 21.4706H162.675V22.4118H161.733V21.4706ZM162.675 20.5294H163.616V21.4706H162.675V20.5294ZM163.616 20.5294H164.557V21.4706H163.616V20.5294ZM164.557 20.5294H165.498V21.4706H164.557V20.5294ZM164.557 19.5882H165.498V20.5294H164.557V19.5882ZM165.498 19.5882H166.439V20.5294H165.498V19.5882ZM168.322 24.2941H169.263V25.2353H168.322V24.2941ZM167.381 24.2941H168.322V25.2353H167.381V24.2941ZM166.439 24.2941H167.381V25.2353H166.439V24.2941ZM165.498 24.2941H166.439V25.2353H165.498V24.2941ZM164.557 24.2941H165.498V25.2353H164.557V24.2941ZM164.557 23.3529H165.498V24.2941H164.557V23.3529ZM163.616 23.3529H164.557V24.2941H163.616V23.3529ZM163.616 22.4118H164.557V23.3529H163.616V22.4118ZM162.675 22.4118H163.616V23.3529H162.675V22.4118ZM164.557 22.4118H165.498V23.3529H164.557V22.4118ZM165.498 22.4118H166.439V23.3529H165.498V22.4118ZM166.439 22.4118H167.381V23.3529H166.439V22.4118ZM166.439 23.3529H167.381V24.2941H166.439V23.3529ZM167.381 23.3529H168.322V24.2941H167.381V23.3529ZM165.498 23.3529H166.439V24.2941H165.498V23.3529ZM168.322 28.0588H169.263V29H168.322V28.0588ZM167.381 28.0588H168.322V29H167.381V28.0588ZM166.439 28.0588H167.381V29H166.439V28.0588ZM165.498 28.0588H166.439V29H165.498V28.0588ZM165.498 27.1176H166.439V28.0588H165.498V27.1176ZM165.498 26.1765H166.439V27.1176H165.498V26.1765ZM165.498 25.2353H166.439V26.1765H165.498V25.2353ZM166.439 25.2353H167.381V26.1765H166.439V25.2353ZM168.322 25.2353H169.263V26.1765H168.322V25.2353ZM168.322 26.1765H169.263V27.1176H168.322V26.1765ZM168.322 27.1176H169.263V28.0588H168.322V27.1176ZM167.381 27.1176H168.322V28.0588H167.381V27.1176ZM167.381 26.1765H168.322V27.1176H167.381V26.1765ZM167.381 25.2353H168.322V26.1765H167.381V25.2353ZM166.439 26.1765H167.381V27.1176H166.439V26.1765ZM166.439 27.1176H167.381V28.0588H166.439V27.1176ZM158.91 28.0588H159.851V29H158.91V28.0588ZM159.851 28.0588H160.792V29H159.851V28.0588ZM160.792 28.0588H161.733V29H160.792V28.0588ZM161.733 28.0588H162.675V29H161.733V28.0588ZM161.733 27.1176H162.675V28.0588H161.733V27.1176ZM161.733 26.1765H162.675V27.1176H161.733V26.1765ZM161.733 25.2353H162.675V26.1765H161.733V25.2353ZM161.733 24.2941H162.675V25.2353H161.733V24.2941ZM161.733 23.3529H162.675V24.2941H161.733V23.3529ZM161.733 22.4118H162.675V23.3529H161.733V22.4118ZM161.733 20.5294H162.675V21.4706H161.733V20.5294ZM160.792 20.5294H161.733V21.4706H160.792V20.5294ZM159.851 20.5294H160.792V21.4706H159.851V20.5294ZM158.91 20.5294H159.851V21.4706H158.91V20.5294ZM158.91 21.4706H159.851V22.4118H158.91V21.4706ZM158.91 22.4118H159.851V23.3529H158.91V22.4118ZM158.91 23.3529H159.851V24.2941H158.91V23.3529ZM159.851 23.3529H160.792V24.2941H159.851V23.3529ZM159.851 24.2941H160.792V25.2353H159.851V24.2941ZM159.851 25.2353H160.792V26.1765H159.851V25.2353ZM159.851 26.1765H160.792V27.1176H159.851V26.1765ZM159.851 27.1176H160.792V28.0588H159.851V27.1176ZM158.91 27.1176H159.851V28.0588H158.91V27.1176ZM158.91 26.1765H159.851V27.1176H158.91V26.1765ZM158.91 25.2353H159.851V26.1765H158.91V25.2353ZM158.91 24.2941H159.851V25.2353H158.91V24.2941ZM159.851 22.4118H160.792V23.3529H159.851V22.4118ZM159.851 21.4706H160.792V22.4118H159.851V21.4706ZM160.792 21.4706H161.733V22.4118H160.792V21.4706ZM160.792 22.4118H161.733V23.3529H160.792V22.4118ZM160.792 23.3529H161.733V24.2941H160.792V23.3529ZM160.792 24.2941H161.733V25.2353H160.792V24.2941ZM160.792 25.2353H161.733V26.1765H160.792V25.2353ZM160.792 26.1765H161.733V27.1176H160.792V26.1765ZM160.792 27.1176H161.733V28.0588H160.792V27.1176Z" fill="#0635F6"/>
</svg>
