<svg width="128" height="39" viewBox="0 0 128 39" fill="none" xmlns="http://www.w3.org/2000/svg">
<rect width="128" height="39" fill="white"/>
<path d="M13.7059 28.0588H14.6471V29H13.7059V28.0588ZM14.6471 28.0588H15.5882V29H14.6471V28.0588ZM15.5882 28.0588H16.5294V29H15.5882V28.0588ZM16.5294 28.0588H17.4706V29H16.5294V28.0588ZM16.5294 27.1176H17.4706V28.0588H16.5294V27.1176ZM15.5882 27.1176H16.5294V28.0588H15.5882V27.1176ZM14.6471 27.1176H15.5882V28.0588H14.6471V27.1176ZM13.7059 27.1176H14.6471V28.0588H13.7059V27.1176ZM13.7059 26.1765H14.6471V27.1176H13.7059V26.1765ZM13.7059 25.2353H14.6471V26.1765H13.7059V25.2353ZM13.7059 24.2941H14.6471V25.2353H13.7059V24.2941ZM13.7059 23.3529H14.6471V24.2941H13.7059V23.3529ZM13.7059 22.4118H14.6471V23.3529H13.7059V22.4118ZM13.7059 21.4706H14.6471V22.4118H13.7059V21.4706ZM13.7059 20.5294H14.6471V21.4706H13.7059V20.5294ZM14.6471 20.5294H15.5882V21.4706H14.6471V20.5294ZM14.6471 19.5882H15.5882V20.5294H14.6471V19.5882ZM14.6471 18.6471H15.5882V19.5882H14.6471V18.6471ZM15.5882 18.6471H16.5294V19.5882H15.5882V18.6471ZM15.5882 19.5882H16.5294V20.5294H15.5882V19.5882ZM16.5294 19.5882H17.4706V20.5294H16.5294V19.5882ZM16.5294 20.5294H17.4706V21.4706H16.5294V20.5294ZM16.5294 21.4706H17.4706V22.4118H16.5294V21.4706ZM16.5294 22.4118H17.4706V23.3529H16.5294V22.4118ZM16.5294 23.3529H17.4706V24.2941H16.5294V23.3529ZM16.5294 24.2941H17.4706V25.2353H16.5294V24.2941ZM16.5294 25.2353H17.4706V26.1765H16.5294V25.2353ZM16.5294 26.1765H17.4706V27.1176H16.5294V26.1765ZM15.5882 26.1765H16.5294V27.1176H15.5882V26.1765ZM15.5882 25.2353H16.5294V26.1765H15.5882V25.2353ZM15.5882 24.2941H16.5294V25.2353H15.5882V24.2941ZM15.5882 23.3529H16.5294V24.2941H15.5882V23.3529ZM15.5882 22.4118H16.5294V23.3529H15.5882V22.4118ZM15.5882 21.4706H16.5294V22.4118H15.5882V21.4706ZM15.5882 20.5294H16.5294V21.4706H15.5882V20.5294ZM14.6471 21.4706H15.5882V22.4118H14.6471V21.4706ZM14.6471 22.4118H15.5882V23.3529H14.6471V22.4118ZM14.6471 23.3529H15.5882V24.2941H14.6471V23.3529ZM14.6471 24.2941H15.5882V25.2353H14.6471V24.2941ZM14.6471 25.2353H15.5882V26.1765H14.6471V25.2353ZM14.6471 26.1765H15.5882V27.1176H14.6471V26.1765ZM13.7059 10.1765H14.6471V11.1176H13.7059V10.1765ZM13.7059 11.1176H14.6471V12.0588H13.7059V11.1176ZM13.7059 13H14.6471V13.9412H13.7059V13ZM13.7059 13.9412H14.6471V14.8824H13.7059V13.9412ZM13.7059 14.8824H14.6471V15.8235H13.7059V14.8824ZM13.7059 15.8235H14.6471V16.7647H13.7059V15.8235ZM13.7059 16.7647H14.6471V17.7059H13.7059V16.7647ZM13.7059 17.7059H14.6471V18.6471H13.7059V17.7059ZM13.7059 18.6471H14.6471V19.5882H13.7059V18.6471ZM13.7059 19.5882H14.6471V20.5294H13.7059V19.5882ZM14.6471 15.8235H15.5882V16.7647H14.6471V15.8235ZM14.6471 14.8824H15.5882V15.8235H14.6471V14.8824ZM14.6471 13.9412H15.5882V14.8824H14.6471V13.9412ZM14.6471 13H15.5882V13.9412H14.6471V13ZM14.6471 12.0588H15.5882V13H14.6471V12.0588ZM13.7059 12.0588H14.6471V13H13.7059V12.0588ZM14.6471 10.1765H15.5882V11.1176H14.6471V10.1765ZM15.5882 10.1765H16.5294V11.1176H15.5882V10.1765ZM15.5882 11.1176H16.5294V12.0588H15.5882V11.1176ZM16.5294 12.0588H17.4706V13H16.5294V12.0588ZM16.5294 11.1176H17.4706V12.0588H16.5294V11.1176ZM16.5294 10.1765H17.4706V11.1176H16.5294V10.1765ZM16.5294 13H17.4706V13.9412H16.5294V13ZM16.5294 13.9412H17.4706V14.8824H16.5294V13.9412ZM16.5294 14.8824H17.4706V15.8235H16.5294V14.8824ZM16.5294 15.8235H17.4706V16.7647H16.5294V15.8235ZM16.5294 16.7647H17.4706V17.7059H16.5294V16.7647ZM16.5294 17.7059H17.4706V18.6471H16.5294V17.7059ZM16.5294 18.6471H17.4706V19.5882H16.5294V18.6471ZM15.5882 17.7059H16.5294V18.6471H15.5882V17.7059ZM15.5882 16.7647H16.5294V17.7059H15.5882V16.7647ZM15.5882 15.8235H16.5294V16.7647H15.5882V15.8235ZM14.6471 16.7647H15.5882V17.7059H14.6471V16.7647ZM14.6471 17.7059H15.5882V18.6471H14.6471V17.7059ZM15.5882 14.8824H16.5294V15.8235H15.5882V14.8824ZM15.5882 12.0588H16.5294V13H15.5882V12.0588ZM15.5882 13H16.5294V13.9412H15.5882V13ZM15.5882 13.9412H16.5294V14.8824H15.5882V13.9412ZM14.6471 11.1176H15.5882V12.0588H14.6471V11.1176ZM17.4706 10.1765H18.4118V11.1176H17.4706V10.1765ZM17.4706 11.1176H18.4118V12.0588H17.4706V11.1176ZM17.4706 12.0588H18.4118V13H17.4706V12.0588ZM17.4706 13H18.4118V13.9412H17.4706V13ZM18.4118 13H19.3529V13.9412H18.4118V13ZM19.3529 13H20.2941V13.9412H19.3529V13ZM20.2941 13H21.2353V13.9412H20.2941V13ZM20.2941 12.0588H21.2353V13H20.2941V12.0588ZM20.2941 11.1176H21.2353V12.0588H20.2941V11.1176ZM20.2941 10.1765H21.2353V11.1176H20.2941V10.1765ZM19.3529 10.1765H20.2941V11.1176H19.3529V10.1765ZM18.4118 10.1765H19.3529V11.1176H18.4118V10.1765ZM18.4118 11.1176H19.3529V12.0588H18.4118V11.1176ZM19.3529 11.1176H20.2941V12.0588H19.3529V11.1176ZM19.3529 12.0588H20.2941V13H19.3529V12.0588ZM18.4118 12.0588H19.3529V13H18.4118V12.0588ZM12.7647 10.1765H13.7059V11.1176H12.7647V10.1765ZM11.8235 10.1765H12.7647V11.1176H11.8235V10.1765ZM10.8824 10.1765H11.8235V11.1176H10.8824V10.1765ZM9.94118 10.1765H10.8824V11.1176H9.94118V10.1765ZM9.94118 11.1176H10.8824V12.0588H9.94118V11.1176ZM9.94118 12.0588H10.8824V13H9.94118V12.0588ZM10.8824 12.0588H11.8235V13H10.8824V12.0588ZM11.8235 13H12.7647V13.9412H11.8235V13ZM10.8824 13H11.8235V13.9412H10.8824V13ZM9.94118 13H10.8824V13.9412H9.94118V13ZM12.7647 13H13.7059V13.9412H12.7647V13ZM12.7647 12.0588H13.7059V13H12.7647V12.0588ZM12.7647 11.1176H13.7059V12.0588H12.7647V11.1176ZM11.8235 11.1176H12.7647V12.0588H11.8235V11.1176ZM11.8235 12.0588H12.7647V13H11.8235V12.0588ZM10.8824 11.1176H11.8235V12.0588H10.8824V11.1176ZM36.3015 29H35.3603V28.0588H36.3015V29ZM35.3603 29H34.4191V28.0588H35.3603V29ZM34.4191 29H33.4779V28.0588H34.4191V29ZM36.3015 27.1176H35.3603V26.1765H36.3015V27.1176ZM36.3015 28.0588H35.3603V27.1176H36.3015V28.0588ZM34.4191 15.8235H33.4779V14.8824H34.4191V15.8235ZM35.3603 15.8235H34.4191V14.8824H35.3603V15.8235ZM36.3015 16.7647H35.3603V15.8235H36.3015V16.7647ZM36.3015 17.7059H35.3603V16.7647H36.3015V17.7059ZM36.3015 15.8235H35.3603V14.8824H36.3015V15.8235ZM31.5956 29H30.6544V28.0588H31.5956V29ZM33.4779 29H32.5368V28.0588H33.4779V29ZM30.6544 29H29.7132V28.0588H30.6544V29ZM29.7132 29H28.7721V28.0588H29.7132V29ZM28.7721 29H27.8309V28.0588H28.7721V29ZM27.8309 29H26.8897V28.0588H27.8309V29ZM26.8897 28.0588H25.9485V27.1176H26.8897V28.0588ZM27.8309 28.0588H26.8897V27.1176H27.8309V28.0588ZM27.8309 27.1176H26.8897V26.1765H27.8309V27.1176ZM25.9485 28.0588H25.0074V27.1176H25.9485V28.0588ZM25.9485 27.1176H25.0074V26.1765H25.9485V27.1176ZM26.8897 27.1176H25.9485V26.1765H26.8897V27.1176ZM27.8309 26.1765H26.8897V25.2353H27.8309V26.1765ZM28.7721 26.1765H27.8309V25.2353H28.7721V26.1765ZM26.8897 26.1765H25.9485V25.2353H26.8897V26.1765ZM25.9485 26.1765H25.0074V25.2353H25.9485V26.1765ZM25.0074 26.1765H24.0662V25.2353H25.0074V26.1765ZM25.0074 25.2353H24.0662V24.2941H25.0074V25.2353ZM25.0074 24.2941H24.0662V23.3529H25.0074V24.2941ZM25.0074 23.3529H24.0662V22.4118H25.0074V23.3529ZM25.0074 22.4118H24.0662V21.4706H25.0074V22.4118ZM25.0074 21.4706H24.0662V20.5294H25.0074V21.4706ZM25.0074 20.5294H24.0662V19.5882H25.0074V20.5294ZM25.0074 19.5882H24.0662V18.6471H25.0074V19.5882ZM25.0074 18.6471H24.0662V17.7059H25.0074V18.6471ZM25.9485 18.6471H25.0074V17.7059H25.9485V18.6471ZM25.9485 17.7059H25.0074V16.7647H25.9485V17.7059ZM25.9485 16.7647H25.0074V15.8235H25.9485V16.7647ZM26.8897 16.7647H25.9485V15.8235H26.8897V16.7647ZM27.8309 16.7647H26.8897V15.8235H27.8309V16.7647ZM27.8309 18.6471H26.8897V17.7059H27.8309V18.6471ZM27.8309 17.7059H26.8897V16.7647H27.8309V17.7059ZM26.8897 17.7059H25.9485V16.7647H26.8897V17.7059ZM26.8897 18.6471H25.9485V17.7059H26.8897V18.6471ZM26.8897 19.5882H25.9485V18.6471H26.8897V19.5882ZM27.8309 19.5882H26.8897V18.6471H27.8309V19.5882ZM27.8309 20.5294H26.8897V19.5882H27.8309V20.5294ZM27.8309 21.4706H26.8897V20.5294H27.8309V21.4706ZM27.8309 22.4118H26.8897V21.4706H27.8309V22.4118ZM27.8309 23.3529H26.8897V22.4118H27.8309V23.3529ZM27.8309 24.2941H26.8897V23.3529H27.8309V24.2941ZM27.8309 25.2353H26.8897V24.2941H27.8309V25.2353ZM26.8897 25.2353H25.9485V24.2941H26.8897V25.2353ZM26.8897 24.2941H25.9485V23.3529H26.8897V24.2941ZM26.8897 23.3529H25.9485V22.4118H26.8897V23.3529ZM26.8897 22.4118H25.9485V21.4706H26.8897V22.4118ZM26.8897 21.4706H25.9485V20.5294H26.8897V21.4706ZM26.8897 20.5294H25.9485V19.5882H26.8897V20.5294ZM25.9485 19.5882H25.0074V18.6471H25.9485V19.5882ZM25.9485 20.5294H25.0074V19.5882H25.9485V20.5294ZM25.9485 21.4706H25.0074V20.5294H25.9485V21.4706ZM25.9485 22.4118H25.0074V21.4706H25.9485V22.4118ZM25.9485 23.3529H25.0074V22.4118H25.9485V23.3529ZM25.9485 24.2941H25.0074V23.3529H25.9485V24.2941ZM25.9485 25.2353H25.0074V24.2941H25.9485V25.2353ZM27.8309 15.8235H26.8897V14.8824H27.8309V15.8235ZM33.4779 15.8235H32.5368V14.8824H33.4779V15.8235ZM33.4779 16.7647H32.5368V15.8235H33.4779V16.7647ZM34.4191 16.7647H33.4779V15.8235H34.4191V16.7647ZM35.3603 16.7647H34.4191V15.8235H35.3603V16.7647ZM35.3603 24.2941H34.4191V23.3529H35.3603V24.2941ZM35.3603 25.2353H34.4191V24.2941H35.3603V25.2353ZM36.3015 26.1765H35.3603V25.2353H36.3015V26.1765ZM35.3603 27.1176H34.4191V26.1765H35.3603V27.1176ZM34.4191 28.0588H33.4779V27.1176H34.4191V28.0588ZM33.4779 28.0588H32.5368V27.1176H33.4779V28.0588ZM32.5368 28.0588H31.5956V27.1176H32.5368V28.0588ZM32.5368 27.1176H31.5956V26.1765H32.5368V27.1176ZM32.5368 26.1765H31.5956V25.2353H32.5368V26.1765ZM33.4779 26.1765H32.5368V25.2353H33.4779V26.1765ZM34.4191 26.1765H33.4779V25.2353H34.4191V26.1765ZM33.4779 25.2353H32.5368V24.2941H33.4779V25.2353ZM33.4779 24.2941H32.5368V23.3529H33.4779V24.2941ZM33.4779 23.3529H32.5368V22.4118H33.4779V23.3529ZM33.4779 17.7059H32.5368V16.7647H33.4779V17.7059ZM34.4191 17.7059H33.4779V16.7647H34.4191V17.7059ZM34.4191 24.2941H33.4779V23.3529H34.4191V24.2941ZM34.4191 25.2353H33.4779V24.2941H34.4191V25.2353ZM34.4191 27.1176H33.4779V26.1765H34.4191V27.1176ZM33.4779 27.1176H32.5368V26.1765H33.4779V27.1176ZM31.5956 28.0588H30.6544V27.1176H31.5956V28.0588ZM30.6544 28.0588H29.7132V27.1176H30.6544V28.0588ZM29.7132 28.0588H28.7721V27.1176H29.7132V28.0588ZM28.7721 28.0588H27.8309V27.1176H28.7721V28.0588ZM28.7721 27.1176H27.8309V26.1765H28.7721V27.1176ZM29.7132 27.1176H28.7721V26.1765H29.7132V27.1176ZM30.6544 27.1176H29.7132V26.1765H30.6544V27.1176ZM31.5956 27.1176H30.6544V26.1765H31.5956V27.1176ZM35.3603 28.0588H34.4191V27.1176H35.3603V28.0588ZM35.3603 17.7059H34.4191V16.7647H35.3603V17.7059ZM35.3603 26.1765H34.4191V25.2353H35.3603V26.1765ZM36.3015 25.2353H35.3603V24.2941H36.3015V25.2353ZM36.3015 24.2941H35.3603V23.3529H36.3015V24.2941ZM36.3015 18.6471H35.3603V17.7059H36.3015V18.6471ZM35.3603 18.6471H34.4191V17.7059H35.3603V18.6471ZM34.4191 18.6471H33.4779V17.7059H34.4191V18.6471ZM33.4779 18.6471H32.5368V17.7059H33.4779V18.6471ZM34.4191 23.3529H33.4779V22.4118H34.4191V23.3529ZM35.3603 23.3529H34.4191V22.4118H35.3603V23.3529ZM36.3015 23.3529H35.3603V22.4118H36.3015V23.3529ZM36.3015 22.4118H35.3603V21.4706H36.3015V22.4118ZM36.3015 21.4706H35.3603V20.5294H36.3015V21.4706ZM36.3015 20.5294H35.3603V19.5882H36.3015V20.5294ZM35.3603 20.5294H34.4191V19.5882H35.3603V20.5294ZM35.3603 19.5882H34.4191V18.6471H35.3603V19.5882ZM34.4191 19.5882H33.4779V18.6471H34.4191V19.5882ZM36.3015 19.5882H35.3603V18.6471H36.3015V19.5882ZM33.4779 19.5882H32.5368V18.6471H33.4779V19.5882ZM33.4779 20.5294H32.5368V19.5882H33.4779V20.5294ZM33.4779 21.4706H32.5368V20.5294H33.4779V21.4706ZM33.4779 22.4118H32.5368V21.4706H33.4779V22.4118ZM34.4191 22.4118H33.4779V21.4706H34.4191V22.4118ZM35.3603 22.4118H34.4191V21.4706H35.3603V22.4118ZM35.3603 21.4706H34.4191V20.5294H35.3603V21.4706ZM34.4191 20.5294H33.4779V19.5882H34.4191V20.5294ZM34.4191 21.4706H33.4779V20.5294H34.4191V21.4706ZM26.8897 15.8235H25.9485V14.8824H26.8897V15.8235ZM25.9485 15.8235H25.0074V14.8824H25.9485V15.8235ZM25.0074 15.8235H24.0662V14.8824H25.0074V15.8235ZM25.0074 16.7647H24.0662V15.8235H25.0074V16.7647ZM25.0074 17.7059H24.0662V16.7647H25.0074V17.7059ZM39.1287 15.8235H40.0699V16.7647H39.1287V15.8235ZM40.0699 15.8235H41.011V16.7647H40.0699V15.8235ZM41.011 15.8235H41.9522V16.7647H41.011V15.8235ZM41.9522 15.8235H42.8934V16.7647H41.9522V15.8235ZM42.8934 15.8235H43.8346V16.7647H42.8934V15.8235ZM43.8346 15.8235H44.7757V16.7647H43.8346V15.8235ZM44.7757 15.8235H45.7169V16.7647H44.7757V15.8235ZM45.7169 15.8235H46.6581V16.7647H45.7169V15.8235ZM46.6581 15.8235H47.5993V16.7647H46.6581V15.8235ZM46.6581 16.7647H47.5993V17.7059H46.6581V16.7647ZM46.6581 17.7059H47.5993V18.6471H46.6581V17.7059ZM45.7169 17.7059H46.6581V18.6471H45.7169V17.7059ZM44.7757 17.7059H45.7169V18.6471H44.7757V17.7059ZM43.8346 17.7059H44.7757V18.6471H43.8346V17.7059ZM42.8934 17.7059H43.8346V18.6471H42.8934V17.7059ZM41.9522 17.7059H42.8934V18.6471H41.9522V17.7059ZM41.011 17.7059H41.9522V18.6471H41.011V17.7059ZM40.0699 17.7059H41.011V18.6471H40.0699V17.7059ZM40.0699 16.7647H41.011V17.7059H40.0699V16.7647ZM39.1287 16.7647H40.0699V17.7059H39.1287V16.7647ZM39.1287 17.7059H40.0699V18.6471H39.1287V17.7059ZM41.011 16.7647H41.9522V17.7059H41.011V16.7647ZM41.9522 16.7647H42.8934V17.7059H41.9522V16.7647ZM42.8934 16.7647H43.8346V17.7059H42.8934V16.7647ZM43.8346 16.7647H44.7757V17.7059H43.8346V16.7647ZM44.7757 16.7647H45.7169V17.7059H44.7757V16.7647ZM45.7169 16.7647H46.6581V17.7059H45.7169V16.7647ZM41.011 14.8824H41.9522V15.8235H41.011V14.8824ZM41.9522 14.8824H42.8934V15.8235H41.9522V14.8824ZM42.8934 14.8824H43.8346V15.8235H42.8934V14.8824ZM43.8346 14.8824H44.7757V15.8235H43.8346V14.8824ZM42.8934 13.9412H43.8346V14.8824H42.8934V13.9412ZM41.9522 13.9412H42.8934V14.8824H41.9522V13.9412ZM43.8346 13.9412H44.7757V14.8824H43.8346V13.9412ZM43.8346 12.0588H44.7757V13H43.8346V12.0588ZM43.8346 13H44.7757V13.9412H43.8346V13ZM42.8934 13H43.8346V13.9412H42.8934V13ZM43.8346 11.1176H44.7757V12.0588H43.8346V11.1176ZM42.8934 12.0588H43.8346V13H42.8934V12.0588ZM41.9522 13H42.8934V13.9412H41.9522V13ZM41.011 13.9412H41.9522V14.8824H41.011V13.9412ZM41.011 18.6471H41.9522V19.5882H41.011V18.6471ZM41.011 19.5882H41.9522V20.5294H41.011V19.5882ZM41.011 20.5294H41.9522V21.4706H41.011V20.5294ZM41.011 21.4706H41.9522V22.4118H41.011V21.4706ZM41.9522 21.4706H42.8934V22.4118H41.9522V21.4706ZM41.9522 22.4118H42.8934V23.3529H41.9522V22.4118ZM42.8934 21.4706H43.8346V22.4118H42.8934V21.4706ZM42.8934 20.5294H43.8346V21.4706H42.8934V20.5294ZM43.8346 20.5294H44.7757V21.4706H43.8346V20.5294ZM43.8346 19.5882H44.7757V20.5294H43.8346V19.5882ZM42.8934 18.6471H43.8346V19.5882H42.8934V18.6471ZM41.9522 18.6471H42.8934V19.5882H41.9522V18.6471ZM41.9522 19.5882H42.8934V20.5294H41.9522V19.5882ZM41.9522 20.5294H42.8934V21.4706H41.9522V20.5294ZM42.8934 19.5882H43.8346V20.5294H42.8934V19.5882ZM43.8346 18.6471H44.7757V19.5882H43.8346V18.6471ZM43.8346 21.4706H44.7757V22.4118H43.8346V21.4706ZM43.8346 22.4118H44.7757V23.3529H43.8346V22.4118ZM42.8934 22.4118H43.8346V23.3529H42.8934V22.4118ZM42.8934 23.3529H43.8346V24.2941H42.8934V23.3529ZM41.9522 23.3529H42.8934V24.2941H41.9522V23.3529ZM41.011 22.4118H41.9522V23.3529H41.011V22.4118ZM41.011 23.3529H41.9522V24.2941H41.011V23.3529ZM43.8346 23.3529H44.7757V24.2941H43.8346V23.3529ZM41.011 24.2941H41.9522V25.2353H41.011V24.2941ZM41.9522 24.2941H42.8934V25.2353H41.9522V24.2941ZM41.9522 25.2353H42.8934V26.1765H41.9522V25.2353ZM42.8934 25.2353H43.8346V26.1765H42.8934V25.2353ZM43.8346 25.2353H44.7757V26.1765H43.8346V25.2353ZM43.8346 24.2941H44.7757V25.2353H43.8346V24.2941ZM42.8934 24.2941H43.8346V25.2353H42.8934V24.2941ZM41.011 25.2353H41.9522V26.1765H41.011V25.2353ZM43.8346 26.1765H44.7757V27.1176H43.8346V26.1765ZM44.7757 26.1765H45.7169V27.1176H44.7757V26.1765ZM44.7757 25.2353H45.7169V26.1765H44.7757V25.2353ZM42.8934 26.1765H43.8346V27.1176H42.8934V26.1765ZM41.9522 26.1765H42.8934V27.1176H41.9522V26.1765ZM41.9522 27.1176H42.8934V28.0588H41.9522V27.1176ZM42.8934 27.1176H43.8346V28.0588H42.8934V27.1176ZM43.8346 27.1176H44.7757V28.0588H43.8346V27.1176ZM44.7757 27.1176H45.7169V28.0588H44.7757V27.1176ZM45.7169 27.1176H46.6581V28.0588H45.7169V27.1176ZM45.7169 26.1765H46.6581V27.1176H45.7169V26.1765ZM46.6581 26.1765H47.5993V27.1176H46.6581V26.1765ZM46.6581 27.1176H47.5993V28.0588H46.6581V27.1176ZM45.7169 28.0588H46.6581V29H45.7169V28.0588ZM44.7757 28.0588H45.7169V29H44.7757V28.0588ZM43.8346 28.0588H44.7757V29H43.8346V28.0588ZM46.6581 28.0588H47.5993V29H46.6581V28.0588ZM54.1746 14.8824H55.1158V15.8235H54.1746V14.8824ZM55.1158 14.8824H56.057V15.8235H55.1158V14.8824ZM53.2335 14.8824H54.1746V15.8235H53.2335V14.8824ZM56.057 14.8824H56.9982V15.8235H56.057V14.8824ZM56.9982 14.8824H57.9393V15.8235H56.9982V14.8824ZM57.9393 14.8824H58.8805V15.8235H57.9393V14.8824ZM58.8805 14.8824H59.8217V15.8235H58.8805V14.8824ZM59.8217 15.8235H60.7629V16.7647H59.8217V15.8235ZM58.8805 15.8235H59.8217V16.7647H58.8805V15.8235ZM58.8805 16.7647H59.8217V17.7059H58.8805V16.7647ZM60.7629 15.8235H61.704V16.7647H60.7629V15.8235ZM60.7629 16.7647H61.704V17.7059H60.7629V16.7647ZM59.8217 16.7647H60.7629V17.7059H59.8217V16.7647ZM58.8805 17.7059H59.8217V18.6471H58.8805V17.7059ZM57.9393 17.7059H58.8805V18.6471H57.9393V17.7059ZM59.8217 17.7059H60.7629V18.6471H59.8217V17.7059ZM60.7629 17.7059H61.704V18.6471H60.7629V17.7059ZM61.704 17.7059H62.6452V18.6471H61.704V17.7059ZM61.704 18.6471H62.6452V19.5882H61.704V18.6471ZM61.704 19.5882H62.6452V20.5294H61.704V19.5882ZM61.704 20.5294H62.6452V21.4706H61.704V20.5294ZM61.704 21.4706H62.6452V22.4118H61.704V21.4706ZM61.704 22.4118H62.6452V23.3529H61.704V22.4118ZM61.704 23.3529H62.6452V24.2941H61.704V23.3529ZM61.704 24.2941H62.6452V25.2353H61.704V24.2941ZM61.704 25.2353H62.6452V26.1765H61.704V25.2353ZM60.7629 25.2353H61.704V26.1765H60.7629V25.2353ZM60.7629 26.1765H61.704V27.1176H60.7629V26.1765ZM60.7629 27.1176H61.704V28.0588H60.7629V27.1176ZM59.8217 27.1176H60.7629V28.0588H59.8217V27.1176ZM58.8805 27.1176H59.8217V28.0588H58.8805V27.1176ZM57.9393 26.1765H58.8805V27.1176H57.9393V26.1765ZM57.9393 25.2353H58.8805V26.1765H57.9393V25.2353ZM58.8805 25.2353H59.8217V26.1765H58.8805V25.2353ZM58.8805 26.1765H59.8217V27.1176H58.8805V26.1765ZM59.8217 26.1765H60.7629V27.1176H59.8217V26.1765ZM59.8217 25.2353H60.7629V26.1765H59.8217V25.2353ZM59.8217 24.2941H60.7629V25.2353H59.8217V24.2941ZM58.8805 24.2941H59.8217V25.2353H58.8805V24.2941ZM58.8805 23.3529H59.8217V24.2941H58.8805V23.3529ZM58.8805 22.4118H59.8217V23.3529H58.8805V22.4118ZM58.8805 21.4706H59.8217V22.4118H58.8805V21.4706ZM58.8805 20.5294H59.8217V21.4706H58.8805V20.5294ZM58.8805 19.5882H59.8217V20.5294H58.8805V19.5882ZM58.8805 18.6471H59.8217V19.5882H58.8805V18.6471ZM59.8217 18.6471H60.7629V19.5882H59.8217V18.6471ZM59.8217 19.5882H60.7629V20.5294H59.8217V19.5882ZM59.8217 20.5294H60.7629V21.4706H59.8217V20.5294ZM59.8217 21.4706H60.7629V22.4118H59.8217V21.4706ZM59.8217 22.4118H60.7629V23.3529H59.8217V22.4118ZM59.8217 23.3529H60.7629V24.2941H59.8217V23.3529ZM60.7629 24.2941H61.704V25.2353H60.7629V24.2941ZM60.7629 23.3529H61.704V24.2941H60.7629V23.3529ZM60.7629 22.4118H61.704V23.3529H60.7629V22.4118ZM60.7629 21.4706H61.704V22.4118H60.7629V21.4706ZM60.7629 20.5294H61.704V21.4706H60.7629V20.5294ZM60.7629 19.5882H61.704V20.5294H60.7629V19.5882ZM60.7629 18.6471H61.704V19.5882H60.7629V18.6471ZM57.9393 27.1176H58.8805V28.0588H57.9393V27.1176ZM57.9393 28.0588H58.8805V29H57.9393V28.0588ZM58.8805 28.0588H59.8217V29H58.8805V28.0588ZM56.9982 28.0588H57.9393V29H56.9982V28.0588ZM56.057 28.0588H56.9982V29H56.057V28.0588ZM55.1158 28.0588H56.057V29H55.1158V28.0588ZM54.1746 28.0588H55.1158V29H54.1746V28.0588ZM53.2335 28.0588H54.1746V29H53.2335V28.0588ZM53.2335 27.1176H54.1746V28.0588H53.2335V27.1176ZM52.2923 27.1176H53.2335V28.0588H52.2923V27.1176ZM51.3511 27.1176H52.2923V28.0588H51.3511V27.1176ZM51.3511 26.1765H52.2923V27.1176H51.3511V26.1765ZM50.4099 25.2353H51.3511V26.1765H50.4099V25.2353ZM51.3511 25.2353H52.2923V26.1765H51.3511V25.2353ZM50.4099 24.2941H51.3511V25.2353H50.4099V24.2941ZM50.4099 23.3529H51.3511V24.2941H50.4099V23.3529ZM50.4099 22.4118H51.3511V23.3529H50.4099V22.4118ZM50.4099 21.4706H51.3511V22.4118H50.4099V21.4706ZM50.4099 20.5294H51.3511V21.4706H50.4099V20.5294ZM50.4099 19.5882H51.3511V20.5294H50.4099V19.5882ZM51.3511 19.5882H52.2923V20.5294H51.3511V19.5882ZM51.3511 18.6471H52.2923V19.5882H51.3511V18.6471ZM50.4099 18.6471H51.3511V19.5882H50.4099V18.6471ZM50.4099 17.7059H51.3511V18.6471H50.4099V17.7059ZM51.3511 17.7059H52.2923V18.6471H51.3511V17.7059ZM51.3511 16.7647H52.2923V17.7059H51.3511V16.7647ZM51.3511 15.8235H52.2923V16.7647H51.3511V15.8235ZM52.2923 15.8235H53.2335V16.7647H52.2923V15.8235ZM53.2335 15.8235H54.1746V16.7647H53.2335V15.8235ZM54.1746 15.8235H55.1158V16.7647H54.1746V15.8235ZM54.1746 16.7647H55.1158V17.7059H54.1746V16.7647ZM54.1746 17.7059H55.1158V18.6471H54.1746V17.7059ZM53.2335 17.7059H54.1746V18.6471H53.2335V17.7059ZM52.2923 17.7059H53.2335V18.6471H52.2923V17.7059ZM53.2335 18.6471H54.1746V19.5882H53.2335V18.6471ZM53.2335 19.5882H54.1746V20.5294H53.2335V19.5882ZM53.2335 20.5294H54.1746V21.4706H53.2335V20.5294ZM53.2335 21.4706H54.1746V22.4118H53.2335V21.4706ZM53.2335 22.4118H54.1746V23.3529H53.2335V22.4118ZM53.2335 23.3529H54.1746V24.2941H53.2335V23.3529ZM53.2335 24.2941H54.1746V25.2353H53.2335V24.2941ZM53.2335 25.2353H54.1746V26.1765H53.2335V25.2353ZM54.1746 25.2353H55.1158V26.1765H54.1746V25.2353ZM54.1746 26.1765H55.1158V27.1176H54.1746V26.1765ZM55.1158 26.1765H56.057V27.1176H55.1158V26.1765ZM56.057 26.1765H56.9982V27.1176H56.057V26.1765ZM56.9982 26.1765H57.9393V27.1176H56.9982V26.1765ZM56.9982 27.1176H57.9393V28.0588H56.9982V27.1176ZM56.057 27.1176H56.9982V28.0588H56.057V27.1176ZM55.1158 27.1176H56.057V28.0588H55.1158V27.1176ZM54.1746 27.1176H55.1158V28.0588H54.1746V27.1176ZM53.2335 26.1765H54.1746V27.1176H53.2335V26.1765ZM52.2923 26.1765H53.2335V27.1176H52.2923V26.1765ZM52.2923 25.2353H53.2335V26.1765H52.2923V25.2353ZM52.2923 24.2941H53.2335V25.2353H52.2923V24.2941ZM52.2923 23.3529H53.2335V24.2941H52.2923V23.3529ZM51.3511 23.3529H52.2923V24.2941H51.3511V23.3529ZM51.3511 24.2941H52.2923V25.2353H51.3511V24.2941ZM51.3511 22.4118H52.2923V23.3529H51.3511V22.4118ZM51.3511 21.4706H52.2923V22.4118H51.3511V21.4706ZM51.3511 20.5294H52.2923V21.4706H51.3511V20.5294ZM52.2923 20.5294H53.2335V21.4706H52.2923V20.5294ZM52.2923 21.4706H53.2335V22.4118H52.2923V21.4706ZM52.2923 22.4118H53.2335V23.3529H52.2923V22.4118ZM52.2923 19.5882H53.2335V20.5294H52.2923V19.5882ZM52.2923 18.6471H53.2335V19.5882H52.2923V18.6471ZM52.2923 16.7647H53.2335V17.7059H52.2923V16.7647ZM53.2335 16.7647H54.1746V17.7059H53.2335V16.7647ZM55.1158 15.8235H56.057V16.7647H55.1158V15.8235ZM56.057 15.8235H56.9982V16.7647H56.057V15.8235ZM56.9982 15.8235H57.9393V16.7647H56.9982V15.8235ZM57.9393 15.8235H58.8805V16.7647H57.9393V15.8235ZM57.9393 16.7647H58.8805V17.7059H57.9393V16.7647ZM56.9982 16.7647H57.9393V17.7059H56.9982V16.7647ZM56.057 16.7647H56.9982V17.7059H56.057V16.7647ZM55.1158 16.7647H56.057V17.7059H55.1158V16.7647ZM65.4724 14.8824H66.4136V15.8235H65.4724V14.8824ZM66.4136 14.8824H67.3548V15.8235H66.4136V14.8824ZM67.3548 14.8824H68.296V15.8235H67.3548V14.8824ZM65.4724 16.7647H66.4136V17.7059H65.4724V16.7647ZM65.4724 15.8235H66.4136V16.7647H65.4724V15.8235ZM67.3548 28.0588H68.296V29H67.3548V28.0588ZM66.4136 28.0588H67.3548V29H66.4136V28.0588ZM65.4724 27.1176H66.4136V28.0588H65.4724V27.1176ZM65.4724 26.1765H66.4136V27.1176H65.4724V26.1765ZM65.4724 28.0588H66.4136V29H65.4724V28.0588ZM70.1783 14.8824H71.1195V15.8235H70.1783V14.8824ZM68.296 14.8824H69.2371V15.8235H68.296V14.8824ZM71.1195 14.8824H72.0607V15.8235H71.1195V14.8824ZM72.0607 14.8824H73.0018V15.8235H72.0607V14.8824ZM73.0018 14.8824H73.943V15.8235H73.0018V14.8824ZM73.943 15.8235H74.8842V16.7647H73.943V15.8235ZM73.943 16.7647H74.8842V17.7059H73.943V16.7647ZM74.8842 16.7647H75.8254V17.7059H74.8842V16.7647ZM73.943 17.7059H74.8842V18.6471H73.943V17.7059ZM73.0018 17.7059H73.943V18.6471H73.0018V17.7059ZM68.296 28.0588H69.2371V29H68.296V28.0588ZM68.296 27.1176H69.2371V28.0588H68.296V27.1176ZM67.3548 27.1176H68.296V28.0588H67.3548V27.1176ZM66.4136 27.1176H67.3548V28.0588H66.4136V27.1176ZM66.4136 19.5882H67.3548V20.5294H66.4136V19.5882ZM66.4136 18.6471H67.3548V19.5882H66.4136V18.6471ZM65.4724 17.7059H66.4136V18.6471H65.4724V17.7059ZM66.4136 16.7647H67.3548V17.7059H66.4136V16.7647ZM67.3548 15.8235H68.296V16.7647H67.3548V15.8235ZM68.296 15.8235H69.2371V16.7647H68.296V15.8235ZM69.2371 15.8235H70.1783V16.7647H69.2371V15.8235ZM69.2371 16.7647H70.1783V17.7059H69.2371V16.7647ZM69.2371 17.7059H70.1783V18.6471H69.2371V17.7059ZM68.296 17.7059H69.2371V18.6471H68.296V17.7059ZM67.3548 17.7059H68.296V18.6471H67.3548V17.7059ZM68.296 18.6471H69.2371V19.5882H68.296V18.6471ZM68.296 19.5882H69.2371V20.5294H68.296V19.5882ZM68.296 20.5294H69.2371V21.4706H68.296V20.5294ZM68.296 26.1765H69.2371V27.1176H68.296V26.1765ZM67.3548 26.1765H68.296V27.1176H67.3548V26.1765ZM67.3548 19.5882H68.296V20.5294H67.3548V19.5882ZM67.3548 18.6471H68.296V19.5882H67.3548V18.6471ZM67.3548 16.7647H68.296V17.7059H67.3548V16.7647ZM68.296 16.7647H69.2371V17.7059H68.296V16.7647ZM70.1783 15.8235H71.1195V16.7647H70.1783V15.8235ZM71.1195 15.8235H72.0607V16.7647H71.1195V15.8235ZM72.0607 15.8235H73.0018V16.7647H72.0607V15.8235ZM73.0018 15.8235H73.943V16.7647H73.0018V15.8235ZM73.0018 16.7647H73.943V17.7059H73.0018V16.7647ZM72.0607 16.7647H73.0018V17.7059H72.0607V16.7647ZM71.1195 16.7647H72.0607V17.7059H71.1195V16.7647ZM70.1783 16.7647H71.1195V17.7059H70.1783V16.7647ZM66.4136 15.8235H67.3548V16.7647H66.4136V15.8235ZM66.4136 26.1765H67.3548V27.1176H66.4136V26.1765ZM66.4136 17.7059H67.3548V18.6471H66.4136V17.7059ZM65.4724 18.6471H66.4136V19.5882H65.4724V18.6471ZM65.4724 19.5882H66.4136V20.5294H65.4724V19.5882ZM65.4724 25.2353H66.4136V26.1765H65.4724V25.2353ZM66.4136 25.2353H67.3548V26.1765H66.4136V25.2353ZM67.3548 25.2353H68.296V26.1765H67.3548V25.2353ZM68.296 25.2353H69.2371V26.1765H68.296V25.2353ZM67.3548 20.5294H68.296V21.4706H67.3548V20.5294ZM66.4136 20.5294H67.3548V21.4706H66.4136V20.5294ZM65.4724 20.5294H66.4136V21.4706H65.4724V20.5294ZM65.4724 21.4706H66.4136V22.4118H65.4724V21.4706ZM65.4724 22.4118H66.4136V23.3529H65.4724V22.4118ZM65.4724 23.3529H66.4136V24.2941H65.4724V23.3529ZM66.4136 23.3529H67.3548V24.2941H66.4136V23.3529ZM66.4136 24.2941H67.3548V25.2353H66.4136V24.2941ZM67.3548 24.2941H68.296V25.2353H67.3548V24.2941ZM65.4724 24.2941H66.4136V25.2353H65.4724V24.2941ZM68.296 24.2941H69.2371V25.2353H68.296V24.2941ZM68.296 23.3529H69.2371V24.2941H68.296V23.3529ZM68.296 22.4118H69.2371V23.3529H68.296V22.4118ZM68.296 21.4706H69.2371V22.4118H68.296V21.4706ZM67.3548 21.4706H68.296V22.4118H67.3548V21.4706ZM66.4136 21.4706H67.3548V22.4118H66.4136V21.4706ZM66.4136 22.4118H67.3548V23.3529H66.4136V22.4118ZM67.3548 23.3529H68.296V24.2941H67.3548V23.3529ZM67.3548 22.4118H68.296V23.3529H67.3548V22.4118ZM72.0607 17.7059H73.0018V18.6471H72.0607V17.7059ZM73.0018 18.6471H73.943V19.5882H73.0018V18.6471ZM77.6949 15.8235H78.636V16.7647H77.6949V15.8235ZM77.6949 16.7647H78.636V17.7059H77.6949V16.7647ZM77.6949 17.7059H78.636V18.6471H77.6949V17.7059ZM77.6949 18.6471H78.636V19.5882H77.6949V18.6471ZM77.6949 19.5882H78.636V20.5294H77.6949V19.5882ZM76.7537 19.5882H77.6949V20.5294H76.7537V19.5882ZM76.7537 18.6471H77.6949V19.5882H76.7537V18.6471ZM76.7537 17.7059H77.6949V18.6471H76.7537V17.7059ZM76.7537 16.7647H77.6949V17.7059H76.7537V16.7647ZM76.7537 15.8235H77.6949V16.7647H76.7537V15.8235ZM76.7537 25.2353H77.6949V26.1765H76.7537V25.2353ZM76.7537 24.2941H77.6949V25.2353H76.7537V24.2941ZM76.7537 23.3529H77.6949V24.2941H76.7537V23.3529ZM76.7537 22.4118H77.6949V23.3529H76.7537V22.4118ZM77.6949 21.4706H78.636V22.4118H77.6949V21.4706ZM77.6949 20.5294H78.636V21.4706H77.6949V20.5294ZM76.7537 20.5294H77.6949V21.4706H76.7537V20.5294ZM76.7537 21.4706H77.6949V22.4118H76.7537V21.4706ZM76.7537 26.1765H77.6949V27.1176H76.7537V26.1765ZM76.7537 27.1176H77.6949V28.0588H76.7537V27.1176ZM76.7537 28.0588H77.6949V29H76.7537V28.0588ZM79.5772 15.8235H80.5184V16.7647H79.5772V15.8235ZM79.5772 16.7647H80.5184V17.7059H79.5772V16.7647ZM79.5772 17.7059H80.5184V18.6471H79.5772V17.7059ZM79.5772 18.6471H80.5184V19.5882H79.5772V18.6471ZM79.5772 19.5882H80.5184V20.5294H79.5772V19.5882ZM79.5772 20.5294H80.5184V21.4706H79.5772V20.5294ZM79.5772 21.4706H80.5184V22.4118H79.5772V21.4706ZM79.5772 22.4118H80.5184V23.3529H79.5772V22.4118ZM79.5772 23.3529H80.5184V24.2941H79.5772V23.3529ZM79.5772 24.2941H80.5184V25.2353H79.5772V24.2941ZM79.5772 25.2353H80.5184V26.1765H79.5772V25.2353ZM79.5772 26.1765H80.5184V27.1176H79.5772V26.1765ZM79.5772 27.1176H80.5184V28.0588H79.5772V27.1176ZM79.5772 28.0588H80.5184V29H79.5772V28.0588ZM78.636 28.0588H79.5772V29H78.636V28.0588ZM77.6949 28.0588H78.636V29H77.6949V28.0588ZM77.6949 27.1176H78.636V28.0588H77.6949V27.1176ZM78.636 27.1176H79.5772V28.0588H78.636V27.1176ZM78.636 26.1765H79.5772V27.1176H78.636V26.1765ZM77.6949 25.2353H78.636V26.1765H77.6949V25.2353ZM77.6949 24.2941H78.636V25.2353H77.6949V24.2941ZM77.6949 23.3529H78.636V24.2941H77.6949V23.3529ZM78.636 23.3529H79.5772V24.2941H78.636V23.3529ZM78.636 24.2941H79.5772V25.2353H78.636V24.2941ZM78.636 25.2353H79.5772V26.1765H78.636V25.2353ZM77.6949 26.1765H78.636V27.1176H77.6949V26.1765ZM78.636 22.4118H79.5772V23.3529H78.636V22.4118ZM78.636 21.4706H79.5772V22.4118H78.636V21.4706ZM78.636 20.5294H79.5772V21.4706H78.636V20.5294ZM77.6949 22.4118H78.636V23.3529H77.6949V22.4118ZM78.636 19.5882H79.5772V20.5294H78.636V19.5882ZM78.636 18.6471H79.5772V19.5882H78.636V18.6471ZM78.636 17.7059H79.5772V18.6471H78.636V17.7059ZM78.636 16.7647H79.5772V17.7059H78.636V16.7647ZM78.636 15.8235H79.5772V16.7647H78.636V15.8235ZM79.5772 10.1765H80.5184V11.1176H79.5772V10.1765ZM78.636 11.1176H79.5772V12.0588H78.636V11.1176ZM78.636 9.23529H79.5772V10.1765H78.636V9.23529ZM77.6949 10.1765H78.636V11.1176H77.6949V10.1765ZM78.636 10.1765H79.5772V11.1176H78.636V10.1765ZM77.6949 9.23529H78.636V10.1765H77.6949V9.23529ZM77.6949 11.1176H78.636V12.0588H77.6949V11.1176ZM79.5772 11.1176H80.5184V12.0588H79.5772V11.1176ZM76.7537 10.1765H77.6949V11.1176H76.7537V10.1765ZM76.7537 11.1176H77.6949V12.0588H76.7537V11.1176ZM77.6949 12.0588H78.636V13H77.6949V12.0588ZM78.636 12.0588H79.5772V13H78.636V12.0588ZM76.7537 9.23529H77.6949V10.1765H76.7537V9.23529ZM79.5772 9.23529H80.5184V10.1765H79.5772V9.23529ZM79.5772 12.0588H80.5184V13H79.5772V12.0588ZM76.7537 12.0588H77.6949V13H76.7537V12.0588ZM90.8768 29H89.9357V28.0588H90.8768V29ZM92.7592 29H91.818V28.0588H92.7592V29ZM89.9357 29H88.9945V28.0588H89.9357V29ZM88.9945 29H88.0533V28.0588H88.9945V29ZM88.0533 29H87.1121V28.0588H88.0533V29ZM87.1121 29H86.171V28.0588H87.1121V29ZM86.171 28.0588H85.2298V27.1176H86.171V28.0588ZM87.1121 28.0588H86.171V27.1176H87.1121V28.0588ZM87.1121 27.1176H86.171V26.1765H87.1121V27.1176ZM85.2298 28.0588H84.2886V27.1176H85.2298V28.0588ZM85.2298 27.1176H84.2886V26.1765H85.2298V27.1176ZM86.171 27.1176H85.2298V26.1765H86.171V27.1176ZM87.1121 26.1765H86.171V25.2353H87.1121V26.1765ZM88.0533 26.1765H87.1121V25.2353H88.0533V26.1765ZM86.171 26.1765H85.2298V25.2353H86.171V26.1765ZM85.2298 26.1765H84.2886V25.2353H85.2298V26.1765ZM84.2886 26.1765H83.3474V25.2353H84.2886V26.1765ZM84.2886 25.2353H83.3474V24.2941H84.2886V25.2353ZM84.2886 19.5882H83.3474V18.6471H84.2886V19.5882ZM84.2886 18.6471H83.3474V17.7059H84.2886V18.6471ZM85.2298 18.6471H84.2886V17.7059H85.2298V18.6471ZM85.2298 17.7059H84.2886V16.7647H85.2298V17.7059ZM85.2298 16.7647H84.2886V15.8235H85.2298V16.7647ZM86.171 16.7647H85.2298V15.8235H86.171V16.7647ZM87.1121 16.7647H86.171V15.8235H87.1121V16.7647ZM88.0533 17.7059H87.1121V16.7647H88.0533V17.7059ZM88.0533 18.6471H87.1121V17.7059H88.0533V18.6471ZM87.1121 18.6471H86.171V17.7059H87.1121V18.6471ZM87.1121 17.7059H86.171V16.7647H87.1121V17.7059ZM86.171 17.7059H85.2298V16.7647H86.171V17.7059ZM86.171 18.6471H85.2298V17.7059H86.171V18.6471ZM86.171 19.5882H85.2298V18.6471H86.171V19.5882ZM87.1121 19.5882H86.171V18.6471H87.1121V19.5882ZM87.1121 25.2353H86.171V24.2941H87.1121V25.2353ZM86.171 25.2353H85.2298V24.2941H86.171V25.2353ZM85.2298 19.5882H84.2886V18.6471H85.2298V19.5882ZM85.2298 25.2353H84.2886V24.2941H85.2298V25.2353ZM88.0533 16.7647H87.1121V15.8235H88.0533V16.7647ZM88.0533 15.8235H87.1121V14.8824H88.0533V15.8235ZM87.1121 15.8235H86.171V14.8824H87.1121V15.8235ZM88.9945 15.8235H88.0533V14.8824H88.9945V15.8235ZM89.9357 15.8235H88.9945V14.8824H89.9357V15.8235ZM90.8768 15.8235H89.9357V14.8824H90.8768V15.8235ZM91.818 15.8235H90.8768V14.8824H91.818V15.8235ZM92.7592 15.8235H91.818V14.8824H92.7592V15.8235ZM92.7592 16.7647H91.818V15.8235H92.7592V16.7647ZM93.7004 16.7647H92.7592V15.8235H93.7004V16.7647ZM94.6415 16.7647H93.7004V15.8235H94.6415V16.7647ZM94.6415 17.7059H93.7004V16.7647H94.6415V17.7059ZM95.5827 18.6471H94.6415V17.7059H95.5827V18.6471ZM94.6415 18.6471H93.7004V17.7059H94.6415V18.6471ZM95.5827 19.5882H94.6415V18.6471H95.5827V19.5882ZM95.5827 20.5294H94.6415V19.5882H95.5827V20.5294ZM95.5827 21.4706H94.6415V20.5294H95.5827V21.4706ZM95.5827 22.4118H94.6415V21.4706H95.5827V22.4118ZM95.5827 23.3529H94.6415V22.4118H95.5827V23.3529ZM95.5827 24.2941H94.6415V23.3529H95.5827V24.2941ZM94.6415 24.2941H93.7004V23.3529H94.6415V24.2941ZM94.6415 25.2353H93.7004V24.2941H94.6415V25.2353ZM95.5827 25.2353H94.6415V24.2941H95.5827V25.2353ZM95.5827 26.1765H94.6415V25.2353H95.5827V26.1765ZM94.6415 26.1765H93.7004V25.2353H94.6415V26.1765ZM94.6415 27.1176H93.7004V26.1765H94.6415V27.1176ZM94.6415 28.0588H93.7004V27.1176H94.6415V28.0588ZM93.7004 28.0588H92.7592V27.1176H93.7004V28.0588ZM92.7592 28.0588H91.818V27.1176H92.7592V28.0588ZM91.818 28.0588H90.8768V27.1176H91.818V28.0588ZM91.818 27.1176H90.8768V26.1765H91.818V27.1176ZM92.7592 26.1765H91.818V25.2353H92.7592V26.1765ZM93.7004 26.1765H92.7592V25.2353H93.7004V26.1765ZM92.7592 25.2353H91.818V24.2941H92.7592V25.2353ZM92.7592 24.2941H91.818V23.3529H92.7592V24.2941ZM92.7592 23.3529H91.818V22.4118H92.7592V23.3529ZM92.7592 22.4118H91.818V21.4706H92.7592V22.4118ZM92.7592 21.4706H91.818V20.5294H92.7592V21.4706ZM92.7592 20.5294H91.818V19.5882H92.7592V20.5294ZM92.7592 19.5882H91.818V18.6471H92.7592V19.5882ZM92.7592 18.6471H91.818V17.7059H92.7592V18.6471ZM91.818 18.6471H90.8768V17.7059H91.818V18.6471ZM91.818 17.7059H90.8768V16.7647H91.818V17.7059ZM90.8768 17.7059H89.9357V16.7647H90.8768V17.7059ZM89.9357 17.7059H88.9945V16.7647H89.9357V17.7059ZM88.9945 17.7059H88.0533V16.7647H88.9945V17.7059ZM88.9945 16.7647H88.0533V15.8235H88.9945V16.7647ZM89.9357 16.7647H88.9945V15.8235H89.9357V16.7647ZM90.8768 16.7647H89.9357V15.8235H90.8768V16.7647ZM91.818 16.7647H90.8768V15.8235H91.818V16.7647ZM92.7592 17.7059H91.818V16.7647H92.7592V17.7059ZM93.7004 17.7059H92.7592V16.7647H93.7004V17.7059ZM93.7004 18.6471H92.7592V17.7059H93.7004V18.6471ZM93.7004 19.5882H92.7592V18.6471H93.7004V19.5882ZM93.7004 20.5294H92.7592V19.5882H93.7004V20.5294ZM94.6415 20.5294H93.7004V19.5882H94.6415V20.5294ZM94.6415 19.5882H93.7004V18.6471H94.6415V19.5882ZM94.6415 21.4706H93.7004V20.5294H94.6415V21.4706ZM94.6415 22.4118H93.7004V21.4706H94.6415V22.4118ZM94.6415 23.3529H93.7004V22.4118H94.6415V23.3529ZM93.7004 23.3529H92.7592V22.4118H93.7004V23.3529ZM93.7004 22.4118H92.7592V21.4706H93.7004V22.4118ZM93.7004 21.4706H92.7592V20.5294H93.7004V21.4706ZM93.7004 24.2941H92.7592V23.3529H93.7004V24.2941ZM93.7004 25.2353H92.7592V24.2941H93.7004V25.2353ZM93.7004 27.1176H92.7592V26.1765H93.7004V27.1176ZM92.7592 27.1176H91.818V26.1765H92.7592V27.1176ZM90.8768 28.0588H89.9357V27.1176H90.8768V28.0588ZM89.9357 28.0588H88.9945V27.1176H89.9357V28.0588ZM88.9945 28.0588H88.0533V27.1176H88.9945V28.0588ZM88.0533 28.0588H87.1121V27.1176H88.0533V28.0588ZM88.0533 27.1176H87.1121V26.1765H88.0533V27.1176ZM88.9945 27.1176H88.0533V26.1765H88.9945V27.1176ZM89.9357 27.1176H88.9945V26.1765H89.9357V27.1176ZM90.8768 27.1176H89.9357V26.1765H90.8768V27.1176ZM85.2298 24.2941H84.2886V23.3529H85.2298V24.2941ZM86.171 24.2941H85.2298V23.3529H86.171V24.2941ZM87.1121 24.2941H86.171V23.3529H87.1121V24.2941ZM85.2298 23.3529H84.2886V22.4118H85.2298V23.3529ZM86.171 23.3529H85.2298V22.4118H86.171V23.3529ZM87.1121 23.3529H86.171V22.4118H87.1121V23.3529ZM88.0533 23.3529H87.1121V22.4118H88.0533V23.3529ZM88.9945 23.3529H88.0533V22.4118H88.9945V23.3529ZM89.9357 23.3529H88.9945V22.4118H89.9357V23.3529ZM90.8768 23.3529H89.9357V22.4118H90.8768V23.3529ZM91.818 23.3529H90.8768V22.4118H91.818V23.3529ZM91.818 22.4118H90.8768V21.4706H91.818V22.4118ZM90.8768 22.4118H89.9357V21.4706H90.8768V22.4118ZM89.9357 22.4118H88.9945V21.4706H89.9357V22.4118ZM88.9945 22.4118H88.0533V21.4706H88.9945V22.4118ZM88.0533 22.4118H87.1121V21.4706H88.0533V22.4118ZM87.1121 22.4118H86.171V21.4706H87.1121V22.4118ZM94.6415 26.1765H95.5827V27.1176H94.6415V26.1765ZM94.6415 27.1176H95.5827V28.0588H94.6415V27.1176ZM94.6415 28.0588H95.5827V29H94.6415V28.0588ZM93.7004 28.0588H94.6415V29H93.7004V28.0588ZM92.7592 28.0588H93.7004V29H92.7592V28.0588ZM87.1121 23.3529H88.0533V24.2941H87.1121V23.3529ZM98.4099 10.1765H99.3511V11.1176H98.4099V10.1765ZM98.4099 11.1176H99.3511V12.0588H98.4099V11.1176ZM98.4099 12.0588H99.3511V13H98.4099V12.0588ZM98.4099 13H99.3511V13.9412H98.4099V13ZM99.3511 13.9412H100.292V14.8824H99.3511V13.9412ZM99.3511 14.8824H100.292V15.8235H99.3511V14.8824ZM99.3511 15.8235H100.292V16.7647H99.3511V15.8235ZM99.3511 16.7647H100.292V17.7059H99.3511V16.7647ZM99.3511 17.7059H100.292V18.6471H99.3511V17.7059ZM99.3511 18.6471H100.292V19.5882H99.3511V18.6471ZM99.3511 19.5882H100.292V20.5294H99.3511V19.5882ZM98.4099 19.5882H99.3511V20.5294H98.4099V19.5882ZM98.4099 18.6471H99.3511V19.5882H98.4099V18.6471ZM98.4099 17.7059H99.3511V18.6471H98.4099V17.7059ZM98.4099 16.7647H99.3511V17.7059H98.4099V16.7647ZM98.4099 15.8235H99.3511V16.7647H98.4099V15.8235ZM98.4099 14.8824H99.3511V15.8235H98.4099V14.8824ZM98.4099 13.9412H99.3511V14.8824H98.4099V13.9412ZM98.4099 25.2353H99.3511V26.1765H98.4099V25.2353ZM98.4099 24.2941H99.3511V25.2353H98.4099V24.2941ZM98.4099 23.3529H99.3511V24.2941H98.4099V23.3529ZM98.4099 22.4118H99.3511V23.3529H98.4099V22.4118ZM99.3511 21.4706H100.292V22.4118H99.3511V21.4706ZM99.3511 20.5294H100.292V21.4706H99.3511V20.5294ZM98.4099 20.5294H99.3511V21.4706H98.4099V20.5294ZM98.4099 21.4706H99.3511V22.4118H98.4099V21.4706ZM98.4099 26.1765H99.3511V27.1176H98.4099V26.1765ZM98.4099 27.1176H99.3511V28.0588H98.4099V27.1176ZM98.4099 28.0588H99.3511V29H98.4099V28.0588ZM99.3511 10.1765H100.292V11.1176H99.3511V10.1765ZM100.292 10.1765H101.233V11.1176H100.292V10.1765ZM101.233 10.1765H102.175V11.1176H101.233V10.1765ZM101.233 11.1176H102.175V12.0588H101.233V11.1176ZM101.233 12.0588H102.175V13H101.233V12.0588ZM101.233 13H102.175V13.9412H101.233V13ZM101.233 13.9412H102.175V14.8824H101.233V13.9412ZM101.233 15.8235H102.175V16.7647H101.233V15.8235ZM101.233 16.7647H102.175V17.7059H101.233V16.7647ZM101.233 17.7059H102.175V18.6471H101.233V17.7059ZM101.233 18.6471H102.175V19.5882H101.233V18.6471ZM101.233 19.5882H102.175V20.5294H101.233V19.5882ZM101.233 20.5294H102.175V21.4706H101.233V20.5294ZM101.233 21.4706H102.175V22.4118H101.233V21.4706ZM101.233 22.4118H102.175V23.3529H101.233V22.4118ZM101.233 23.3529H102.175V24.2941H101.233V23.3529ZM101.233 14.8824H102.175V15.8235H101.233V14.8824ZM101.233 24.2941H102.175V25.2353H101.233V24.2941ZM101.233 25.2353H102.175V26.1765H101.233V25.2353ZM101.233 26.1765H102.175V27.1176H101.233V26.1765ZM101.233 27.1176H102.175V28.0588H101.233V27.1176ZM101.233 28.0588H102.175V29H101.233V28.0588ZM100.292 28.0588H101.233V29H100.292V28.0588ZM99.3511 28.0588H100.292V29H99.3511V28.0588ZM99.3511 27.1176H100.292V28.0588H99.3511V27.1176ZM100.292 27.1176H101.233V28.0588H100.292V27.1176ZM100.292 26.1765H101.233V27.1176H100.292V26.1765ZM99.3511 25.2353H100.292V26.1765H99.3511V25.2353ZM99.3511 24.2941H100.292V25.2353H99.3511V24.2941ZM99.3511 23.3529H100.292V24.2941H99.3511V23.3529ZM100.292 23.3529H101.233V24.2941H100.292V23.3529ZM100.292 24.2941H101.233V25.2353H100.292V24.2941ZM100.292 25.2353H101.233V26.1765H100.292V25.2353ZM99.3511 26.1765H100.292V27.1176H99.3511V26.1765ZM100.292 22.4118H101.233V23.3529H100.292V22.4118ZM100.292 21.4706H101.233V22.4118H100.292V21.4706ZM100.292 20.5294H101.233V21.4706H100.292V20.5294ZM99.3511 22.4118H100.292V23.3529H99.3511V22.4118ZM100.292 19.5882H101.233V20.5294H100.292V19.5882ZM100.292 18.6471H101.233V19.5882H100.292V18.6471ZM100.292 17.7059H101.233V18.6471H100.292V17.7059ZM100.292 16.7647H101.233V17.7059H100.292V16.7647ZM100.292 15.8235H101.233V16.7647H100.292V15.8235ZM100.292 14.8824H101.233V15.8235H100.292V14.8824ZM100.292 13.9412H101.233V14.8824H100.292V13.9412ZM100.292 13H101.233V13.9412H100.292V13ZM100.292 12.0588H101.233V13H100.292V12.0588ZM100.292 11.1176H101.233V12.0588H100.292V11.1176ZM99.3511 11.1176H100.292V12.0588H99.3511V11.1176ZM99.3511 12.0588H100.292V13H99.3511V12.0588ZM99.3511 13H100.292V13.9412H99.3511V13ZM115.357 17.7059H116.298V18.6471H115.357V17.7059ZM114.415 17.7059H115.357V18.6471H114.415V17.7059ZM113.474 17.7059H114.415V18.6471H113.474V17.7059ZM113.474 16.7647H114.415V17.7059H113.474V16.7647ZM112.533 16.7647H113.474V17.7059H112.533V16.7647ZM114.415 16.7647H115.357V17.7059H114.415V16.7647ZM115.357 16.7647H116.298V17.7059H115.357V16.7647ZM114.415 15.8235H115.357V16.7647H114.415V15.8235ZM113.474 15.8235H114.415V16.7647H113.474V15.8235ZM112.533 15.8235H113.474V16.7647H112.533V15.8235ZM112.533 14.8824H113.474V15.8235H112.533V14.8824ZM113.474 14.8824H114.415V15.8235H113.474V14.8824ZM111.592 14.8824H112.533V15.8235H111.592V14.8824ZM110.651 14.8824H111.592V15.8235H110.651V14.8824ZM109.71 14.8824H110.651V15.8235H109.71V14.8824ZM108.768 15.8235H109.71V16.7647H108.768V15.8235ZM107.827 15.8235H108.768V16.7647H107.827V15.8235ZM107.827 14.8824H108.768V15.8235H107.827V14.8824ZM108.768 14.8824H109.71V15.8235H108.768V14.8824ZM109.71 15.8235H110.651V16.7647H109.71V15.8235ZM109.71 16.7647H110.651V17.7059H109.71V16.7647ZM110.651 16.7647H111.592V17.7059H110.651V16.7647ZM111.592 16.7647H112.533V17.7059H111.592V16.7647ZM111.592 15.8235H112.533V16.7647H111.592V15.8235ZM110.651 15.8235H111.592V16.7647H110.651V15.8235ZM108.768 16.7647H109.71V17.7059H108.768V16.7647ZM107.827 16.7647H108.768V17.7059H107.827V16.7647ZM106.886 16.7647H107.827V17.7059H106.886V16.7647ZM105.945 16.7647H106.886V17.7059H105.945V16.7647ZM105.945 15.8235H106.886V16.7647H105.945V15.8235ZM106.886 15.8235H107.827V16.7647H106.886V15.8235ZM107.827 17.7059H108.768V18.6471H107.827V17.7059ZM108.768 17.7059H109.71V18.6471H108.768V17.7059ZM106.886 17.7059H107.827V18.6471H106.886V17.7059ZM105.945 17.7059H106.886V18.6471H105.945V17.7059ZM105.004 17.7059H105.945V18.6471H105.004V17.7059ZM105.945 18.6471H106.886V19.5882H105.945V18.6471ZM105.004 18.6471H105.945V19.5882H105.004V18.6471ZM105.004 19.5882H105.945V20.5294H105.004V19.5882ZM105.945 19.5882H106.886V20.5294H105.945V19.5882ZM106.886 18.6471H107.827V19.5882H106.886V18.6471ZM107.827 18.6471H108.768V19.5882H107.827V18.6471ZM107.827 19.5882H108.768V20.5294H107.827V19.5882ZM108.768 19.5882H109.71V20.5294H108.768V19.5882ZM106.886 19.5882H107.827V20.5294H106.886V19.5882ZM106.886 20.5294H107.827V21.4706H106.886V20.5294ZM105.945 20.5294H106.886V21.4706H105.945V20.5294ZM106.886 21.4706H107.827V22.4118H106.886V21.4706ZM105.945 21.4706H106.886V22.4118H105.945V21.4706ZM107.827 20.5294H108.768V21.4706H107.827V20.5294ZM108.768 20.5294H109.71V21.4706H108.768V20.5294ZM108.768 21.4706H109.71V22.4118H108.768V21.4706ZM108.768 22.4118H109.71V23.3529H108.768V22.4118ZM107.827 22.4118H108.768V23.3529H107.827V22.4118ZM107.827 21.4706H108.768V22.4118H107.827V21.4706ZM109.71 21.4706H110.651V22.4118H109.71V21.4706ZM110.651 21.4706H111.592V22.4118H110.651V21.4706ZM110.651 20.5294H111.592V21.4706H110.651V20.5294ZM111.592 20.5294H112.533V21.4706H111.592V20.5294ZM112.533 20.5294H113.474V21.4706H112.533V20.5294ZM113.474 20.5294H114.415V21.4706H113.474V20.5294ZM109.71 20.5294H110.651V21.4706H109.71V20.5294ZM109.71 22.4118H110.651V23.3529H109.71V22.4118ZM110.651 22.4118H111.592V23.3529H110.651V22.4118ZM111.592 22.4118H112.533V23.3529H111.592V22.4118ZM112.533 22.4118H113.474V23.3529H112.533V22.4118ZM113.474 22.4118H114.415V23.3529H113.474V22.4118ZM113.474 21.4706H114.415V22.4118H113.474V21.4706ZM112.533 21.4706H113.474V22.4118H112.533V21.4706ZM111.592 21.4706H112.533V22.4118H111.592V21.4706ZM115.357 21.4706H116.298V22.4118H115.357V21.4706ZM114.415 21.4706H115.357V22.4118H114.415V21.4706ZM114.415 22.4118H115.357V23.3529H114.415V22.4118ZM115.357 22.4118H116.298V23.3529H115.357V22.4118ZM113.474 23.3529H114.415V24.2941H113.474V23.3529ZM112.533 23.3529H113.474V24.2941H112.533V23.3529ZM114.415 23.3529H115.357V24.2941H114.415V23.3529ZM115.357 23.3529H116.298V24.2941H115.357V23.3529ZM116.298 23.3529H117.239V24.2941H116.298V23.3529ZM116.298 24.2941H117.239V25.2353H116.298V24.2941ZM116.298 25.2353H117.239V26.1765H116.298V25.2353ZM115.357 25.2353H116.298V26.1765H115.357V25.2353ZM115.357 24.2941H116.298V25.2353H115.357V24.2941ZM114.415 24.2941H115.357V25.2353H114.415V24.2941ZM114.415 25.2353H115.357V26.1765H114.415V25.2353ZM113.474 24.2941H114.415V25.2353H113.474V24.2941ZM113.474 25.2353H114.415V26.1765H113.474V25.2353ZM112.533 25.2353H113.474V26.1765H112.533V25.2353ZM112.533 26.1765H113.474V27.1176H112.533V26.1765ZM113.474 26.1765H114.415V27.1176H113.474V26.1765ZM113.474 27.1176H114.415V28.0588H113.474V27.1176ZM114.415 27.1176H115.357V28.0588H114.415V27.1176ZM114.415 26.1765H115.357V27.1176H114.415V26.1765ZM115.357 26.1765H116.298V27.1176H115.357V26.1765ZM115.357 27.1176H116.298V28.0588H115.357V27.1176ZM113.474 28.0588H114.415V29H113.474V28.0588ZM112.533 28.0588H113.474V29H112.533V28.0588ZM112.533 27.1176H113.474V28.0588H112.533V27.1176ZM111.592 27.1176H112.533V28.0588H111.592V27.1176ZM110.651 27.1176H111.592V28.0588H110.651V27.1176ZM109.71 27.1176H110.651V28.0588H109.71V27.1176ZM109.71 26.1765H110.651V27.1176H109.71V26.1765ZM110.651 26.1765H111.592V27.1176H110.651V26.1765ZM111.592 26.1765H112.533V27.1176H111.592V26.1765ZM111.592 28.0588H112.533V29H111.592V28.0588ZM110.651 28.0588H111.592V29H110.651V28.0588ZM109.71 28.0588H110.651V29H109.71V28.0588ZM108.768 28.0588H109.71V29H108.768V28.0588ZM107.827 28.0588H108.768V29H107.827V28.0588ZM107.827 27.1176H108.768V28.0588H107.827V27.1176ZM108.768 27.1176H109.71V28.0588H108.768V27.1176ZM108.768 26.1765H109.71V27.1176H108.768V26.1765ZM107.827 26.1765H108.768V27.1176H107.827V26.1765ZM106.886 27.1176H107.827V28.0588H106.886V27.1176ZM105.945 27.1176H106.886V28.0588H105.945V27.1176ZM105.945 26.1765H106.886V27.1176H105.945V26.1765ZM106.886 26.1765H107.827V27.1176H106.886V26.1765ZM107.827 25.2353H108.768V26.1765H107.827V25.2353ZM108.768 25.2353H109.71V26.1765H108.768V25.2353ZM107.827 24.2941H108.768V25.2353H107.827V24.2941ZM106.886 24.2941H107.827V25.2353H106.886V24.2941ZM105.945 24.2941H106.886V25.2353H105.945V24.2941ZM105.004 24.2941H105.945V25.2353H105.004V24.2941ZM105.004 25.2353H105.945V26.1765H105.004V25.2353ZM105.945 25.2353H106.886V26.1765H105.945V25.2353ZM106.886 25.2353H107.827V26.1765H106.886V25.2353ZM116.298 17.7059H117.239V18.6471H116.298V17.7059ZM115.357 15.8235H116.298V16.7647H115.357V15.8235ZM116.298 18.6471H117.239V19.5882H116.298V18.6471ZM115.357 18.6471H116.298V19.5882H115.357V18.6471ZM114.415 18.6471H115.357V19.5882H114.415V18.6471ZM113.474 18.6471H114.415V19.5882H113.474V18.6471ZM112.533 17.7059H113.474V18.6471H112.533V17.7059Z" fill="#0635F6"/>
</svg>
