<?xml version="1.0" encoding="UTF-8" standalone="no"?>
<!-- Created with Inkscape (http://www.inkscape.org/) -->

<svg
   version="1.1"
   id="svg1"
   width="1200"
   height="738"
   viewBox="0 0 1200 738"
   sodipodi:docname="Markdown-mark.png"
   xmlns:inkscape="http://www.inkscape.org/namespaces/inkscape"
   xmlns:sodipodi="http://sodipodi.sourceforge.net/DTD/sodipodi-0.dtd"
   xmlns="http://www.w3.org/2000/svg"
   xmlns:svg="http://www.w3.org/2000/svg">
  <defs
     id="defs1" />
  <sodipodi:namedview
     id="namedview1"
     pagecolor="#ffffff"
     bordercolor="#000000"
     borderopacity="0.25"
     inkscape:showpageshadow="2"
     inkscape:pageopacity="0.0"
     inkscape:pagecheckerboard="0"
     inkscape:deskcolor="#d1d1d1" />
  <g
     inkscape:groupmode="layer"
     inkscape:label="Image"
     id="g1">
    <path
       style="fill:#ffffff"
       d="M 67.872881,745.84193 C 35.508849,739.97323 8.89736,715.37963 -0.38525398,682.75953 L -2.627119,674.88133 -2.888773,382.39048 C -3.176194,61.095874 -3.532103,81.051214 2.77542,64.807324 11.398788,42.599384 30.08146,23.910934 52.273805,15.293614 68.697417,8.9163139 25.860348,9.3813539 596.87288,9.3813539 c 571.01252,0 528.17552,-0.46504 544.59912,5.9122601 22.2578,8.64275 40.8495,27.24025 49.4984,49.51371 6.3075,16.24389 5.9516,-3.71145 5.6642,317.583156 l -0.2617,292.49085 -2.2419,7.8782 c -9.3279,32.7792 -36.1674,57.4105 -68.7483,63.0922 -7.8016,1.3604 -66.3523,1.5197 -529.39081,1.4399 -434.31725,-0.075 -521.862266,-0.3152 -528.119009,-1.4497 z M 1124.0389,686.13843 c 2.5664,-1.5087 6.2637,-4.6095 8.2164,-6.8907 7.2217,-8.437 6.6593,18.2895 6.3744,-302.89482 l -0.2568,-289.471556 -2.7118,-4.61285 c -2.9367,-4.99543 -7.9217,-9.81498 -13.0517,-12.61845 -3.0837,-1.68521 -27.8996,-1.7687 -525.73652,-1.7687 -497.836939,0 -522.652768,0.0835 -525.736501,1.7687 -5.129992,2.80347 -10.11503,7.62302 -13.051721,12.61845 l -2.711777,4.61285 -0.25677,289.367996 c -0.169762,191.31408 0.08338,290.63118 0.747044,293.09588 2.0148,7.4824 9.981636,15.8322 17.757695,18.6114 3.121982,1.1158 91.23951,1.306 524.75203,1.1328 l 521.00002,-0.2081 z M 169.87288,378.38135 v -196 l 57.75,0.0211 57.75,0.0211 57.71244,72.02052 57.71244,72.02051 57.63873,-72.04164 57.63873,-72.04159 h 57.89883 57.89883 v 196 195.99998 H 573.87719 515.8815 l -0.25431,-112.06884 -0.25431,-112.06886 -56.84758,71.07015 c -31.26617,39.08859 -57.15065,71.25746 -57.52107,71.48639 -0.37041,0.22893 -26.314,-31.69853 -57.65241,-70.9499 -31.33842,-39.25138 -57.31644,-71.38927 -57.72894,-71.41753 -0.4125,-0.0283 -0.75,50.34861 -0.75,111.94861 v 111.99998 h -57.5 -57.5 z m 635.11616,101.28014 -86.22356,-94.78014 57.3037,-0.5 57.3037,-0.5 0.25478,-100.75 0.25479,-100.75 h 57.49521 57.49522 v 101 101 h 57.52722 57.5272 l -85.6814,94.25 c -47.12476,51.8375 -85.98556,94.60108 -86.35734,95.03018 -0.37178,0.429 -39.47656,-41.87097 -86.89952,-94.00004 z"
       id="path1" />
  </g>
</svg>
